<svg xmlns="http://www.w3.org/2000/svg" viewBox="0 0 48 48"><path d="M16.7 28c-2.2 0-4-1.8-4-4s1.8-4 4-4 4 1.8 4 4-1.8 4-4 4zm0-7c-1.6 0-3 1.3-3 3 0 1.6 1.3 3 3 3s3-1.3 3-3c0-1.6-1.4-3-3-3z" fill="#e50031"/><path d="M16.7 35.2c-.8 0-1.6-.1-2.4-.3-.2-.1-.4-.3-.4-.5v-2.9c-.8-.3-1.6-.8-2.3-1.3l-2.5 1.5c-.2.1-.5.1-.6-.1-1.1-1.2-1.9-2.6-2.4-4.1-.1-.2 0-.5.2-.6l2.5-1.5c-.1-.4-.1-.9-.1-1.3s0-.9.1-1.3l-2.5-1.5c-.2-.1-.3-.4-.2-.6.5-1.5 1.3-2.9 2.4-4.1.2-.2.4-.2.6-.1l2.5 1.5c.7-.6 1.5-1 2.3-1.3v-2.9c0-.2.2-.4.4-.5 1.5-.4 3.3-.3 4.8 0 .2.1.4.3.4.5v2.9c.8.3 1.6.8 2.3 1.3l2.5-1.5c.2-.1.5-.1.6.1 1.1 1.2 1.9 2.6 2.4 4.1.1.2 0 .5-.2.6l-2.5 1.5c.1.4.1.9.1 1.3s0 .9-.1 1.3l2.5 1.5c.2.1.3.4.2.6-.5 1.5-1.3 3-2.4 4.1-.2.2-.4.2-.6.1l-2.5-1.5c-.7.6-1.5 1-2.3 1.3v2.9c0 .2-.2.4-.4.5-.8.2-1.5.3-2.4.3zM14.9 34c1.2.2 2.4.2 3.6 0v-2.9c0-.2.1-.4.3-.5 1-.3 1.8-.8 2.6-1.5.2-.1.4-.2.6-.1l2.5 1.4c.8-.9 1.4-2 1.8-3.1L23.8 26c-.2-.1-.3-.3-.2-.5.1-.5.2-1 .2-1.5s-.1-1-.2-1.5c0-.2.1-.4.2-.5l2.5-1.4c-.4-1.1-1-2.2-1.8-3.1L22 18.9c-.2.1-.4.1-.6-.1-.7-.7-1.6-1.2-2.6-1.5-.2-.1-.3-.3-.3-.5V14c-1.1-.2-2.4-.2-3.6 0v2.9c0 .2-.1.4-.4.5-.9.3-1.8.8-2.6 1.5-.2.2-.4.2-.6.1l-2.5-1.4c-.8.9-1.4 2-1.8 3.1L9.6 22c.2.1.3.3.2.5-.1.5-.2 1-.2 1.5s.1 1 .2 1.5c0 .2-.1.4-.2.5l-2.5 1.4c.4 1.1 1 2.2 1.8 3.1l2.5-1.4c.2-.1.4-.1.6.1.7.7 1.6 1.2 2.5 1.5.2.1.4.3.4.5V34z" fill="#005a8f"/><path d="M34.3 29.5c-.6 0-1.3-.2-1.8-.6-.6-.5-1-1.2-1.1-1.9s.1-1.5.6-2.1 1.2-1 1.9-1.1c1.5-.2 3 .9 3.2 2.5.1.8-.1 1.5-.6 2.1s-1.2 1-1.9 1.1h-.3zm0-4.8h-.2c-.5.1-.9.3-1.2.7-.3.4-.4.9-.4 1.4.1.5.3.9.7 1.2.4.3.9.4 1.4.4.5-.1.9-.3 1.2-.7.3-.4.4-.9.4-1.4-.1-.5-.3-.9-.7-1.2-.4-.2-.8-.4-1.2-.4z" fill="#e50031"/><path d="M34.2 34.4h-.7c-.2 0-.4-.2-.4-.4l-.2-2c-.5-.1-1-.4-1.5-.7l-1.5 1.1c-.2.1-.4.1-.6 0l-.6-.6c-.6-.6-1-1.3-1.4-2.1-.1-.2 0-.5.2-.6L29 28c-.1-.3-.1-.5-.2-.8v-.8l-1.8-.7c-.2-.1-.3-.3-.3-.6.2-.9.5-1.8 1-2.6.1-.2.2-.3.3-.4.1-.2.4-.3.6-.2l1.7.7c.4-.4.8-.7 1.3-1l-.2-1.9c0-.2.1-.5.3-.5.5-.2 1.1-.3 1.6-.4.6-.1 1.1-.1 1.7 0 .2 0 .4.2.4.4l.2 1.9c.5.1 1 .4 1.5.7l1.5-1.1c.2-.1.4-.1.6 0 .9.7 1.5 1.6 2 2.7.1.2 0 .5-.2.6l-1.5 1.1c.1.3.1.5.2.8v.8l1.7.7c.2.1.3.3.3.6-.2 1.1-.7 2.2-1.3 3.1-.1.2-.4.3-.6.2l-1.7-.7c-.4.4-.8.7-1.3 1l.2 1.9c0 .2-.1.5-.3.5-.1 0-.2.1-.3.1h-.1l-1.2.3h-.5c0-.1-.2 0-.4 0zm-.1-1h1.1c.3 0 .7-.1 1-.2l-.2-1.8c0-.2.1-.4.3-.5.6-.3 1.1-.7 1.6-1.2.1-.2.4-.2.6-.1l1.7.7c.4-.6.7-1.2.8-1.9l-1.7-.7c-.2-.1-.3-.3-.3-.5v-1c0-.3-.1-.6-.2-1-.1-.2 0-.4.2-.6l1.5-1.1c-.3-.6-.7-1.2-1.3-1.7l-1.5 1.1c-.2.1-.4.1-.6 0-.5-.4-1.1-.7-1.8-.8-.2 0-.4-.2-.4-.4l-.2-1.8h-1.1c-.4 0-.7.1-1 .2l.2 1.8c0 .2-.1.4-.3.5-.6.3-1.1.7-1.6 1.2-.1.2-.4.2-.6.1l-1.7-.7c-.4.7-.7 1.3-.8 1.9l1.7.7c.2.1.3.3.3.5v1c0 .3.1.7.2 1 .1.2 0 .4-.2.6l-1.4 1.1c.3.5.6 1 1 1.5l.2.2 1.5-1.1c.2-.1.4-.1.6 0 .5.4 1.1.7 1.8.8.2 0 .4.2.4.4l.2 1.8z" fill="#005a8f"/></svg>