<?xml version="1.0" encoding="utf-8"?>
<!-- Generator: Adobe Illustrator 23.0.5, SVG Export Plug-In . SVG Version: 6.00 Build 0)  -->
<svg version="1.1" id="Layer_1" xmlns="http://www.w3.org/2000/svg" xmlns:xlink="http://www.w3.org/1999/xlink" x="0px" y="0px"
	 viewBox="0 0 12.2 9" style="enable-background:new 0 0 12.2 9;" xml:space="preserve">
<g>
	<path d="M12.1,4.7c0-0.1,0.1-0.1,0.1-0.2s0-0.2-0.1-0.2c0,0,0,0,0-0.1L12,4.1l0,0l-7-4C4.7-0.1,4.4,0,4.3,0.3
		C4.1,0.5,4.2,0.8,4.4,0.9L9.8,4H0.5C0.2,4,0,4.2,0,4.5S0.2,5,0.5,5h9.3L4.4,8.1C4.2,8.2,4.1,8.5,4.3,8.7C4.3,8.9,4.5,9,4.7,9
		c0.1,0,0.2,0,0.2-0.1l7-4l0,0C12,4.9,12,4.8,12.1,4.7C12.1,4.8,12.1,4.7,12.1,4.7z"/>
</g>
</svg>
