<?xml version="1.0" encoding="utf-8"?>
<!-- Generator: Adobe Illustrator 23.0.5, SVG Export Plug-In . SVG Version: 6.00 Build 0)  -->
<svg version="1.1" id="Layer_1" xmlns="http://www.w3.org/2000/svg" xmlns:xlink="http://www.w3.org/1999/xlink" x="0px" y="0px"
	 viewBox="0 0 48 48" style="enable-background:new 0 0 48 48;" xml:space="preserve">
<path style="fill:#E50031;" d="M13.6,31.3c-0.6,0-1.3-0.1-1.9-0.2c-0.3-0.1-0.4-0.3-0.4-0.6c0.1-0.3,0.3-0.5,0.6-0.4
	c1.2,0.2,2.3,0.2,3.5,0c0.3-0.1,0.5,0.1,0.6,0.4s-0.1,0.5-0.4,0.6C14.9,31.2,14.2,31.3,13.6,31.3z"/>
<g>
	<path style="fill:#005A8F;" d="M47.5,15.8c0-0.1,0-0.1,0-0.2c0-0.2-0.8-5.1-7.1-7.9c-2.5-1.1-5.2-1.2-7.5-0.3
		c-1.3,0.5-2.2,1.3-2.8,2.3c-0.3-0.3-0.6-0.8-0.4-1.6c0.1-0.3-0.1-0.5-0.3-0.6c-0.3-0.1-0.5,0.1-0.6,0.3c-0.2,0.6-0.1,1.1,0,1.6
		c-0.4,0-0.9,0-1.3,0.2c-0.3,0.1-0.4,0.4-0.3,0.6c0.1,0.3,0.4,0.4,0.6,0.3c0.5-0.2,0.9-0.2,1.3-0.1c-0.7,0.5-1.4,1.1-2,1.7
		c-0.2,0.2-0.3,0.4-0.5,0.6c-0.2,0.2-0.3,0.4-0.4,0.6c-0.1,0.2-0.3,0.4-0.4,0.6c-0.1,0.2-0.2,0.4-0.4,0.7c-1.5-4-4.4-6.9-8.1-8.1
		l0,0l0,0c-0.3-0.1-0.5-0.2-0.8-0.2c-1-0.2-2-0.4-3-0.4c-7.6,0.1-13,6.3-13,15.3v0.5v12.5c0,0.3,0.2,0.5,0.5,0.5
		c2,0.2,3.8,0.3,5.4,0.4l-2.3,1.1c-0.2,0.1-0.4,0.4-0.3,0.6c0,0,0.4,1,1.4,2c0,0,0,0,0.1,0c0,0,0.1,0,0.1,0.1h0.1c0,0,0,0,0.1,0
		s0.1,0,0.2,0l1.4-0.6l-0.5,1.2c0,0.1,0,0.1,0,0.2l0,0l0,0v0.1c0,0,0,0.1,0.1,0.1l0,0L6.9,40l0,0l0,0c0,0,0,0,0.1,0
		c1.8,1.1,4,1.7,6.5,1.7s4.7-0.6,6.5-1.7c0,0,0,0,0.1,0l0,0l0,0l0.1-0.1c0,0,0,0,0-0.1v-0.1v-0.1c0,0,0,0,0-0.1l0,0v-0.1v-0.1
		l-0.5-1.2l1.4,0.6l0,0c0.1,0,0.1,0,0.2,0c0,0,0,0,0.1,0h0.1c0,0,0.1,0,0.1-0.1l0,0c1-1.1,1.4-2,1.4-2c0.1-0.2,0-0.5-0.3-0.6
		l-2.3-1.1c1.6-0.1,3.3-0.3,5.4-0.5c0.3,0,0.5-0.2,0.5-0.5v-3.7c1.2,1.8,2.6,2.9,3.8,3.7L26,36.2c-0.2,0.1-0.4,0.4-0.3,0.6
		c0,0,0.4,1,1.4,2l0,0l0.1,0.1h0.1l0,0c0.1,0,0.1,0,0.2,0l0,0l1.4-0.6l-0.5,1.2c0,0.1,0,0.1,0,0.2l0,0l0,0c0,0,0,0,0,0.1v0.1
		c0,0,0,0.1,0.1,0.1l0,0l0.1,0.1l0,0l0,0h0.1c1.8,1.1,4,1.7,6.5,1.7l0,0l0,0l0,0l0,0c2.5,0,4.7-0.6,6.5-1.7c0,0,0,0,0.1,0l0,0l0,0
		c0,0,0.1,0,0.1-0.1c0,0,0,0,0.1-0.1c0,0,0,0,0-0.1v-0.1l0,0l0,0c0-0.1,0-0.1,0-0.2l-0.5-1.2l1.4,0.6c0.1,0,0.1,0,0.2,0
		c0,0,0,0,0.1,0s0.1,0,0.1,0s0.1,0,0.1-0.1l0,0c1-1.1,1.4-2,1.4-2c0.1-0.2,0-0.5-0.3-0.6l-4.4-2.1c2.3-1.4,6-4.8,6.3-12
		c0-0.3,0-0.6,0-1c0-1.3-0.1-2.6-0.4-3.8C46.9,16.9,47.3,16.4,47.5,15.8z M32.2,15.9c0.1,0.1,0.3,0.2,0.5,0.4
		c0.1,0.1,0.2,0.2,0.3,0.3c0.2,0.1,0.3,0.2,0.5,0.3c0.1,0.1,0.2,0.2,0.4,0.2c0.2,0.1,0.4,0.2,0.6,0.3c0.1,0.1,0.2,0.1,0.4,0.2
		s0.5,0.2,0.7,0.3c0.1,0,0.2,0.1,0.3,0.1c0.4,0.1,0.7,0.3,1.1,0.4c0.5,0.2,1,0.3,1.5,0.4c0.1,0,0.1,0,0.2,0l-0.1,0.1
		c-0.1,0-0.1,0.1-0.2,0.1c-0.1,0.1-0.2,0.2-0.4,0.3c-0.1,0.1-0.1,0.1-0.2,0.2c-0.1,0.1-0.2,0.2-0.3,0.4L37.4,20
		c-0.1,0.2-0.2,0.4-0.3,0.6c-0.1-0.1-0.1-0.1-0.2-0.1c-0.1,0-0.1-0.1-0.1-0.1c-0.1,0-0.1-0.1-0.2-0.1c-0.1,0-0.1-0.1-0.2-0.1
		c-0.1,0-0.2-0.1-0.3-0.1s-0.1,0-0.2,0c-0.1,0-0.3,0-0.4,0c-0.2,0-0.3,0-0.5,0c-0.1,0-0.1,0-0.2,0.1c-0.1,0-0.2,0-0.2,0.1
		c-0.1,0-0.1,0.1-0.2,0.1c-0.1,0-0.1,0.1-0.2,0.1c-0.1,0.1-0.1,0.1-0.2,0.2l-0.1,0.1c-0.1-0.2-0.2-0.4-0.3-0.5
		c0-0.1-0.1-0.1-0.1-0.1c-0.1-0.1-0.2-0.3-0.3-0.4l-0.1-0.1c-0.1-0.1-0.3-0.3-0.5-0.4c0,0,0,0-0.1,0c-0.2-0.1-0.4-0.2-0.6-0.3
		c-0.1,0-0.1,0-0.2-0.1c-0.2-0.1-0.3-0.1-0.5-0.1c-0.1,0-0.1,0-0.2,0c-0.2,0-0.5-0.1-0.7-0.1c-0.3,0-0.5,0-0.8,0.1
		c-0.1,0-0.2,0-0.2,0.1c-0.2,0-0.3,0.1-0.5,0.1c-0.1,0-0.2,0.1-0.3,0.1c-0.1,0.1-0.3,0.1-0.4,0.2s-0.2,0.1-0.3,0.2
		c-0.1,0.1-0.2,0.2-0.3,0.3c-0.1,0.1-0.1,0.1-0.2,0.2s-0.2,0.2-0.3,0.3c-0.1,0.1-0.1,0.2-0.2,0.3c-0.1,0.1-0.1,0.2-0.2,0.3
		c0,0.1-0.1,0.2-0.1,0.3c0,0.1-0.1,0.3-0.1,0.4s-0.1,0.2-0.1,0.3V22h-1.1c0-0.1,0-0.3,0-0.4c0-0.4,0-0.7,0-1c0-0.1,0-0.2,0-0.3
		c0-0.2,0-0.5,0.1-0.7c0-0.1,0-0.2,0.1-0.4c0-0.2,0.1-0.4,0.1-0.6c0-0.1,0.1-0.3,0.1-0.4s0.1-0.3,0.1-0.4c0.1,0,0.1,0,0.2-0.1
		c1.3-0.4,2.6-1.1,3.7-2c0.3-0.2,0.5-0.5,0.8-0.7c0.1-0.1,0.1-0.1,0.2-0.2c0.1-0.1,0.1-0.1,0.2-0.2c0,0,0,0,0.1,0.1s0.1,0.2,0.2,0.3
		c0.1,0.2,0.2,0.3,0.4,0.4c0.1,0.1,0.2,0.2,0.3,0.3c0.1,0.1,0.3,0.3,0.4,0.4C32,15.7,32.1,15.8,32.2,15.9z M44.1,18.7
		c0.4-0.1,0.7-0.2,1.1-0.4c0,0,0.1,0,0.1-0.1c0.1-0.1,0.2-0.1,0.3-0.2c0.2,1,0.3,2,0.3,3.1c0,0.1,0,0.3,0,0.4h-1.2v-0.1
		c0-0.2-0.1-0.3-0.1-0.5c0-0.1-0.1-0.2-0.1-0.3c-0.1-0.2-0.2-0.3-0.2-0.4S44.2,20,44.2,20c-0.1-0.2-0.3-0.3-0.4-0.5l-0.1-0.1
		c-0.2-0.2-0.4-0.3-0.6-0.5l0,0C43.4,18.8,43.8,18.8,44.1,18.7C44,18.7,44,18.7,44.1,18.7z M43.7,22.1c0,1.5-1.3,2.8-3,2.8
		s-3-1.2-3-2.8s1.4-2.8,3-2.8C42.4,19.3,43.7,20.6,43.7,22.1z M33.2,22.1c0,1.5-1.4,2.8-3,2.8c-1.7,0-3-1.2-3-2.8s1.3-2.8,3-2.8
		C31.9,19.3,33.2,20.6,33.2,22.1z M26.1,15.8c0.2-0.5,0.4-0.9,0.7-1.3c0.1-0.2,0.2-0.4,0.4-0.6c0.1-0.2,0.2-0.4,0.4-0.6
		c0.1-0.2,0.3-0.4,0.5-0.5c0.5-0.6,1.1-1.1,1.8-1.6c0,0.2,0,0.4,0,0.6c0,0.1,0,0.1,0,0.2c0,0.2,0.1,0.5,0.2,0.7l0,0
		c0.1,0.2,0.1,0.3,0.2,0.5c-0.1,0.1-0.2,0.3-0.3,0.4c-0.1,0.1-0.1,0.2-0.2,0.2c-0.2,0.2-0.5,0.5-0.7,0.7s-0.5,0.4-0.7,0.6
		c-0.1,0.1-0.2,0.1-0.2,0.2c-0.2,0.1-0.4,0.2-0.5,0.3s-0.2,0.1-0.3,0.2c-0.2,0.1-0.3,0.2-0.5,0.2c-0.1,0-0.2,0.1-0.3,0.1
		c-0.1,0-0.2,0.1-0.3,0.1c0-0.1,0.1-0.2,0.1-0.2L26.1,15.8z M24.9,16L24.9,16c-0.1,0.3-0.2,0.5-0.2,0.8l0,0l0,0l0,0
		c-0.4,1.4-0.6,2.8-0.6,4.4c0,0.3,0,0.7,0,1c0,0.5,0.1,1.1,0.1,1.6c0,0.2,0,0.3,0.1,0.5c0,0.2,0.1,0.4,0.1,0.6h-0.1
		c-0.3,0-0.6-0.1-0.9-0.2l0,0c-0.3-0.1-0.6-0.2-0.9-0.3c-0.1,0-0.2-0.1-0.2-0.1c-0.1,0-0.2-0.1-0.2-0.1l0,0c0.1-0.1,0.1-0.1,0.1-0.2
		c0,0,0-0.1,0.1-0.1c0-0.1,0.1-0.2,0.1-0.4c0-0.1,0-0.3-0.1-0.4c0,0,0-0.1-0.1-0.1c0-0.1-0.1-0.2-0.1-0.2L22,22.7
		c-0.1-0.1-0.1-0.1-0.2-0.2c-0.1,0-0.1-0.1-0.2-0.1c-0.1-0.1-0.2-0.1-0.3-0.1c-0.1,0-0.1-0.1-0.2-0.1s-0.2-0.1-0.3-0.1
		c-0.1,0-0.2,0-0.2-0.1c-0.1,0-0.2-0.1-0.3-0.1c-0.1,0-0.2,0-0.3,0c-0.1,0-0.2,0-0.4-0.1c-0.1,0-0.2,0-0.3,0c-0.1,0-0.1,0-0.2,0
		c-0.2-0.2-0.3-0.4-0.4-0.6s-0.3-0.3-0.4-0.5c-0.2-0.3-0.3-0.5-0.5-0.8c-0.1-0.2-0.2-0.4-0.3-0.5c-0.2-0.3-0.3-0.6-0.4-1
		c-0.1-0.2-0.1-0.3-0.2-0.5c-0.2-0.5-0.4-1-0.5-1.5l-0.1-0.3c0.1-0.3,0.3-0.5,0.4-0.8c0.1-0.2,0.2-0.4,0.3-0.6
		c0.1-0.3,0.2-0.6,0.3-0.9c0.1-0.2,0.2-0.4,0.2-0.6c0.1-0.3,0.2-0.6,0.2-1c0-0.2,0.1-0.4,0.1-0.5c0.1-0.5,0.1-0.9,0.2-1.4v-0.1l0,0
		c0-0.3,0-0.6,0-1c0-0.1,0-0.2,0-0.3c0-0.2,0-0.5-0.1-0.7c0-0.1,0-0.1,0-0.2C21.3,9.1,23.8,12.1,24.9,16z M22.4,26.5
		c-0.1,0.2-0.1,0.4-0.2,0.6s-0.1,0.4-0.2,0.5c-0.1,0.2-0.1,0.4-0.2,0.5c-0.1,0.2-0.1,0.3-0.2,0.5s-0.2,0.3-0.2,0.5
		c-0.1,0.1-0.1,0.3-0.2,0.4c-0.1,0.2-0.2,0.3-0.3,0.4c-0.1,0.1-0.2,0.3-0.2,0.4c-0.1,0.1-0.2,0.3-0.3,0.4c-0.1,0.1-0.2,0.2-0.2,0.3
		c-0.1,0.1-0.2,0.2-0.3,0.4c-0.1,0.1-0.2,0.2-0.2,0.3c-0.1,0.1-0.2,0.2-0.3,0.3c-0.1,0.1-0.2,0.2-0.3,0.2c-0.1,0.1-0.2,0.2-0.3,0.3
		c-0.1,0.1-0.2,0.1-0.2,0.2c-0.1,0.1-0.2,0.2-0.3,0.2c-0.1,0.1-0.2,0.1-0.2,0.2c-0.1,0.1-0.2,0.1-0.3,0.2c-0.1,0.1-0.2,0.1-0.2,0.2
		c-0.1,0.1-0.2,0.1-0.3,0.2c-0.1,0-0.2,0.1-0.2,0.1c-0.1,0-0.2,0.1-0.3,0.1c-0.1,0-0.1,0.1-0.2,0.1s-0.2,0.1-0.2,0.1
		c-0.1,0-0.1,0.1-0.2,0.1s-0.1,0.1-0.2,0.1c-0.1,0-0.1,0-0.2,0.1c-0.1,0-0.2,0.1-0.3,0.1h-0.1c-1.2,0.4-2.2,0.3-3.3,0
		c-0.2-0.1-0.4-0.1-0.6-0.2c-0.1,0-0.1-0.1-0.2-0.1c-0.1-0.1-0.3-0.1-0.4-0.2c-0.1,0-0.2-0.1-0.3-0.1c-0.1-0.1-0.3-0.1-0.4-0.2
		c-0.1-0.1-0.2-0.1-0.3-0.2c-0.1-0.1-0.2-0.2-0.4-0.2C9.2,33.2,9.1,33.1,9,33s-0.2-0.2-0.3-0.3s-0.2-0.2-0.3-0.2
		c-0.1-0.1-0.2-0.2-0.3-0.3c-0.1,0-0.2-0.1-0.3-0.2c-0.1-0.1-0.2-0.2-0.3-0.3c-0.1-0.1-0.2-0.2-0.3-0.3C7.1,31.2,7,31.1,6.9,31
		s-0.2-0.2-0.2-0.3c-0.1-0.1-0.2-0.3-0.3-0.4c-0.1-0.1-0.2-0.2-0.2-0.4c-0.1-0.1-0.2-0.3-0.3-0.4c-0.1-0.1-0.1-0.3-0.2-0.4
		c-0.1-0.2-0.2-0.3-0.2-0.5c-0.1-0.1-0.1-0.3-0.2-0.4c-0.1-0.2-0.1-0.3-0.2-0.5C5,27.5,5,27.3,4.9,27.2c-0.1-0.2-0.1-0.4-0.2-0.6
		c0-0.2-0.1-0.3-0.1-0.5c-0.1-0.2-0.1-0.4-0.1-0.6S4.4,25.1,4.4,25c0-0.2-0.1-0.4-0.1-0.6S4.2,24,4.2,23.8c0-0.1,0-0.2,0-0.4l0,0
		c0.1,0,0.2,0,0.3,0c0.1,0,0.2,0,0.4,0c0.1,1.1,1.9,1.7,3.6,1.7c1.6,0,3.2-0.5,3.6-1.4c0-0.1,0.1-0.2,0.1-0.2c0-0.1,0.5-0.4,1.4-0.4
		s1.4,0.3,1.4,0.4s0.1,0.2,0.1,0.3c0.4,0.9,2,1.4,3.5,1.4c0.3,0,0.5,0,0.8,0c0.1,0,0.2,0,0.3,0c0.2,0,0.3,0,0.5-0.1
		c0.1,0,0.2,0,0.3-0.1c0.1,0,0.2-0.1,0.4-0.1c0.1,0,0.2-0.1,0.3-0.1c0.1,0,0.1,0,0.2-0.1c0.3,0.2,0.5,0.3,0.8,0.4
		c0.1,0,0.1,0,0.2,0.1c0.2,0.1,0.4,0.2,0.6,0.2c0,0.1-0.1,0.3-0.1,0.4C22.5,26.1,22.5,26.3,22.4,26.5z M16.9,35.9
		c0,0.2-0.1,0.4-0.1,0.5s0,0.2-0.1,0.3c0,0.1-0.1,0.3-0.1,0.4c0,0.1-0.1,0.2-0.1,0.3s-0.1,0.2-0.1,0.4c0,0.1-0.1,0.2-0.1,0.2
		c-0.1,0.1-0.1,0.2-0.2,0.3c0,0.1-0.1,0.1-0.1,0.2c-0.1,0.1-0.1,0.2-0.2,0.3l-0.1,0.1c-0.1,0.1-0.2,0.3-0.3,0.4l0,0
		c-0.1,0.1-0.2,0.3-0.3,0.4L15,39.8c-0.1,0.1-0.1,0.1-0.2,0.2l-0.1,0.1c-0.1,0.1-0.1,0.1-0.2,0.2l-0.1,0.1c-0.1,0-0.1,0.1-0.2,0.1
		l-0.1,0.1c-0.1,0-0.1,0.1-0.2,0.1c0,0-0.1,0-0.1,0.1c-0.1,0-0.1,0.1-0.1,0.1s0,0-0.1,0S13.5,41,13.4,41h-0.1c0,0,0,0-0.1,0
		s-0.1-0.1-0.2-0.1c0,0,0,0-0.1,0s-0.1-0.1-0.2-0.1l-0.1-0.1c-0.1,0-0.1-0.1-0.2-0.1l-0.1-0.1c-0.1,0-0.1-0.1-0.2-0.2L12,40.2
		c-0.1-0.1-0.1-0.1-0.2-0.2l-0.1-0.1c-0.1-0.1-0.2-0.2-0.2-0.3c0,0,0-0.1-0.1-0.1c-0.1-0.1-0.2-0.3-0.3-0.4c0,0,0-0.1-0.1-0.1
		c-0.1-0.1-0.1-0.2-0.2-0.4c0-0.1-0.1-0.1-0.1-0.2c-0.1-0.1-0.1-0.2-0.2-0.3c0-0.1-0.1-0.1-0.1-0.2c0-0.1-0.1-0.2-0.1-0.4
		c0-0.1-0.1-0.2-0.1-0.2c0-0.1-0.1-0.3-0.1-0.4c0-0.1,0-0.2-0.1-0.3c0-0.2-0.1-0.4-0.1-0.6c0-0.1,0-0.1,0-0.2c0-0.2-0.1-0.5-0.1-0.8
		l0,0c0.1,0.1,0.3,0.1,0.4,0.2c0.1,0,0.2,0.1,0.3,0.1c0.2,0.1,0.5,0.2,0.7,0.2c0.3,0.1,0.7,0.2,1,0.2c0.1,0,0.3,0,0.4,0
		c0.2,0,0.3,0,0.5,0c0,0,0,0,0.1,0c0.3,0,0.5,0,0.8-0.1c0,0,0,0,0.1,0c0.3,0,0.6-0.1,0.9-0.2l0,0h0.1c0.1,0,0.2-0.1,0.3-0.1h0.1
		c0.1,0,0.2-0.1,0.2-0.1c0.1,0,0.1,0,0.2-0.1c0.1,0,0.2-0.1,0.3-0.1s0.1-0.1,0.2-0.1s0.1,0,0.2-0.1c0,0.3,0,0.5-0.1,0.8
		C16.9,35.7,16.9,35.8,16.9,35.9z M6.5,23.3c0.2,0,0.4-0.1,0.6-0.1c0.1,0,0.2,0,0.3-0.1C7.7,23,8,22.9,8.3,22.8l0,0
		c0.3-0.1,0.5-0.2,0.8-0.3c1.3,0.1,2.1,0.6,2.1,0.8c0,0.2-0.9,0.8-2.6,0.8c-1.6,0-2.5-0.5-2.6-0.8c0.1,0,0.2,0,0.3-0.1
		C6.3,23.3,6.4,23.3,6.5,23.3z M15.5,16.9c0.1,0.3,0.2,0.5,0.3,0.7c0,0.1,0.1,0.2,0.1,0.4c0.2,0.5,0.4,1,0.6,1.4
		c0,0.1,0.1,0.2,0.2,0.3c0.2,0.4,0.4,0.7,0.6,1.1c0.1,0.1,0.2,0.3,0.3,0.4c0.1,0.1,0.2,0.2,0.2,0.4c-0.1,0-0.2,0-0.3,0
		c-0.1,0-0.1,0-0.2,0c-0.2,0-0.4,0.1-0.6,0.1l0,0c-0.2,0.1-0.3,0.1-0.5,0.2c-0.1,0-0.1,0-0.1,0.1c-0.1,0.1-0.2,0.1-0.3,0.2l-0.1,0.1
		c-0.1,0.1-0.2,0.1-0.2,0.2l0,0c-0.4-0.3-1.1-0.4-1.8-0.4s-1.4,0.2-1.8,0.4c-0.3-0.3-0.7-0.6-1.3-0.7c1.6-1,3.1-2.2,4.3-3.8
		C15,17.6,15.3,17.3,15.5,16.9z M20.9,23.7c-0.5,0.3-1.4,0.5-2.3,0.5c-1.7,0-2.6-0.6-2.6-0.8c0-0.3,0.9-0.9,2.6-0.9h0.1
		c1.7,0,2.5,0.6,2.5,0.9C21.3,23.4,21.2,23.5,20.9,23.7z M13.6,7c1,0,1.9,0.1,2.8,0.3c0.1,0,0.3,0.1,0.4,0.1
		c0.1,0.2,0.1,0.4,0.1,0.7c0,0.1,0,0.3,0.1,0.4c0,0.4,0,0.9,0,1.3l0,0c0,0.3-0.1,0.6-0.1,0.9c0,0.2,0,0.3-0.1,0.5c0,0.1,0,0.1,0,0.2
		c-0.3,1.3-0.8,2.7-1.5,4C15,16,14.5,16.7,14,17.3c-1.5,1.9-3.3,3.3-5.2,4.2c-1.1,0.5-2.3,0.8-3.3,0.9c-0.5,0-1,0-1.6-0.1
		c-0.1,0-0.1,0-0.2,0l0,0l0,0c-0.2,0-0.4-0.1-0.6-0.2c-0.1,0-0.1,0-0.2-0.1c-0.1,0-0.3-0.1-0.4-0.1c-0.1,0-0.1-0.1-0.2-0.1
		c-0.1-0.1-0.2-0.1-0.3-0.2c-0.1,0-0.1-0.1-0.2-0.1s-0.1-0.1-0.2-0.1v-0.2C1.5,12.8,6.5,7,13.6,7z M1.5,22.6c0.1,0,0.1,0.1,0.2,0.1
		c0.2,0.1,0.3,0.2,0.5,0.2C2.3,23,2.4,23,2.5,23c0.2,0.1,0.3,0.1,0.5,0.2c0.1,0,0.1,0,0.2,0.1c0,0.1,0,0.2,0,0.3
		c0,0.5,0.1,1,0.2,1.4c0,0.1,0,0.3,0.1,0.4c0.1,0.5,0.2,1.1,0.4,1.6c0,0.1,0.1,0.2,0.1,0.3c0,0.3,0.2,0.7,0.3,1
		c0,0.1,0.1,0.2,0.1,0.3C4.6,29,4.8,29.5,5,29.9C5,30,5.1,30,5.1,30.1c0.2,0.3,0.4,0.7,0.6,1c0.1,0.1,0.1,0.2,0.2,0.3
		c0.3,0.3,0.5,0.7,0.8,1l0,0C7,32.7,7.2,33,7.5,33.2c0.1,0.1,0.2,0.1,0.2,0.2C8,33.6,8.2,33.8,8.5,34c0,0,0,0,0.1,0.1l-0.5,0.2
		c-1.8-0.1-4-0.3-6.7-0.5L1.5,22.6L1.5,22.6z M8.4,35.3h0.2l-0.8,1.9l-2,0.8c-0.4-0.4-0.6-0.8-0.8-1.1L8.4,35.3z M7.8,39.6l0.4-1
		l0.4-0.9l0,0l0,0l0,0l0,0l0.7-1.5v0.1c0,0.2,0.1,0.4,0.1,0.6c0,0.1,0.1,0.2,0.1,0.3c0.1,0.2,0.1,0.4,0.2,0.5c0,0.1,0.1,0.2,0.1,0.3
		c0.1,0.2,0.1,0.3,0.2,0.5c0,0.1,0.1,0.2,0.1,0.3c0.1,0.1,0.2,0.3,0.2,0.4c0,0.1,0.1,0.2,0.1,0.2c0.1,0.1,0.2,0.3,0.3,0.4l0.1,0.1
		c0.1,0.2,0.3,0.3,0.4,0.5c0,0,0,0,0.1,0.1s0.2,0.2,0.3,0.3l0,0C10.3,40.7,9,40.3,7.8,39.6z M15.4,40.9L15.4,40.9
		c0.1-0.1,0.2-0.2,0.3-0.3l0.1-0.1c0.1-0.1,0.3-0.3,0.4-0.5c0,0,0.1-0.1,0.1-0.2c0.1-0.1,0.2-0.3,0.3-0.4c0-0.1,0.1-0.2,0.1-0.2
		c0.1-0.1,0.2-0.3,0.2-0.4c0-0.1,0.1-0.2,0.1-0.3c0.1-0.1,0.1-0.3,0.2-0.4c0-0.1,0.1-0.2,0.1-0.3c0.1-0.2,0.1-0.3,0.2-0.5
		c0-0.1,0.1-0.2,0.1-0.3c0.1-0.2,0.1-0.4,0.1-0.6v-0.1l0.6,1.5l0,0l0.8,1.9C18.2,40.3,16.8,40.7,15.4,40.9z M21.4,37.9L21.4,37.9
		l-2-0.8l-0.8-1.9h0.2l3.4,1.6C22,37.2,21.7,37.5,21.4,37.9z M18.9,34.3L18.4,34l0,0c0.2-0.2,0.5-0.3,0.7-0.5
		c0.1-0.1,0.1-0.1,0.2-0.2c0.2-0.1,0.3-0.3,0.5-0.4c0.1-0.1,0.2-0.2,0.3-0.3c0.2-0.2,0.3-0.3,0.5-0.5c0.1-0.1,0.2-0.2,0.3-0.3
		c0.2-0.2,0.3-0.4,0.5-0.6c0.1-0.1,0.1-0.2,0.2-0.3c0.2-0.3,0.4-0.6,0.6-1l0,0c0.2-0.3,0.4-0.7,0.5-1.1c0.1-0.1,0.1-0.3,0.2-0.4
		c0.1-0.3,0.2-0.6,0.3-0.9c0.1-0.2,0.1-0.3,0.2-0.5c0.1-0.3,0.2-0.6,0.3-0.9c0-0.1,0.1-0.2,0.1-0.3c0.1,0,0.1,0,0.2,0
		c0.2,0,0.3,0.1,0.5,0.1c0.1,0,0.2,0,0.3,0c0.1,0.3,0.2,0.7,0.3,1c0,0.1,0.1,0.3,0.1,0.4c0.2,0.5,0.4,1,0.6,1.4v5
		C22.9,33.9,20.7,34.1,18.9,34.3z M30.5,35.2l-0.8,2l-2,0.8c-0.4-0.4-0.6-0.8-0.8-1.1L30.5,35.2z M29.7,39.6L30,39l0.5-1.2l0,0
		l0.6-1.5c0.4,2.3,1.5,3.8,2.5,4.7C32.2,40.7,30.9,40.3,29.7,39.6z M35.5,41c-0.7-0.4-3.1-1.9-3.4-6c1.2,0.5,2.4,0.8,3.4,0.8
		s2.3-0.3,3.4-0.8C38.6,39.1,36.2,40.6,35.5,41z M37.3,40.9c1-0.9,2.1-2.3,2.5-4.7l0.6,1.5l0,0l0.8,1.9
		C40.1,40.3,38.7,40.7,37.3,40.9z M43.3,37.9l-2-0.8l-0.8-2l3.6,1.7C43.9,37.2,43.6,37.5,43.3,37.9z M39.2,33.7L39.2,33.7L39.2,33.7
		L39.2,33.7c-1.3,0.7-2.6,1-3.8,1c-1.1,0-2.4-0.4-3.7-1l0,0c0,0,0,0-0.1,0c-1.6-0.8-3.7-2.4-5.1-5.4c-0.5-0.9-0.8-2-1.1-3.1
		c-0.1-0.4-0.2-0.9-0.2-1.4c0-0.2,0-0.3,0-0.5s0-0.5-0.1-0.8h1.1v0.1c0,0.1,0,0.2,0.1,0.3c0,0.1,0.1,0.3,0.1,0.4s0.1,0.2,0.1,0.3
		c0.1,0.1,0.1,0.2,0.2,0.3c0.1,0.1,0.1,0.2,0.2,0.3c0.1,0.1,0.2,0.2,0.3,0.3c0.1,0.1,0.1,0.1,0.2,0.2s0.2,0.2,0.3,0.3
		c0.1,0.1,0.2,0.1,0.3,0.2c0.1,0.1,0.3,0.1,0.4,0.2c0.1,0,0.2,0.1,0.3,0.1c0.2,0.1,0.3,0.1,0.5,0.1c0.1,0,0.2,0,0.2,0.1
		c0.3,0,0.5,0.1,0.8,0.1c2.2,0,4-1.7,4-3.8c0-0.6,0.6-1.1,1.2-1.1c0.7,0,1.2,0.5,1.2,1.1c0,2.1,1.8,3.8,4,3.8c0.3,0,0.5,0,0.8-0.1
		c0.1,0,0.2,0,0.2-0.1c0.2,0,0.3-0.1,0.5-0.1c0.1,0,0.2-0.1,0.3-0.1c0.1-0.1,0.3-0.1,0.4-0.2c0.1-0.1,0.2-0.1,0.3-0.2
		s0.2-0.2,0.3-0.3c0.1-0.1,0.1-0.1,0.2-0.2c0.1-0.1,0.2-0.2,0.3-0.3c0.1-0.1,0.1-0.2,0.2-0.3c0.1-0.1,0.1-0.2,0.2-0.3
		c0-0.1,0.1-0.2,0.1-0.3c0.1-0.1,0.1-0.3,0.1-0.4s0.1-0.2,0.1-0.3v-0.1h1.1C45.3,29.6,41.5,32.6,39.2,33.7z M45.6,16.8
		c-1.7,1.4-5,1.6-8.3,0.7c-0.7-0.2-1.4-0.5-2-0.8c-1.9-0.9-3.4-2.2-4.1-3.6c-0.4-0.9-0.6-1.7-0.3-2.4v-0.1v-0.1l0,0
		c0.4-0.9,1.2-1.6,2.4-2.1c2-0.8,4.5-0.7,6.7,0.3c5.4,2.4,6.4,6.3,6.5,7C46.3,16,46,16.5,45.6,16.8z"/>
	<path style="fill:#005A8F;" d="M37.9,30c-1.6,0.3-3.2,0.3-4.8,0c-0.3-0.1-0.5,0.1-0.6,0.4s0.1,0.5,0.4,0.6c0.9,0.2,1.7,0.3,2.6,0.3
		c0.9,0,1.7-0.1,2.6-0.3c0.3-0.1,0.4-0.3,0.4-0.6C38.4,30.1,38.1,29.9,37.9,30z"/>
	<path style="fill:#005A8F;" d="M34,27.2c0.5,0.1,1,0.1,1.4,0.1c0.5,0,1,0,1.4-0.1c0.3,0,0.5-0.3,0.4-0.6c0-0.3-0.3-0.5-0.6-0.4
		c-0.7,0.1-1.3,0.1-2,0.1c0.1-0.3-0.1-0.5-0.3-0.6c-0.3-0.1-0.5,0.1-0.6,0.3l-0.2,0.5c0,0.1,0,0.3,0.1,0.4
		C33.8,27.1,33.9,27.2,34,27.2z"/>
	<path style="fill:#005A8F;" d="M14.5,26.2c-0.5,0.1-1,0.1-1.5,0.1l0,0c0.1-0.3-0.1-0.5-0.4-0.6c-0.3-0.1-0.5,0.1-0.6,0.4v0.5
		c0,0.1,0,0.3,0.1,0.4s0.2,0.2,0.3,0.2c0.4,0.1,0.8,0.1,1.2,0.1s0.8,0,1.2-0.1c0.3-0.1,0.5-0.3,0.4-0.6
		C15.1,26.4,14.8,26.2,14.5,26.2z"/>
</g>
</svg>
