<svg xmlns="http://www.w3.org/2000/svg" viewBox="0 0 48 48"><path d="M34.1 14.3c0-1.3-1-2.3-2.3-2.3-.5 0-1 .2-1.4.5-.3-1-1.2-1.7-2.2-1.7-.5 0-.9.2-1.3.4v-.3c0-1.3-1-2.3-2.3-2.3s-2.3 1-2.3 2.3v.3c-.4-.3-.8-.4-1.3-.4-1.3 0-2.3 1-2.3 2.3v8.7c-.1-.6-.5-1.2-1.1-1.5s-1.2-.4-1.9-.2c-1.1.3-1.8 1.6-1.6 2.8l1.5 7.8c.4 1.9 2 3.3 3.9 3.4V39c0 .3.2.5.5.5h12.9c.3 0 .5-.2.5-.5v-4.8c0-.1 0-.2-.1-.3.6-.5 1-1.3 1-2.2V14.3h-.2zm-3 19.4h-9.6c-.5 0-.9-.2-1.3-.5-.4-.4-.7-.9-.7-1.5v-8.6h13.6v8.6c0 1.1-.9 2-2 2zm.6-20.8c.7 0 1.3.6 1.3 1.3V22h-2.6v-7.8c0-.7.6-1.3 1.3-1.3zm-3.6-1.1c.7 0 1.3.6 1.3 1.3v9h-2.6v-9c0-.8.6-1.3 1.3-1.3zm-5-1c0-.7.6-1.3 1.3-1.3.7 0 1.3.6 1.3 1.3v11.3h-2.6V10.8zm-3.6 2.3c0-.7.6-1.3 1.3-1.3.7 0 1.3.6 1.3 1.3v9h-2.6v-9zm-3 17.4L15 22.7c-.1-.7.3-1.4.9-1.6.1 0 .3-.1.4-.1.2 0 .5.1.7.2.3.2.6.5.6.9l1 4.9v4.7c0 .2 0 .4.1.7 0 .1 0 .1.1.2 0 .2.1.3.2.4-1.4-.3-2.3-1.3-2.5-2.5zm15.7 4.2v3.8H20.4v-3.8h11.8z"/><path d="M30.1 35.8c-.5 0-.8.4-.8.8s.4.8.8.8c.5 0 .8-.4.8-.8s-.3-.8-.8-.8z"/></svg>