<?xml version="1.0" encoding="utf-8"?>
<!-- Generator: Adobe Illustrator 23.0.5, SVG Export Plug-In . SVG Version: 6.00 Build 0)  -->
<svg version="1.1" id="Layer_1" xmlns="http://www.w3.org/2000/svg" xmlns:xlink="http://www.w3.org/1999/xlink" x="0px" y="0px"
	 viewBox="0 0 21 21" style="enable-background:new 0 0 21 21;" xml:space="preserve">
<g>
	<g>
		<path style="fill:#005A8F;" d="M10.5,21C4.7,21,0,16.3,0,10.5S4.7,0,10.5,0S21,4.7,21,10.5S16.3,21,10.5,21z M10.5,1
			C5.3,1,1,5.3,1,10.5S5.3,20,10.5,20s9.5-4.3,9.5-9.5S15.7,1,10.5,1z"/>
	</g>
	<path style="fill:#E50031;" d="M15.5,10H11V5.5C11,5.2,10.8,5,10.5,5S10,5.2,10,5.5V10H5.5C5.2,10,5,10.2,5,10.5S5.2,11,5.5,11H10
		v4.5c0,0.3,0.2,0.5,0.5,0.5s0.5-0.2,0.5-0.5V11h4.5c0.3,0,0.5-0.2,0.5-0.5S15.8,10,15.5,10z"/>
</g>
</svg>
