<?xml version="1.0" encoding="utf-8"?>
<!-- Generator: Adobe Illustrator 23.0.5, SVG Export Plug-In . SVG Version: 6.00 Build 0)  -->
<svg version="1.1" id="Layer_1" xmlns="http://www.w3.org/2000/svg" xmlns:xlink="http://www.w3.org/1999/xlink" x="0px" y="0px"
	 viewBox="0 0 48 48" style="enable-background:new 0 0 48 48;" xml:space="preserve">
<path style="fill:#005A8F;" d="M34.1,14.3c0-1.3-1-2.3-2.3-2.3c-0.5,0-1,0.2-1.4,0.5c-0.3-1-1.2-1.7-2.2-1.7c-0.5,0-0.9,0.2-1.3,0.4
	v-0.3c0-1.3-1-2.3-2.3-2.3s-2.3,1-2.3,2.3v0.3c-0.4-0.3-0.8-0.4-1.3-0.4c-1.3,0-2.3,1-2.3,2.3v8.7c-0.1-0.6-0.5-1.2-1.1-1.5
	s-1.2-0.4-1.9-0.2c-1.1,0.3-1.8,1.6-1.6,2.8l1.5,7.8c0.4,1.9,2,3.3,3.9,3.4v0.1V39c0,0.3,0.2,0.5,0.5,0.5h12.9
	c0.3,0,0.5-0.2,0.5-0.5v-4.8c0-0.1,0-0.2-0.1-0.3c0.6-0.5,1-1.3,1-2.2v-9.1l0,0v-8.3H34.1z M31.1,33.7h-9.6c-0.5,0-0.9-0.2-1.3-0.5
	c-0.4-0.4-0.7-0.9-0.7-1.5v-8.6h13.6v8.6C33.1,32.8,32.2,33.7,31.1,33.7z M31.7,12.9c0.7,0,1.3,0.6,1.3,1.3V22h-2.6v-7.8
	C30.4,13.5,31,12.9,31.7,12.9z M28.1,11.8c0.7,0,1.3,0.6,1.3,1.3v1.2v7.8h-2.6v-9C26.8,12.3,27.4,11.8,28.1,11.8z M23.1,10.8
	c0-0.7,0.6-1.3,1.3-1.3c0.7,0,1.3,0.6,1.3,1.3v2.3v9h-2.6v-9C23.1,13.1,23.1,10.8,23.1,10.8z M19.5,13.1c0-0.7,0.6-1.3,1.3-1.3
	c0.7,0,1.3,0.6,1.3,1.3v9h-2.6C19.5,22.1,19.5,13.1,19.5,13.1z M16.5,30.5L15,22.7c-0.1-0.7,0.3-1.4,0.9-1.6c0.1,0,0.3-0.1,0.4-0.1
	c0.2,0,0.5,0.1,0.7,0.2c0.3,0.2,0.6,0.5,0.6,0.9l1,4.9v4.7c0,0.2,0,0.4,0.1,0.7c0,0.1,0,0.1,0.1,0.2c0,0.2,0.1,0.3,0.2,0.4l0,0
	C17.6,32.7,16.7,31.7,16.5,30.5z M32.2,34.7v3.8H20.4v-3.8h1.1l0,0h9.6l0,0H32.2z"/>
<path style="fill:#E50031;" d="M30.1,35.8c-0.5,0-0.8,0.4-0.8,0.8s0.4,0.8,0.8,0.8c0.5,0,0.8-0.4,0.8-0.8S30.6,35.8,30.1,35.8
	L30.1,35.8z"/>
</svg>
