<svg xmlns="http://www.w3.org/2000/svg" viewBox="0 0 48 48"><path d="M16.6 31.8c1.9-1 3.2-3 3.2-5.3 0-3.3-2.7-6-6-6s-6 2.7-6 6c0 2.3 1.3 4.3 3.2 5.3-3.8.8-6.1 3.5-6.1 7.1v3.7c0 .3.2.5.5.5h16.8c.3 0 .5-.2.5-.5v-3.7c0-3.7-2.3-6.3-6.1-7.1zm-7.8-5.4c0-2.8 2.3-5 5-5s5 2.3 5 5c0 2.8-2.3 5-5 5s-5-2.2-5-5zm12.9 15.7H5.9v-3.2c0-4.7 4.1-6.4 7.9-6.4s7.9 1.7 7.9 6.4v3.2zM38 33.3c1.6-.9 2.7-2.6 2.7-4.5 0-2.9-2.4-5.3-5.3-5.3s-5.3 2.4-5.3 5.3c0 2 1.1 3.6 2.7 4.5-3.2.8-5.1 3-5.1 6.1v3.2c0 .3.2.5.5.5h14.4c.3 0 .5-.2.5-.5v-3.2c0-3.1-2-5.4-5.1-6.1zm-6.9-4.6c0-2.3 1.9-4.3 4.3-4.3s4.3 1.9 4.3 4.3-2 4.3-4.3 4.3-4.3-1.9-4.3-4.3zm11 13.4H28.7v-2.7c0-4 3.5-5.4 6.7-5.4s6.7 1.4 6.7 5.4v2.7zM22 23h-.2c-.2-.1-.3-.3-.3-.5v-4.4c-2.4-1.1-3.9-3.6-3.9-6.2 0-3.8 3.1-6.9 6.9-6.9h5.9c3.8 0 6.9 3.1 6.9 6.9s-3.1 6.9-6.9 6.9h-3.9l-4.1 4.1c-.2 0-.3.1-.4.1zm2.5-17.1c-3.3 0-5.9 2.7-5.9 5.9 0 2.4 1.4 4.5 3.6 5.5.2.1.3.3.3.5v3.5l3.4-3.4c.1-.1.2-.1.4-.1h4.2c3.3 0 5.9-2.7 5.9-5.9S33.7 6 30.5 6l-6-.1z" fill="#004b83"/><path d="M23.3 10.9c-.6 0-1 .4-1 1s.4 1 1 1 1-.4 1-1-.4-1-1-1zm4.1 0c-.6 0-1 .4-1 1s.4 1 1 1 1-.4 1-1-.4-1-1-1zm4.1 0c-.6 0-1 .4-1 1s.4 1 1 1 1-.4 1-1-.4-1-1-1z" fill="#e50031"/></svg>