<?xml version="1.0" encoding="utf-8"?>
<!-- Generator: Adobe Illustrator 23.0.5, SVG Export Plug-In . SVG Version: 6.00 Build 0)  -->
<svg version="1.1" id="Layer_1" xmlns="http://www.w3.org/2000/svg" xmlns:xlink="http://www.w3.org/1999/xlink" x="0px" y="0px"
	 viewBox="0 0 48 48" style="enable-background:new 0 0 48 48;" xml:space="preserve">
<style type="text/css">
	.st0{fill:#E50031;}
	.st1{fill:#004B83;}
</style>
<g>
	<g>
		<g>
			<path class="st0" d="M29.1,22.4c-0.1,0-0.1,0-0.2,0l-9.2-3.2c-0.2-0.1-0.3-0.3-0.3-0.5c0-0.1,0-0.1,0-0.2
				c0.1-0.3,0.4-0.4,0.6-0.3l9.2,3.2c0.2,0.1,0.3,0.3,0.3,0.5c0,0.1,0,0.1,0,0.2C29.5,22.3,29.3,22.4,29.1,22.4z"/>
		</g>
		<path class="st1" d="M41.8,13.9c-0.9-0.6-2.2-1.2-3.6-1.7s-2.8-0.8-3.9-0.9c-1.1-0.1-1.8,0.1-2.2,0.5c-0.1,0.1-0.2,0.1-0.2,0.3
			l-2.4,7l-8.3-2.9l2.4-7c0-0.1,0-0.2,0-0.2c0.1-1.4-3-2.8-5-3.5S13.3,4,12.5,5.2c-0.1,0.1-0.1,0.1-0.1,0.2l-7,20.2
			c0,0.1,0,0.1,0,0.2c-0.1,0.6,0.4,1.2,1.5,1.9l-2.1,5.9c-0.2,0.7,0.6,1.3,0.9,1.5c0.6,0.4,1.4,0.8,2.3,1.1c0.4,0.1,1.7,0.6,2.8,0.6
			c0.6,0,1.1-0.2,1.3-0.6l2.1-6c0.2,0,0.4,0,0.6,0c0.8,0,1.4-0.2,1.7-0.6c0.1-0.1,0.1-0.1,0.1-0.2l2.7-7.8l8.3,2.9l-2.7,7.8
			c0,0.1,0,0.1,0,0.2c-0.1,0.6,0.4,1.2,1.5,1.9l-2.1,5.9c-0.4,1.2,2.6,2.4,3.2,2.6c0.4,0.1,1.7,0.6,2.8,0.6c0.6,0,1.1-0.2,1.3-0.6
			l2.1-6c0.2,0,0.4,0,0.6,0c0.9,0,1.4-0.2,1.7-0.6c0.1-0.1,0.1-0.1,0.1-0.2l7-20.2c0-0.1,0-0.1,0-0.2C43.2,15.2,42.8,14.6,41.8,13.9
			z M14.2,5.5c0.9,0,2.3,0.2,4.1,0.9c2.7,0.9,4.1,2,4.3,2.5c0,0,0,0-0.1,0h-0.1c0,0-0.1,0-0.2,0s-0.1,0-0.2,0C22.1,9,22,9,22,9
			c-0.1,0-0.1,0-0.2,0s-0.2,0-0.3,0c-0.1,0-0.2,0-0.3,0c-0.1,0-0.2,0-0.4-0.1c-0.1,0-0.2,0-0.3,0c-0.1,0-0.3-0.1-0.5-0.1
			c-0.1,0-0.2,0-0.3-0.1c-0.2,0-0.4-0.1-0.6-0.2c-0.1,0-0.2-0.1-0.3-0.1c-0.3-0.1-0.6-0.2-1-0.3c-2.8-1-4.2-2.1-4.3-2.4
			C13.6,5.6,13.8,5.5,14.2,5.5z M11.3,35.7c-0.3,0.1-1.4,0-2.9-0.5S6,34,5.8,33.8l2-5.7c0,0,0,0,0.1,0c0.3,0.2,0.7,0.4,1.1,0.5
			c0.1,0,0.2,0.1,0.3,0.1c0.4,0.2,0.8,0.3,1.2,0.5c0.4,0.1,0.9,0.3,1.3,0.4c0.1,0,0.2,0,0.2,0.1c0.4,0.1,0.8,0.2,1.2,0.3
			c0,0,0,0,0.1,0L11.3,35.7z M15.8,28.9L15.7,29c-0.1,0.1-0.5,0.2-1.8,0.1c-0.9-0.1-2.1-0.4-3.2-0.8s-2.2-0.9-3-1.4l0,0l0,0
			c-1.1-0.6-1.3-1.1-1.3-1.1s0-0.1,0-0.2l6.6-19c0,0,0,0,0.1,0.1s0.2,0.2,0.3,0.3l0.1,0.1c0.1,0.1,0.2,0.2,0.3,0.2
			c0,0,0.1,0,0.1,0.1c0.2,0.1,0.3,0.2,0.5,0.3l0.1,0.1C14.7,7.9,14.9,7.9,15,8c0.1,0,0.1,0.1,0.2,0.1c0.1,0.1,0.3,0.1,0.4,0.2h0.1
			c0.2,0.1,0.4,0.2,0.5,0.2s0.1,0,0.2,0.1s0.3,0.1,0.4,0.2c0.1,0,0.1,0,0.2,0.1C17.2,9,17.3,9,17.5,9.1c1.4,0.5,2.8,0.8,3.9,0.9
			c0.2,0,0.4,0,0.6,0l0,0c0.2,0,0.3,0,0.5,0L15.8,28.9z M33.7,12.3c0.9,0,2.3,0.2,4.1,0.9c2.7,0.9,4.2,2,4.3,2.5c0,0,0,0-0.1,0h-0.1
			h-0.1c-0.1,0-0.1,0-0.2,0c-0.1,0-0.1,0-0.2,0c-0.1,0-0.2,0-0.3,0s-0.1,0-0.2,0c-0.1,0-0.2,0-0.4,0c-0.1,0-0.2,0-0.3,0
			s-0.3,0-0.4-0.1c-0.1,0-0.2,0-0.3-0.1c-0.2,0-0.3-0.1-0.5-0.1c-0.1,0-0.3-0.1-0.5-0.1c-0.1,0-0.3-0.1-0.4-0.1
			c-0.3-0.1-0.6-0.2-1-0.3c-2.8-1-4.2-2.1-4.3-2.4C33,12.3,33.3,12.3,33.7,12.3z M20.9,17.1l8.3,2.9L28,23.5l-8.3-2.9L20.9,17.1z
			 M30.7,42.4c-0.3,0.1-1.4,0-2.9-0.5s-2.4-1.1-2.6-1.4l2-5.7c0,0,0,0,0.1,0c0.3,0.2,0.7,0.4,1.1,0.5c0.1,0,0.2,0.1,0.2,0.1
			c0.4,0.2,0.8,0.3,1.3,0.5c0.4,0.1,0.9,0.3,1.3,0.4c0.1,0,0.2,0,0.3,0.1c0.4,0.1,0.8,0.2,1.2,0.3c0,0,0,0,0.1,0L30.7,42.4z
			 M35.3,35.7C35.3,35.7,35.3,35.8,35.3,35.7c-0.2,0.2-0.7,0.3-1.9,0.2c-0.9-0.1-2.1-0.4-3.2-0.8c-0.3-0.1-0.6-0.2-0.8-0.3
			c-0.5-0.2-1.1-0.4-1.5-0.7c-0.2-0.1-0.5-0.2-0.7-0.4l0,0l0,0c-1-0.6-1.3-1-1.3-1.1s0-0.1,0-0.2l2.8-8c0,0,0.1-0.1,0.1-0.2l1.5-4.5
			c0-0.1,0-0.1,0-0.2l2.2-6.2l0,0c0.1,0.1,0.2,0.1,0.2,0.2l0.1,0.1c0.1,0.1,0.3,0.2,0.4,0.3c0.9,0.6,2.2,1.2,3.6,1.7
			c1.4,0.5,2.8,0.8,3.9,0.9c0.2,0,0.4,0,0.6,0l0,0l0,0c0.2,0,0.3,0,0.5,0L35.3,35.7z"/>
	</g>
</g>
</svg>
