<?xml version="1.0" encoding="utf-8"?>
<!-- Generator: Adobe Illustrator 23.0.5, SVG Export Plug-In . SVG Version: 6.00 Build 0)  -->
<svg version="1.1" id="Layer_1" xmlns="http://www.w3.org/2000/svg" xmlns:xlink="http://www.w3.org/1999/xlink" x="0px" y="0px"
	 viewBox="0 0 48 48" style="enable-background:new 0 0 48 48;" xml:space="preserve">
<g>
	<g>
		<path style="fill:#004B83;" d="M16.6,31.8c1.9-1,3.2-3,3.2-5.3c0-3.3-2.7-6-6-6s-6,2.7-6,6c0,2.3,1.3,4.3,3.2,5.3
			c-3.8,0.8-6.1,3.5-6.1,7.1v3.7c0,0.3,0.2,0.5,0.5,0.5h16.8c0.3,0,0.5-0.2,0.5-0.5v-3.7C22.7,35.2,20.4,32.6,16.6,31.8z M8.8,26.4
			c0-2.8,2.3-5,5-5s5,2.3,5,5c0,2.8-2.3,5-5,5S8.8,29.2,8.8,26.4z M21.7,42.1H5.9v-3.2c0-4.7,4.1-6.4,7.9-6.4s7.9,1.7,7.9,6.4V42.1z
			"/>
		<path style="fill:#004B83;" d="M38,33.3c1.6-0.9,2.7-2.6,2.7-4.5c0-2.9-2.4-5.3-5.3-5.3s-5.3,2.4-5.3,5.3c0,2,1.1,3.6,2.7,4.5
			c-3.2,0.8-5.1,3-5.1,6.1v3.2c0,0.3,0.2,0.5,0.5,0.5h14.4c0.3,0,0.5-0.2,0.5-0.5v-3.2C43.1,36.3,41.1,34,38,33.3z M31.1,28.7
			c0-2.3,1.9-4.3,4.3-4.3s4.3,1.9,4.3,4.3s-2,4.3-4.3,4.3S31.1,31.1,31.1,28.7z M42.1,42.1H28.7v-2.7c0-4,3.5-5.4,6.7-5.4
			s6.7,1.4,6.7,5.4C42.1,39.4,42.1,42.1,42.1,42.1z"/>
	</g>
	<g>
		<path style="fill:#004B83;" d="M22,23c-0.1,0-0.1,0-0.2,0c-0.2-0.1-0.3-0.3-0.3-0.5v-4.4c-2.4-1.1-3.9-3.6-3.9-6.2
			c0-3.8,3.1-6.9,6.9-6.9h5.9c3.8,0,6.9,3.1,6.9,6.9s-3.1,6.9-6.9,6.9h-3.9l-4.1,4.1C22.2,22.9,22.1,23,22,23z M24.5,5.9
			c-3.3,0-5.9,2.7-5.9,5.9c0,2.4,1.4,4.5,3.6,5.5c0.2,0.1,0.3,0.3,0.3,0.5v3.5l3.4-3.4c0.1-0.1,0.2-0.1,0.4-0.1h4.2
			c3.3,0,5.9-2.7,5.9-5.9S33.7,6,30.5,6L24.5,5.9L24.5,5.9z"/>
	</g>
	<g>
		<g>
			<path style="fill:#E50031;" d="M23.3,10.9c-0.6,0-1,0.4-1,1s0.4,1,1,1s1-0.4,1-1C24.3,11.3,23.9,10.9,23.3,10.9L23.3,10.9z"/>
		</g>
		<g>
			<path style="fill:#E50031;" d="M27.4,10.9c-0.6,0-1,0.4-1,1s0.4,1,1,1s1-0.4,1-1C28.4,11.3,28,10.9,27.4,10.9L27.4,10.9z"/>
		</g>
		<g>
			<path style="fill:#E50031;" d="M31.5,10.9c-0.6,0-1,0.4-1,1s0.4,1,1,1c0.6,0,1-0.4,1-1C32.5,11.3,32.1,10.9,31.5,10.9L31.5,10.9z
				"/>
		</g>
	</g>
</g>
</svg>
