<?xml version="1.0" encoding="utf-8"?>
<!-- Generator: Adobe Illustrator 23.0.5, SVG Export Plug-In . SVG Version: 6.00 Build 0)  -->
<svg version="1.1" id="Layer_1" xmlns="http://www.w3.org/2000/svg" xmlns:xlink="http://www.w3.org/1999/xlink" x="0px" y="0px"
	 viewBox="0 0 18 18" style="enable-background:new 0 0 18 18;" xml:space="preserve">
<path d="M9.7,9l8.1-8.1c0.2-0.2,0.2-0.5,0-0.7s-0.5-0.2-0.7,0L9,8.3L0.9,0.1C0.7,0,0.3,0,0.1,0.1S0,0.7,0.1,0.9L8.3,9l-8.1,8.1
	c-0.2,0.2-0.2,0.5,0,0.7C0.2,18,0.4,18,0.5,18s0.3,0,0.4-0.1L9,9.7l8.1,8.1c0.1,0.1,0.2,0.1,0.4,0.1c0.1,0,0.3,0,0.4-0.1
	c0.2-0.2,0.2-0.5,0-0.7L9.7,9z"/>
</svg>
