<svg xmlns="http://www.w3.org/2000/svg" viewBox="0 0 48 48"><path d="M28.1 14.8h-8.2c-.3 0-.5-.2-.5-.5s.2-.5.5-.5h8.2c.3 0 .5.2.5.5s-.3.5-.5.5z" fill="#e50031"/><g fill="#005a8f"><path d="M40.4 26.6l-2.6-6.9c-.1-.2-.3-.3-.5-.3h-5.6V9c0-.3-.2-.5-.5-.5H16.8c-.3 0-.5.2-.5.5v10.4h-5.6c-.2 0-.4.1-.5.3l-2.6 6.9V39c0 .3.2.5.5.5H40c.3 0 .5-.2.5-.5V26.8c-.1-.1-.1-.1-.1-.2zm-23.1-6.7V9.5h13.3v13.3H17.3v-2.9zm-6.3.5h5.3v2.5h-1.8c-.3 0-.5.2-.5.5s.2.5.5.5h19c.3 0 .5-.2.5-.5s-.2-.5-.5-.5h-1.8v-2.5H37l2.3 5.9H8.8l2.2-5.9zm28.4 18.1H8.6V27.3h30.9l-.1 11.2z"/><path d="M19.8 12.3h6c.3 0 .5-.2.5-.5s-.2-.5-.5-.5h-6c-.3 0-.5.2-.5.5s.2.5.5.5zm6.9 4h-6.9c-.3 0-.5.2-.5.5s.2.5.5.5h6.9c.3 0 .5-.2.5-.5s-.2-.5-.5-.5zm-.9 2.5h-6c-.3 0-.5.2-.5.5s.2.5.5.5h6c.3 0 .5-.2.5-.5s-.2-.5-.5-.5z"/></g></svg>