<?xml version="1.0" encoding="utf-8"?>
<!-- Generator: Adobe Illustrator 23.0.5, SVG Export Plug-In . SVG Version: 6.00 Build 0)  -->
<svg version="1.1" id="Layer_1" xmlns="http://www.w3.org/2000/svg" xmlns:xlink="http://www.w3.org/1999/xlink" x="0px" y="0px"
	 viewBox="0 0 21 21" style="enable-background:new 0 0 21 21;" xml:space="preserve">
<g>
	<g>
		<path style="fill:#E50031;" d="M12.9,15.8c-0.1,0-0.2,0-0.2-0.1l-8.4-4.8C4,10.8,4,10.7,4,10.5s0.1-0.3,0.3-0.4l8.4-4.8
			c0.2-0.1,0.3-0.1,0.5,0s0.2,0.3,0.2,0.4V8h6.9c0.2,0,0.4,0.2,0.5,0.4C20.9,9,21,9.8,21,10.5s-0.1,1.5-0.2,2.2
			c0,0.2-0.3,0.4-0.5,0.4h-6.9v2.3c0,0.2-0.1,0.3-0.2,0.4C13,15.8,13,15.8,12.9,15.8z M5.5,10.5l6.9,4v-1.9c0-0.3,0.2-0.5,0.5-0.5h7
			c0.1-0.5,0.1-1,0.1-1.6c0-0.5,0-1-0.1-1.6h-7c-0.3,0-0.5-0.2-0.5-0.5V6.5L5.5,10.5z"/>
	</g>
	<g>
		<path style="fill:#005A8F;" d="M10.5,21C4.7,21,0,16.3,0,10.5c0-2.8,1.1-5.4,3.1-7.4S7.7,0,10.5,0s5.4,1.1,7.4,3.1
			c1.4,1.5,2.4,3.3,2.8,5.3C20.9,9,21,9.8,21,10.5s-0.1,1.5-0.2,2.2c-0.4,2-1.4,3.8-2.8,5.3C15.9,19.9,13.3,21,10.5,21z M10.5,1
			C8,1,5.6,2,3.8,3.8S1,8,1,10.5c0,5.2,4.3,9.5,9.5,9.5c2.5,0,4.9-1,6.7-2.8c1.3-1.3,2.2-3,2.6-4.8c0.1-0.6,0.2-1.3,0.2-2
			s-0.1-1.3-0.2-2c-0.4-1.8-1.3-3.4-2.6-4.8C15.4,2,13,1,10.5,1z"/>
	</g>
</g>
</svg>
