<svg xmlns="http://www.w3.org/2000/svg" viewBox="0 0 48 48"><path d="M13.6 31.3c-.6 0-1.3-.1-1.9-.2-.3-.1-.4-.3-.4-.6.1-.3.3-.5.6-.4 1.2.2 2.3.2 3.5 0 .3-.1.5.1.6.4s-.1.5-.4.6c-.7.1-1.4.2-2 .2z" fill="#e50031"/><g fill="#005a8f"><path d="M47.5 15.8v-.2c0-.2-.8-5.1-7.1-7.9-2.5-1.1-5.2-1.2-7.5-.3-1.3.5-2.2 1.3-2.8 2.3-.3-.3-.6-.8-.4-1.6.1-.3-.1-.5-.3-.6-.3-.1-.5.1-.6.3-.2.6-.1 1.1 0 1.6-.4 0-.9 0-1.3.2-.3.1-.4.4-.3.6.1.3.4.4.6.3.5-.2.9-.2 1.3-.1-.7.5-1.4 1.1-2 1.7-.2.2-.3.4-.5.6-.2.2-.3.4-.4.6-.1.2-.3.4-.4.6-.1.2-.2.4-.4.7-1.5-4-4.4-6.9-8.1-8.1-.3-.1-.5-.2-.8-.2-1-.2-2-.4-3-.4-7.6.1-13 6.3-13 15.3v13c0 .3.2.5.5.5 2 .2 3.8.3 5.4.4l-2.3 1.1c-.2.1-.4.4-.3.6 0 0 .4 1 1.4 2h.1s.1 0 .1.1h.4l1.4-.6-.5 1.2v.3s0 .1.1.1l.1.1H7c1.8 1.1 4 1.7 6.5 1.7s4.7-.6 6.5-1.7h.1l.1-.1v-.6l-.5-1.2 1.4.6h.4s.1 0 .1-.1c1-1.1 1.4-2 1.4-2 .1-.2 0-.5-.3-.6l-2.3-1.1c1.6-.1 3.3-.3 5.4-.5.3 0 .5-.2.5-.5v-3.7c1.2 1.8 2.6 2.9 3.8 3.7L26 36.2c-.2.1-.4.4-.3.6 0 0 .4 1 1.4 2l.1.1h.3l1.4-.6-.5 1.2v.4s0 .1.1.1l.1.1h.1c1.8 1.1 4 1.7 6.5 1.7s4.7-.6 6.5-1.7h.1s.1 0 .1-.1l.1-.1v-.4l-.5-1.2 1.4.6h.4s.1 0 .1-.1c1-1.1 1.4-2 1.4-2 .1-.2 0-.5-.3-.6l-4.4-2.1c2.3-1.4 6-4.8 6.3-12v-1c0-1.3-.1-2.6-.4-3.8.9-.4 1.3-.9 1.5-1.5zm-15.3.1c.1.1.3.2.5.4l.3.3c.2.1.3.2.5.3.1.1.2.2.4.2l.6.3c.1.1.2.1.4.2s.5.2.7.3c.1 0 .2.1.3.1.4.1.7.3 1.1.4.5.2 1 .3 1.5.4h.2l-.1.1c-.1 0-.1.1-.2.1-.1.1-.2.2-.4.3l-.2.2c-.1.1-.2.2-.3.4l-.1.1-.3.6c-.1-.1-.1-.1-.2-.1s-.1-.1-.1-.1c-.1 0-.1-.1-.2-.1s-.1-.1-.2-.1-.2-.1-.3-.1H35c-.1 0-.1 0-.2.1-.1 0-.2 0-.2.1-.1 0-.1.1-.2.1s-.1.1-.2.1l-.2.2-.1.1c-.1-.2-.2-.4-.3-.5 0-.1-.1-.1-.1-.1-.1-.1-.2-.3-.3-.4l-.1-.1c-.1-.1-.3-.3-.5-.4h-.1l-.6-.3c-.1 0-.1 0-.2-.1-.2-.1-.3-.1-.5-.1H31c-.2 0-.5-.1-.7-.1-.3 0-.5 0-.8.1-.1 0-.2 0-.2.1-.2 0-.3.1-.5.1-.1 0-.2.1-.3.1-.1.1-.3.1-.4.2s-.2.1-.3.2l-.3.3-.2.2-.3.3c-.1.1-.1.2-.2.3-.1.1-.1.2-.2.3 0 .1-.1.2-.1.3 0 .1-.1.3-.1.4s-.1.2-.1.3v.1h-1.1v-1.7c0-.2 0-.5.1-.7 0-.1 0-.2.1-.4 0-.2.1-.4.1-.6 0-.1.1-.3.1-.4s.1-.3.1-.4c.1 0 .1 0 .2-.1 1.3-.4 2.6-1.1 3.7-2 .3-.2.5-.5.8-.7l.2-.2.2-.2.1.1c.1.1.1.2.2.3.1.2.2.3.4.4l.3.3.4.4c-.2-.4-.1-.3 0-.2zm11.9 2.8c.4-.1.7-.2 1.1-.4 0 0 .1 0 .1-.1.1-.1.2-.1.3-.2.2 1 .3 2 .3 3.1v.4h-1.2v-.1c0-.2-.1-.3-.1-.5 0-.1-.1-.2-.1-.3-.1-.2-.2-.3-.2-.4s-.1-.2-.1-.2c-.1-.2-.3-.3-.4-.5l-.1-.1c-.2-.2-.4-.3-.6-.5.3-.1.7-.1 1-.2-.1 0-.1 0 0 0zm-.4 3.4c0 1.5-1.3 2.8-3 2.8s-3-1.2-3-2.8 1.4-2.8 3-2.8c1.7 0 3 1.3 3 2.8zm-10.5 0c0 1.5-1.4 2.8-3 2.8-1.7 0-3-1.2-3-2.8s1.3-2.8 3-2.8 3 1.3 3 2.8zm-7.1-6.3c.2-.5.4-.9.7-1.3.1-.2.2-.4.4-.6.1-.2.2-.4.4-.6.1-.2.3-.4.5-.5.5-.6 1.1-1.1 1.8-1.6v.8c0 .2.1.5.2.7.1.2.1.3.2.5-.1.1-.2.3-.3.4-.1.1-.1.2-.2.2l-.7.7c-.2.2-.5.4-.7.6-.1.1-.2.1-.2.2-.2.1-.4.2-.5.3s-.2.1-.3.2c-.2.1-.3.2-.5.2-.1 0-.2.1-.3.1-.1 0-.2.1-.3.1 0-.1.1-.2.1-.2l-.3-.2zm-1.2.2c-.1.3-.2.5-.2.8-.4 1.4-.6 2.8-.6 4.4v1c0 .5.1 1.1.1 1.6 0 .2 0 .3.1.5 0 .2.1.4.1.6h-.1c-.3 0-.6-.1-.9-.2l-.9-.3c-.1 0-.2-.1-.2-.1-.1 0-.2-.1-.2-.1.1-.1.1-.1.1-.2 0 0 0-.1.1-.1 0-.1.1-.2.1-.4 0-.1 0-.3-.1-.4 0 0 0-.1-.1-.1 0-.1-.1-.2-.1-.2l-.1-.1-.2-.2c-.1 0-.1-.1-.2-.1-.1-.1-.2-.1-.3-.1-.1 0-.1-.1-.2-.1s-.2-.1-.3-.1c-.1 0-.2 0-.2-.1-.1 0-.2-.1-.3-.1H20c-.1 0-.2 0-.4-.1h-.5c-.2-.2-.3-.4-.4-.6s-.3-.3-.4-.5c-.2-.3-.3-.5-.5-.8-.1-.2-.2-.4-.3-.5-.2-.3-.3-.6-.4-1-.1-.2-.1-.3-.2-.5-.2-.5-.4-1-.5-1.5l-.1-.3c.1-.3.3-.5.4-.8l.3-.6.3-.9c.1-.2.2-.4.2-.6.1-.3.2-.6.2-1 0-.2.1-.4.1-.5.1-.5.1-.9.2-1.4V8.9c0-.2 0-.5-.1-.7V8c3.4 1.1 5.9 4.1 7 8zm-2.5 10.5c-.1.2-.1.4-.2.6s-.1.4-.2.5c-.1.2-.1.4-.2.5-.1.2-.1.3-.2.5s-.2.3-.2.5c-.1.1-.1.3-.2.4-.1.2-.2.3-.3.4-.1.1-.2.3-.2.4-.1.1-.2.3-.3.4-.1.1-.2.2-.2.3-.1.1-.2.2-.3.4-.1.1-.2.2-.2.3l-.3.3c-.1.1-.2.2-.3.2l-.3.3c-.1.1-.2.1-.2.2-.1.1-.2.2-.3.2-.1.1-.2.1-.2.2-.1.1-.2.1-.3.2-.1.1-.2.1-.2.2-.1.1-.2.1-.3.2-.1 0-.2.1-.2.1-.1 0-.2.1-.3.1-.1 0-.1.1-.2.1s-.2.1-.2.1c-.1 0-.1.1-.2.1s-.1.1-.2.1-.1 0-.2.1c-.1 0-.2.1-.3.1h-.1c-1.2.4-2.2.3-3.3 0-.2-.1-.4-.1-.6-.2-.1 0-.1-.1-.2-.1-.1-.1-.3-.1-.4-.2-.1 0-.2-.1-.3-.1-.1-.1-.3-.1-.4-.2-.1-.1-.2-.1-.3-.2-.1-.1-.2-.2-.4-.2-.3-.1-.4-.2-.5-.3l-.3-.3c-.1-.1-.2-.2-.3-.2l-.3-.3c-.1 0-.2-.1-.3-.2l-.3-.3-.3-.3c-.1-.2-.2-.3-.3-.4s-.2-.2-.2-.3c-.1-.1-.2-.3-.3-.4-.1-.1-.2-.2-.2-.4-.1-.1-.2-.3-.3-.4-.1-.1-.1-.3-.2-.4-.1-.2-.2-.3-.2-.5-.1-.1-.1-.3-.2-.4-.1-.2-.1-.3-.2-.5s-.1-.4-.2-.5c-.1-.2-.1-.4-.2-.6 0-.2-.1-.3-.1-.5-.1-.2-.1-.4-.1-.6s-.1-.4-.1-.5c0-.2-.1-.4-.1-.6s-.1-.4-.1-.6v-.4h.7c.1 1.1 1.9 1.7 3.6 1.7 1.6 0 3.2-.5 3.6-1.4 0-.1.1-.2.1-.2 0-.1.5-.4 1.4-.4s1.4.3 1.4.4.1.2.1.3c.4.9 2 1.4 3.5 1.4h1.1c.2 0 .3 0 .5-.1.1 0 .2 0 .3-.1.1 0 .2-.1.4-.1.1 0 .2-.1.3-.1.1 0 .1 0 .2-.1.3.2.5.3.8.4.1 0 .1 0 .2.1.2.1.4.2.6.2 0 .1-.1.3-.1.4-.4.3-.4.5-.5.7zm-5.5 9.4c0 .2-.1.4-.1.5s0 .2-.1.3c0 .1-.1.3-.1.4 0 .1-.1.2-.1.3s-.1.2-.1.4c0 .1-.1.2-.1.2-.1.1-.1.2-.2.3 0 .1-.1.1-.1.2-.1.1-.1.2-.2.3l-.1.1c-.1.1-.2.3-.3.4-.1.1-.2.3-.3.4l-.1.1-.2.2-.1.1-.2.2-.1.1c-.1 0-.1.1-.2.1l-.1.1c-.1 0-.1.1-.2.1 0 0-.1 0-.1.1-.1 0-.1.1-.1.1h-.1c-.1 0-.1.1-.2.1h-.2c-.1 0-.1-.1-.2-.1h-.1c-.1 0-.1-.1-.2-.1l-.1-.1c-.1 0-.1-.1-.2-.1l-.1-.1c-.1 0-.1-.1-.2-.2l-.1-.1-.2-.2-.1-.1c-.1-.1-.2-.2-.2-.3 0 0 0-.1-.1-.1-.1-.1-.2-.3-.3-.4 0 0 0-.1-.1-.1-.1-.1-.1-.2-.2-.4 0-.1-.1-.1-.1-.2-.1-.1-.1-.2-.2-.3 0-.1-.1-.1-.1-.2s-.1-.2-.1-.4c0-.1-.1-.2-.1-.2 0-.1-.1-.3-.1-.4 0-.1 0-.2-.1-.3 0-.2-.1-.4-.1-.6v-.2c0-.2-.1-.5-.1-.8.1.1.3.1.4.2.1 0 .2.1.3.1.2.1.5.2.7.2.3.1.7.2 1 .2h1c.3 0 .5 0 .8-.1h.1c.3 0 .6-.1.9-.2h.1c.1 0 .2-.1.3-.1h.1c.1 0 .2-.1.2-.1.1 0 .1 0 .2-.1.1 0 .2-.1.3-.1s.1-.1.2-.1.1 0 .2-.1c0 .3 0 .5-.1.8.4.1.4.2.4.3zM6.5 23.3c.2 0 .4-.1.6-.1.1 0 .2 0 .3-.1l.9-.3c.3-.1.5-.2.8-.3 1.3.1 2.1.6 2.1.8 0 .2-.9.8-2.6.8-1.6 0-2.5-.5-2.6-.8.1 0 .2 0 .3-.1 0 .1.1.1.2.1zm9-6.4c.1.3.2.5.3.7 0 .1.1.2.1.4.2.5.4 1 .6 1.4 0 .1.1.2.2.3.2.4.4.7.6 1.1.1.1.2.3.3.4.1.1.2.2.2.4h-.5c-.2 0-.4.1-.6.1-.2.1-.3.1-.5.2-.1 0-.1 0-.1.1-.1.1-.2.1-.3.2l-.1.1c-.1.1-.2.1-.2.2-.4-.3-1.1-.4-1.8-.4s-1.4.2-1.8.4c-.3-.3-.7-.6-1.3-.7 1.6-1 3.1-2.2 4.3-3.8.1-.4.4-.7.6-1.1zm5.4 6.8c-.5.3-1.4.5-2.3.5-1.7 0-2.6-.6-2.6-.8 0-.3.9-.9 2.6-.9h.1c1.7 0 2.5.6 2.5.9.1 0 0 .1-.3.3zM13.6 7c1 0 1.9.1 2.8.3.1 0 .3.1.4.1.1.2.1.4.1.7 0 .1 0 .3.1.4v1.3c0 .3-.1.6-.1.9 0 .2 0 .3-.1.5v.2c-.3 1.3-.8 2.7-1.5 4-.3.6-.8 1.3-1.3 1.9-1.5 1.9-3.3 3.3-5.2 4.2-1.1.5-2.3.8-3.3.9-.5 0-1 0-1.6-.1h-.2c-.2 0-.4-.1-.6-.2-.1 0-.1 0-.2-.1-.1 0-.3-.1-.4-.1-.1 0-.1-.1-.2-.1-.1-.1-.2-.1-.3-.2-.1 0-.1-.1-.2-.1s-.1-.1-.2-.1v-.2C1.5 12.8 6.5 7 13.6 7zM1.5 22.6c.1 0 .1.1.2.1.2.1.3.2.5.2.1.1.2.1.3.1.2.1.3.1.5.2.1 0 .1 0 .2.1v.3c0 .5.1 1 .2 1.4 0 .1 0 .3.1.4.1.5.2 1.1.4 1.6 0 .1.1.2.1.3 0 .3.2.7.3 1 0 .1.1.2.1.3.2.4.4.9.6 1.3 0 .1.1.1.1.2.2.3.4.7.6 1 .1.1.1.2.2.3.3.3.5.7.8 1 .3.3.5.6.8.8.1.1.2.1.2.2.3.2.5.4.8.6l.1.1-.5.2c-1.8-.1-4-.3-6.7-.5l.1-11.2zm6.9 12.7h.2l-.8 1.9-2 .8c-.4-.4-.6-.8-.8-1.1l3.4-1.6zm-.6 4.3l.4-1 .4-.9.7-1.5v.1c0 .2.1.4.1.6 0 .1.1.2.1.3.1.2.1.4.2.5 0 .1.1.2.1.3.1.2.1.3.2.5 0 .1.1.2.1.3.1.1.2.3.2.4 0 .1.1.2.1.2.1.1.2.3.3.4l.1.1c.1.2.3.3.4.5l.1.1.3.3a8.9 8.9 0 01-3.8-1.2zm7.6 1.3l.3-.3.1-.1c.1-.1.3-.3.4-.5 0 0 .1-.1.1-.2.1-.1.2-.3.3-.4 0-.1.1-.2.1-.2.1-.1.2-.3.2-.4 0-.1.1-.2.1-.3.1-.1.1-.3.2-.4 0-.1.1-.2.1-.3.1-.2.1-.3.2-.5 0-.1.1-.2.1-.3.1-.2.1-.4.1-.6v-.1l.6 1.5.8 1.9c-.9.6-2.3 1-3.7 1.2zm6-3l-2-.8-.8-1.9h.2l3.4 1.6c-.2.4-.5.7-.8 1.1zm-2.5-3.6l-.5-.3c.2-.2.5-.3.7-.5l.2-.2c.2-.1.3-.3.5-.4l.3-.3.5-.5.3-.3c.2-.2.3-.4.5-.6.1-.1.1-.2.2-.3.2-.3.4-.6.6-1 .2-.3.4-.7.5-1.1.1-.1.1-.3.2-.4l.3-.9c.1-.2.1-.3.2-.5l.3-.9c0-.1.1-.2.1-.3h.2c.2 0 .3.1.5.1h.3c.1.3.2.7.3 1 0 .1.1.3.1.4.2.5.4 1 .6 1.4v5c-2.9.2-5.1.4-6.9.6zm11.6.9l-.8 2-2 .8c-.4-.4-.6-.8-.8-1.1l3.6-1.7zm-.8 4.4l.3-.6.5-1.2.6-1.5c.4 2.3 1.5 3.8 2.5 4.7-1.4-.3-2.7-.7-3.9-1.4zm5.8 1.4c-.7-.4-3.1-1.9-3.4-6 1.2.5 2.4.8 3.4.8s2.3-.3 3.4-.8c-.3 4.1-2.7 5.6-3.4 6zm1.8-.1c1-.9 2.1-2.3 2.5-4.7l.6 1.5.8 1.9c-1.1.7-2.5 1.1-3.9 1.3zm6-3l-2-.8-.8-2 3.6 1.7c-.2.4-.5.7-.8 1.1zm-4.1-4.2c-1.3.7-2.6 1-3.8 1-1.1 0-2.4-.4-3.7-1h-.1c-1.6-.8-3.7-2.4-5.1-5.4-.5-.9-.8-2-1.1-3.1-.1-.4-.2-.9-.2-1.4v-.5c0-.2 0-.5-.1-.8h1.1v.1c0 .1 0 .2.1.3 0 .1.1.3.1.4s.1.2.1.3c.1.1.1.2.2.3.1.1.1.2.2.3l.3.3.2.2.3.3c.1.1.2.1.3.2.1.1.3.1.4.2.1 0 .2.1.3.1.2.1.3.1.5.1.1 0 .2 0 .2.1.3 0 .5.1.8.1 2.2 0 4-1.7 4-3.8 0-.6.6-1.1 1.2-1.1.7 0 1.2.5 1.2 1.1 0 2.1 1.8 3.8 4 3.8.3 0 .5 0 .8-.1.1 0 .2 0 .2-.1.2 0 .3-.1.5-.1.1 0 .2-.1.3-.1.1-.1.3-.1.4-.2.1-.1.2-.1.3-.2l.3-.3.2-.2.3-.3c.1-.1.1-.2.2-.3.1-.1.1-.2.2-.3 0-.1.1-.2.1-.3.1-.1.1-.3.1-.4s.1-.2.1-.3v-.1h1.1c-.4 7.1-4.2 10.1-6.5 11.2zm6.4-16.9c-1.7 1.4-5 1.6-8.3.7-.7-.2-1.4-.5-2-.8-1.9-.9-3.4-2.2-4.1-3.6-.4-.9-.6-1.7-.3-2.4v-.2c.4-.9 1.2-1.6 2.4-2.1 2-.8 4.5-.7 6.7.3 5.4 2.4 6.4 6.3 6.5 7-.2.3-.5.8-.9 1.1z"/><path d="M37.9 30c-1.6.3-3.2.3-4.8 0-.3-.1-.5.1-.6.4s.1.5.4.6c.9.2 1.7.3 2.6.3.9 0 1.7-.1 2.6-.3.3-.1.4-.3.4-.6-.1-.3-.4-.5-.6-.4zM34 27.2c.5.1 1 .1 1.4.1.5 0 1 0 1.4-.1.3 0 .5-.3.4-.6 0-.3-.3-.5-.6-.4-.7.1-1.3.1-2 .1.1-.3-.1-.5-.3-.6-.3-.1-.5.1-.6.3l-.2.5c0 .1 0 .3.1.4.2.2.3.3.4.3zm-19.5-1c-.5.1-1 .1-1.5.1.1-.3-.1-.5-.4-.6-.3-.1-.5.1-.6.4v.5c0 .1 0 .3.1.4s.2.2.3.2c.4.1.8.1 1.2.1s.8 0 1.2-.1c.3-.1.5-.3.4-.6-.1-.2-.4-.4-.7-.4z"/></g></svg>