<svg xmlns="http://www.w3.org/2000/svg" viewBox="0 0 21 21"><path d="M20.5 3.5h-4.1v-3c0-.3-.2-.5-.5-.5s-.5.2-.5.5v3H11v-3c0-.3-.2-.5-.5-.5s-.5.2-.5.5v3H5.6v-3c0-.3-.3-.5-.5-.5s-.5.2-.5.5v3H.5c-.3 0-.5.2-.5.5v16.5c0 .3.2.5.5.5h20c.3 0 .5-.2.5-.5V4c0-.3-.2-.5-.5-.5zM20 20H1V4.5h3.6v2c0 .3.2.5.5.5s.5-.2.5-.5v-2H10v2c0 .3.2.5.5.5s.5-.2.5-.5v-2h4.4v2c0 .3.2.5.5.5s.5-.2.5-.5v-2H20V20z"/><circle cx="5.1" cy="10.8" r="1"/><circle cx="10.5" cy="10.8" r="1"/><circle cx="15.9" cy="10.8" r="1"/><circle cx="5.1" cy="15.7" r="1"/><circle cx="10.5" cy="15.7" r="1"/><circle cx="15.9" cy="15.7" r="1"/></svg>