<svg xmlns="http://www.w3.org/2000/svg" viewBox="0 0 21 21"><path d="M10.5 21C4.7 21 0 16.3 0 10.5S4.7 0 10.5 0 21 4.7 21 10.5 16.3 21 10.5 21zm0-20C5.3 1 1 5.3 1 10.5S5.3 20 10.5 20s9.5-4.3 9.5-9.5S15.7 1 10.5 1z" fill="#005a8f"/><path d="M6.5 13.2c-.2 0-.3-.1-.4-.3-1.1-2-.7-4.4.8-5.9 1.6-1.6 4-1.9 5.9-.8.2.1.3.4.2.7 0 .1-.3.2-.6.1-1.6-.9-3.5-.6-4.8.7-1.2 1.2-1.5 3.1-.6 4.7.1.2 0 .5-.2.7-.1 0-.2.1-.3.1zm4 2.3c-.8 0-1.7-.2-2.4-.6-.2-.1-.3-.4-.2-.7.1-.2.4-.3.7-.2 1.6.9 3.5.6 4.8-.7 1.3-1.3 1.5-3.2.7-4.8-.1-.2 0-.5.2-.7.2-.1.5 0 .7.2 1.1 2 .7 4.4-.8 5.9-1.1 1.1-2.4 1.6-3.7 1.6z" fill="#e50031"/></svg>