<?xml version="1.0" encoding="utf-8"?>
<!-- Generator: Adobe Illustrator 23.0.5, SVG Export Plug-In . SVG Version: 6.00 Build 0)  -->
<svg version="1.1" id="Layer_1" xmlns="http://www.w3.org/2000/svg" xmlns:xlink="http://www.w3.org/1999/xlink" x="0px" y="0px"
	 viewBox="0 0 21 21" style="enable-background:new 0 0 21 21;" xml:space="preserve">
<path d="M20.3,17.1l-4.9-4.9c0.7-1.2,1.1-2.6,1.1-4s-0.3-2.8-1-4c-0.8-1.4-1.9-2.5-3.2-3.2c-1.2-0.7-2.6-1-4-1C3.7,0,0,3.7,0,8.2
	c0,1.4,0.4,2.8,1,4c0.7,1.3,1.9,2.4,3.2,3.2c1.2,0.7,2.6,1,4,1s2.8-0.4,4-1.1l4.9,4.9c0.4,0.4,1,0.7,1.6,0.7s1.2-0.2,1.6-0.7l0,0
	C21.2,19.4,21.2,18,20.3,17.1z M4.7,14.5c-1.2-0.7-2.2-1.6-2.8-2.8C1.3,10.7,1,9.5,1,8.2C1,4.3,4.3,1,8.2,1c1.2,0,2.4,0.3,3.5,0.9
	c1.2,0.6,2.2,1.6,2.8,2.8c0.6,1.1,0.9,2.3,0.9,3.5c0,1.4-0.4,2.7-1.1,3.8c-0.6,0.9-1.4,1.7-2.3,2.3C9.9,15.7,7,15.8,4.7,14.5z
	 M19.6,19.6c-0.5,0.5-1.3,0.5-1.8,0L13,14.8l0.1-0.1c0.3-0.2,0.6-0.5,0.9-0.7l0,0c0.3-0.3,0.5-0.6,0.7-0.9l0.1-0.1l4.8,4.8
	C20.1,18.3,20.1,19.1,19.6,19.6z"/>
</svg>
