<?xml version="1.0" encoding="utf-8"?>
<!-- Generator: Adobe Illustrator 23.0.5, SVG Export Plug-In . SVG Version: 6.00 Build 0)  -->
<svg version="1.1" id="Layer_1" xmlns="http://www.w3.org/2000/svg" xmlns:xlink="http://www.w3.org/1999/xlink" x="0px" y="0px"
	 viewBox="0 0 21 21" style="enable-background:new 0 0 21 21;" xml:space="preserve">
<g>
	<path d="M20.5,3.5h-4.1v-3c0-0.3-0.2-0.5-0.5-0.5c-0.3,0-0.5,0.2-0.5,0.5v3H11v-3C11,0.2,10.8,0,10.5,0S10,0.2,10,0.5v3H5.6v-3
		C5.6,0.2,5.3,0,5.1,0S4.6,0.2,4.6,0.5v3H0.5C0.2,3.5,0,3.7,0,4v16.5C0,20.8,0.2,21,0.5,21h20c0.3,0,0.5-0.2,0.5-0.5V4
		C21,3.7,20.8,3.5,20.5,3.5z M20,20H1V4.5h3.6v2C4.6,6.8,4.8,7,5.1,7s0.5-0.2,0.5-0.5v-2H10v2C10,6.8,10.2,7,10.5,7S11,6.8,11,6.5
		v-2h4.4v2c0,0.3,0.2,0.5,0.5,0.5c0.3,0,0.5-0.2,0.5-0.5v-2H20V20z"/>
	<g>
		<circle cx="5.1" cy="10.8" r="1"/>
	</g>
	<g>
		<circle cx="10.5" cy="10.8" r="1"/>
	</g>
	<g>
		<circle cx="15.9" cy="10.8" r="1"/>
	</g>
	<g>
		<circle cx="5.1" cy="15.7" r="1"/>
	</g>
	<g>
		<circle cx="10.5" cy="15.7" r="1"/>
	</g>
	<g>
		<circle cx="15.9" cy="15.7" r="1"/>
	</g>
</g>
</svg>
