<svg xmlns="http://www.w3.org/2000/svg" viewBox="0 0 21 21"><path d="M12.9 12.6c1.3-.8 2.1-2.2 2.1-3.8 0-2.5-2-4.5-4.5-4.5S6 6.3 6 8.8c0 1.6.9 3 2.1 3.8-2.6.7-4.2 2.6-4.2 5.2v.2l1.1.9-.1-.8v-.4c0-3.3 2.9-4.5 5.6-4.5s5.6 1.2 5.6 4.5v.4l-.1.6 1.1-.8v-.1c0-2.6-1.6-4.5-4.2-5.2zM7 8.8c0-1.9 1.6-3.5 3.5-3.5S14 6.9 14 8.8s-1.6 3.5-3.5 3.5S7 10.7 7 8.8z" fill="#e50031"/><path d="M10.5 21c-2.3 0-4.5-.7-6.4-2.2-2.6-2-4.1-5-4.1-8.3 0-2.8 1.1-5.4 3.1-7.4C5 1.1 7.7 0 10.5 0s5.4 1.1 7.4 3.1S21 7.7 21 10.5s-1.1 5.4-3.1 7.4c-.3.3-.7.6-1.1.9-1.8 1.5-4 2.2-6.3 2.2zm0-20C8 1 5.6 2 3.8 3.8S1 8 1 10.5c0 3 1.4 5.7 3.7 7.6 1.7 1.3 3.7 1.9 5.8 1.9s4.1-.7 5.8-1.9c.3-.3.6-.5 1-.8C19 15.4 20 13 20 10.5s-1-4.9-2.8-6.7C15.4 2 13 1 10.5 1z" fill="#005a8f"/></svg>