<svg xmlns="http://www.w3.org/2000/svg" viewBox="0 0 48 48"><path d="M29.1 22.4h-.2l-9.2-3.2c-.2-.1-.3-.3-.3-.5v-.2c.1-.3.4-.4.6-.3l9.2 3.2c.2.1.3.3.3.5v.2c0 .2-.2.3-.4.3z" fill="#e50031"/><path d="M41.8 13.9c-.9-.6-2.2-1.2-3.6-1.7s-2.8-.8-3.9-.9c-1.1-.1-1.8.1-2.2.5-.1.1-.2.1-.2.3l-2.4 7-8.3-2.9 2.4-7V9c.1-1.4-3-2.8-5-3.5s-5.3-1.5-6.1-.3c-.1.1-.1.1-.1.2l-7 20.2v.2c-.1.6.4 1.2 1.5 1.9l-2.1 5.9c-.2.7.6 1.3.9 1.5.6.4 1.4.8 2.3 1.1.4.1 1.7.6 2.8.6.6 0 1.1-.2 1.3-.6l2.1-6h.6c.8 0 1.4-.2 1.7-.6.1-.1.1-.1.1-.2l2.7-7.8 8.3 2.9-2.7 7.8v.2c-.1.6.4 1.2 1.5 1.9l-2.1 5.9c-.4 1.2 2.6 2.4 3.2 2.6.4.1 1.7.6 2.8.6.6 0 1.1-.2 1.3-.6l2.1-6h.6c.9 0 1.4-.2 1.7-.6.1-.1.1-.1.1-.2l7-20.2v-.2c.1-.5-.3-1.1-1.3-1.8zM14.2 5.5c.9 0 2.3.2 4.1.9 2.7.9 4.1 2 4.3 2.5H22c.1.1 0 .1 0 .1h-.8c-.1 0-.2 0-.4-.1h-.3c-.1 0-.3-.1-.5-.1-.1 0-.2 0-.3-.1-.2 0-.4-.1-.6-.2-.1 0-.2-.1-.3-.1-.3-.1-.6-.2-1-.3-2.8-1-4.2-2.1-4.3-2.4.1-.1.3-.2.7-.2zm-2.9 30.2c-.3.1-1.4 0-2.9-.5S6 34 5.8 33.8l2-5.7h.1c.3.2.7.4 1.1.5.1 0 .2.1.3.1.4.2.8.3 1.2.5.4.1.9.3 1.3.4.1 0 .2 0 .2.1l1.2.3h.1l-2 5.7zm4.5-6.8l-.1.1c-.1.1-.5.2-1.8.1-.9-.1-2.1-.4-3.2-.8s-2.2-.9-3-1.4c-1.1-.6-1.3-1.1-1.3-1.1v-.2l6.6-19 .1.1.3.3.1.1c.1.1.2.2.3.2 0 0 .1 0 .1.1.2.1.3.2.5.3l.1.1c.2.1.4.1.5.2.1 0 .1.1.2.1.1.1.3.1.4.2h.1c.2.1.4.2.5.2s.1 0 .2.1.3.1.4.2c.1 0 .1 0 .2.1.2.1.3.1.5.2 1.4.5 2.8.8 3.9.9h1.1l-6.7 18.9zm17.9-16.6c.9 0 2.3.2 4.1.9 2.7.9 4.2 2 4.3 2.5h-1.9c-.1 0-.3 0-.4-.1-.1 0-.2 0-.3-.1-.2 0-.3-.1-.5-.1-.1 0-.3-.1-.5-.1-.1 0-.3-.1-.4-.1-.3-.1-.6-.2-1-.3-2.8-1-4.2-2.1-4.3-2.4.2-.2.5-.2.9-.2zm-12.8 4.8l8.3 2.9-1.2 3.5-8.3-2.9 1.2-3.5zm9.8 25.3c-.3.1-1.4 0-2.9-.5s-2.4-1.1-2.6-1.4l2-5.7h.1c.3.2.7.4 1.1.5.1 0 .2.1.2.1.4.2.8.3 1.3.5.4.1.9.3 1.3.4.1 0 .2 0 .3.1l1.2.3h.1l-2.1 5.7zm4.6-6.7s0 .1 0 0c-.2.2-.7.3-1.9.2-.9-.1-2.1-.4-3.2-.8-.3-.1-.6-.2-.8-.3-.5-.2-1.1-.4-1.5-.7-.2-.1-.5-.2-.7-.4-1-.6-1.3-1-1.3-1.1v-.2l2.8-8s.1-.1.1-.2l1.5-4.5v-.2l2.2-6.2c.1.1.2.1.2.2l.1.1c.1.1.3.2.4.3.9.6 2.2 1.2 3.6 1.7s2.8.8 3.9.9h1.1l-6.5 19.2z" fill="#004b83"/></svg>