<?xml version="1.0" encoding="utf-8"?>
<!-- Generator: Adobe Illustrator 23.0.5, SVG Export Plug-In . SVG Version: 6.00 Build 0)  -->
<svg version="1.1" id="Layer_1" xmlns="http://www.w3.org/2000/svg" xmlns:xlink="http://www.w3.org/1999/xlink" x="0px" y="0px"
	 viewBox="0 0 204.3 60" style="enable-background:new 0 0 204.3 60;" xml:space="preserve">
<g>
	<g>
		<linearGradient id="SVGID_1_" gradientUnits="userSpaceOnUse" x1="0" y1="26.2332" x2="47.4809" y2="26.2332">
			<stop  offset="0" style="stop-color:#008CB4"/>
			<stop  offset="0.372" style="stop-color:#0089B2"/>
			<stop  offset="0.6058" style="stop-color:#0081AB"/>
			<stop  offset="0.8014" style="stop-color:#0072A0"/>
			<stop  offset="0.9751" style="stop-color:#005E91"/>
			<stop  offset="1" style="stop-color:#005A8E"/>
		</linearGradient>
		<path style="fill:url(#SVGID_1_);" d="M47.5,3v25.4c0,0.3,0,0.7,0,1l-41.1,20C2.7,44.8,0,38,0,28.4v-2.3L47.5,3z"/>
		<linearGradient id="SVGID_2_" gradientUnits="userSpaceOnUse" x1="6.3466" y1="44.7191" x2="47.4651" y2="44.7191">
			<stop  offset="0" style="stop-color:#A30442"/>
			<stop  offset="6.160247e-02" style="stop-color:#AC0340"/>
			<stop  offset="0.2715" style="stop-color:#C40239"/>
			<stop  offset="0.4914" style="stop-color:#D60135"/>
			<stop  offset="0.7259" style="stop-color:#E10032"/>
			<stop  offset="1" style="stop-color:#E40031"/>
		</linearGradient>
		<path style="fill:url(#SVGID_2_);" d="M47.5,29.4C46.9,56.9,23.7,60,23.7,60S13.4,58.6,6.3,49.5L47.5,29.4z"/>
		<linearGradient id="SVGID_3_" gradientUnits="userSpaceOnUse" x1="46.1373" y1="0.2345" x2="-7.8063" y2="16.9848">
			<stop  offset="0" style="stop-color:#FFFFFF"/>
			<stop  offset="0.1697" style="stop-color:#F8F8F8"/>
			<stop  offset="0.41" style="stop-color:#E6E6E6"/>
			<stop  offset="0.6925" style="stop-color:#C7C7C7"/>
			<stop  offset="1" style="stop-color:#9E9E9E"/>
		</linearGradient>
		<path style="fill:url(#SVGID_3_);" d="M47.5,3L0,26.1V3c0,0,12.4-3,23.7-3C35.1,0,47.5,3,47.5,3z"/>
		<linearGradient id="SVGID_4_" gradientUnits="userSpaceOnUse" x1="17.8053" y1="20.1776" x2="29.6756" y2="20.1776">
			<stop  offset="0" style="stop-color:#A30442"/>
			<stop  offset="6.160247e-02" style="stop-color:#AC0340"/>
			<stop  offset="0.2715" style="stop-color:#C40239"/>
			<stop  offset="0.4914" style="stop-color:#D60135"/>
			<stop  offset="0.7259" style="stop-color:#E10032"/>
			<stop  offset="1" style="stop-color:#E40031"/>
		</linearGradient>
		<path style="fill:url(#SVGID_4_);" d="M29.7,27.9H17.8v-9.5c0-3.3,2.7-5.9,5.9-5.9h0c3.3,0,5.9,2.7,5.9,5.9V27.9z"/>
		<linearGradient id="SVGID_5_" gradientUnits="userSpaceOnUse" x1="17.8053" y1="35.6044" x2="29.6756" y2="35.6044">
			<stop  offset="0" style="stop-color:#FFFFFF"/>
			<stop  offset="0.1697" style="stop-color:#F8F8F8"/>
			<stop  offset="0.41" style="stop-color:#E6E6E6"/>
			<stop  offset="0.6925" style="stop-color:#C7C7C7"/>
			<stop  offset="1" style="stop-color:#9E9E9E"/>
		</linearGradient>
		<path style="fill:url(#SVGID_5_);" d="M23.7,43.3L23.7,43.3c-3.3,0-5.9-2.7-5.9-5.9v-9.5h11.9v9.5C29.7,40.7,27,43.3,23.7,43.3z"
			/>
	</g>
	<g>
		<path style="fill:#004B82;" d="M65.4,22.7c1.2,0.2,1.9-0.2,1.9-2.1v-6.9h7.9v11.5h-2.6v-9h-2.7v4.3c0,4.1-2.4,4.9-4.5,4.7V22.7z"
			/>
		<path style="fill:#004B82;" d="M84.9,22.7v2.5h-7.2V13.7h7.1v2.5h-4.5v1.9h4.1v2.5h-4.1v2H84.9z"/>
		<path style="fill:#004B82;" d="M93.3,25.2l-3.7-5.3v5.3H87V13.7h2.6v5l3.5-5h3l-3.9,5.6l4,5.9H93.3z"/>
		<path style="fill:#004B82;" d="M104.9,23.4h-4.3l-0.6,1.8h-2.9l3.9-11.5h3.3l3.9,11.5h-2.9L104.9,23.4z M104.1,20.9l-1.3-4.2
			l-1.3,4.2H104.1z"/>
		<path style="fill:#004B82;" d="M118.2,17.7c0,2.2-1.8,3.9-4,3.9h-1.7v3.6h-2.6V13.7h4.3C116.5,13.7,118.2,15.5,118.2,17.7z
			 M115.6,17.7c0-0.8-0.6-1.5-1.4-1.5h-1.7v3h1.7C115,19.1,115.6,18.5,115.6,17.7z"/>
		<path style="fill:#004B82;" d="M119.6,19.5c0-3.4,2.5-6,6-6c2.1,0,3.9,1,4.9,2.7l-2.3,1.3c-0.5-0.9-1.5-1.4-2.7-1.4
			c-2,0-3.3,1.4-3.3,3.4s1.3,3.4,3.3,3.4c1.2,0,2.2-0.5,2.7-1.4l2.3,1.3c-1,1.6-2.8,2.7-4.9,2.7C122.1,25.4,119.6,22.8,119.6,19.5z"
			/>
		<path style="fill:#004B82;" d="M140.3,16.2h-3v9h-2.6v-9h-3v-2.5h8.5V16.2z"/>
		<path style="fill:#004B82;" d="M150.3,21.8c0,2-1.7,3.4-3.7,3.4h-4.8V13.7h4.5c2,0,3.6,1.3,3.6,3.3c0,1-0.4,1.7-1,2.2
			C149.8,19.8,150.3,20.7,150.3,21.8z M144.4,16.2v2h1.9c0.6,0,1-0.4,1-1c0-0.6-0.4-1-1-1H144.4z M147.7,21.6c0-0.6-0.4-1.1-1.1-1.1
			h-2.2v2.2h2.2C147.3,22.7,147.7,22.3,147.7,21.6z"/>
		<path style="fill:#004B82;" d="M159.4,22.7v2.5h-7.2V13.7h7.1v2.5h-4.5v1.9h4.1v2.5h-4.1v2H159.4z"/>
		<path style="fill:#004B82;" d="M170.3,13.7v11.5h-2.6v-4.6h-3.6v4.6h-2.6V13.7h2.6v4.4h3.6v-4.4H170.3z"/>
		<path style="fill:#004B82;" d="M181.6,13.7v11.5H179v-4.6h-3.6v4.6h-2.6V13.7h2.6v4.4h3.6v-4.4H181.6z"/>
		<path style="fill:#004B82;" d="M190.8,23.4h-4.3l-0.6,1.8h-2.9l3.9-11.5h3.3l3.9,11.5h-2.9L190.8,23.4z M190,20.9l-1.3-4.2
			l-1.3,4.2H190z"/>
		<path style="fill:#004B82;" d="M204.3,25.2h-2.6v-3.8h-0.8l-2.4,3.8h-3l2.7-4.1c-1.4-0.6-2.4-2-2.4-3.4c0-2.2,1.8-3.9,3.9-3.9h4.6
			V25.2z M201.7,19.1v-3h-2c-0.7,0-1.3,0.6-1.3,1.5c0,0.8,0.6,1.5,1.3,1.5H201.7z"/>
		<path style="fill:#004B82;" d="M74.6,41.3c0,2.2-1.6,3.6-3.9,3.6h-4.4V33.4h7.4v2.5h-4.8v1.7h1.8C73,37.6,74.6,39.1,74.6,41.3z
			 M71.9,41.3c0-0.8-0.6-1.1-1.3-1.1h-1.8v2.3h1.8C71.4,42.4,71.9,42.1,71.9,41.3z"/>
		<path style="fill:#004B82;" d="M83.5,42.3v2.5h-7.2V33.4h7.1v2.5h-4.5v1.9H83v2.5h-4.1v2H83.5z"/>
		<path style="fill:#004B82;" d="M93.5,41.6c0,2.1-1.8,3.5-4.2,3.5c-2.4,0-3.7-1.1-4.4-2.7l2.3-1.3c0.3,0.9,0.9,1.6,2.1,1.6
			c1.1,0,1.6-0.5,1.6-1.2c0-0.8-0.5-1.2-1.6-1.2h-1.5v-2.3h1.1c1,0,1.6-0.4,1.6-1.1c0-0.7-0.4-1.1-1.3-1.1c-1,0-1.5,0.6-1.8,1.3
			l-2.2-1.3c0.7-1.4,1.9-2.5,4.1-2.5c2.3,0,4,1.3,4,3.4c0,1-0.4,1.8-1.1,2.4C92.9,39.5,93.5,40.4,93.5,41.6z"/>
		<path style="fill:#004B82;" d="M94.8,39.1c0-3.4,2.7-6,6-6s6,2.6,6,6c0,3.4-2.7,6-6,6S94.8,42.5,94.8,39.1z M104.1,39.1
			c0-2-1.5-3.4-3.3-3.4s-3.3,1.4-3.3,3.4s1.5,3.4,3.3,3.4S104.1,41.2,104.1,39.1z"/>
		<path style="fill:#004B82;" d="M117.2,44.9h-2.6v-9h-3.4v9h-2.6V33.4h8.7V44.9z"/>
		<path style="fill:#004B82;" d="M126.4,43.1h-4.3l-0.6,1.8h-2.9l3.9-11.5h3.3l3.9,11.5H127L126.4,43.1z M125.6,40.6l-1.3-4.2
			l-1.3,4.2H125.6z"/>
		<path style="fill:#004B82;" d="M130.4,39.1c0-3.4,2.5-6,6-6c2.1,0,3.9,1,4.9,2.7l-2.3,1.3c-0.5-0.9-1.5-1.4-2.7-1.4
			c-2,0-3.3,1.4-3.3,3.4s1.3,3.4,3.3,3.4c1.2,0,2.2-0.5,2.7-1.4l2.3,1.3c-1,1.6-2.8,2.7-4.9,2.7C132.9,45.1,130.4,42.5,130.4,39.1z"
			/>
		<path style="fill:#004B82;" d="M151.8,33.4v11.5h-2.6v-4.6h-3.6v4.6H143V33.4h2.6v4.4h3.6v-4.4H151.8z"/>
		<path style="fill:#004B82;" d="M153.7,39.1c0-3.4,2.7-6,6-6c3.3,0,6,2.6,6,6c0,3.4-2.7,6-6,6C156.3,45.1,153.7,42.5,153.7,39.1z
			 M163,39.1c0-2-1.5-3.4-3.3-3.4s-3.3,1.4-3.3,3.4s1.5,3.4,3.3,3.4S163,41.2,163,39.1z"/>
		<path style="fill:#004B82;" d="M167.1,39.1c0-3.4,2.5-6,6-6c2.1,0,3.9,1,4.9,2.7l-2.3,1.3c-0.5-0.9-1.5-1.4-2.7-1.4
			c-2,0-3.3,1.4-3.3,3.4s1.3,3.4,3.3,3.4c1.2,0,2.2-0.5,2.7-1.4l2.3,1.3c-1,1.6-2.8,2.7-4.9,2.7C169.6,45.1,167.1,42.5,167.1,39.1z"
			/>
		<path style="fill:#004B82;" d="M187.8,35.9h-3v9h-2.6v-9h-3v-2.5h8.5V35.9z"/>
		<path style="fill:#004B82;" d="M197.7,40.9c0,2.2-1.8,3.9-4,3.9h-4.3V33.4h2.6V37h1.7C195.9,37,197.7,38.7,197.7,40.9z
			 M195.1,40.9c0-0.8-0.6-1.5-1.4-1.5h-1.7v3h1.7C194.5,42.4,195.1,41.8,195.1,40.9z"/>
	</g>
</g>
</svg>
