<svg xmlns="http://www.w3.org/2000/svg" viewBox="0 0 47.5 60"><linearGradient id="a" gradientUnits="userSpaceOnUse" x1="0" y1="35.8" x2="47.5" y2="35.8" gradientTransform="matrix(1 0 0 -1 0 62)"><stop offset="0" stop-color="#008cb4"/><stop offset=".372" stop-color="#0089b2"/><stop offset=".606" stop-color="#0081ab"/><stop offset=".801" stop-color="#0072a0"/><stop offset=".975" stop-color="#005e91"/><stop offset="1" stop-color="#005a8e"/></linearGradient><path d="M47.5 3v26.4l-41.1 20C2.7 44.8 0 38 0 28.4v-2.3L47.5 3z" fill="url(#a)"/><linearGradient id="b" gradientUnits="userSpaceOnUse" x1="6.347" y1="17.3" x2="47.465" y2="17.3" gradientTransform="matrix(1 0 0 -1 0 62)"><stop offset="0" stop-color="#a30442"/><stop offset=".062" stop-color="#ac0340"/><stop offset=".272" stop-color="#c40239"/><stop offset=".491" stop-color="#d60135"/><stop offset=".726" stop-color="#e10032"/><stop offset="1" stop-color="#e40031"/></linearGradient><path d="M47.5 29.4C46.9 56.9 23.7 60 23.7 60S13.4 58.6 6.3 49.5l41.2-20.1z" fill="url(#b)"/><linearGradient id="c" gradientUnits="userSpaceOnUse" x1="46.134" y1="61.776" x2="-7.809" y2="45.025" gradientTransform="matrix(1 0 0 -1 0 62)"><stop offset="0" stop-color="#fff"/><stop offset=".17" stop-color="#f8f8f8"/><stop offset=".41" stop-color="#e6e6e6"/><stop offset=".693" stop-color="#c7c7c7"/><stop offset="1" stop-color="#9e9e9e"/></linearGradient><path d="M47.5 3L0 26.1V3s12.4-3 23.7-3c11.4 0 23.8 3 23.8 3z" fill="url(#c)"/><linearGradient id="d" gradientUnits="userSpaceOnUse" x1="17.8" y1="41.8" x2="29.671" y2="41.8" gradientTransform="matrix(1 0 0 -1 0 62)"><stop offset="0" stop-color="#a30442"/><stop offset=".062" stop-color="#ac0340"/><stop offset=".272" stop-color="#c40239"/><stop offset=".491" stop-color="#d60135"/><stop offset=".726" stop-color="#e10032"/><stop offset="1" stop-color="#e40031"/></linearGradient><path d="M29.7 27.9H17.8v-9.5c0-3.3 2.7-5.9 5.9-5.9 3.3 0 5.9 2.7 5.9 5.9v9.5h.1z" fill="url(#d)"/><linearGradient id="e" gradientUnits="userSpaceOnUse" x1="17.8" y1="26.4" x2="29.671" y2="26.4" gradientTransform="matrix(1 0 0 -1 0 62)"><stop offset="0" stop-color="#fff"/><stop offset=".17" stop-color="#f8f8f8"/><stop offset=".41" stop-color="#e6e6e6"/><stop offset=".693" stop-color="#c7c7c7"/><stop offset="1" stop-color="#9e9e9e"/></linearGradient><path d="M23.7 43.3c-3.3 0-5.9-2.7-5.9-5.9v-9.5h11.9v9.5c0 3.3-2.7 5.9-6 5.9z" fill="url(#e)"/></svg>