<svg version="1.1" id="Layer_1" xmlns="http://www.w3.org/2000/svg" x="0" y="0" viewBox="0 0 230.3 46.3" xml:space="preserve"><style>.st1{fill-rule:evenodd;clip-rule:evenodd;fill:#232f67}</style><path d="M96.7 5.1h4.2v1h-2.7v7.5h-1.5V5.1zm6.6 3.1c-.1 0-.3 0-.4.1-.1.1-.2.2-.3.4-.1.2-.2.4-.2.7 0 .3-.1.7-.1 1.2s0 .9.1 1.2c0 .3.1.5.2.7.1.2.2.3.3.4.1.1.2.1.4.1.1 0 .3 0 .4-.1.1-.1.2-.2.3-.4.1-.2.2-.4.2-.7 0-.3.1-.7.1-1.2s0-.9-.1-1.2c0-.3-.1-.5-.2-.7-.1-.2-.2-.3-.3-.4-.2-.1-.3-.1-.4-.1zm0-.8c.4 0 .7.1 1 .2.3.1.6.3.8.5.2.3.4.6.5 1 .1.4.2.9.2 1.5s-.1 1.1-.2 1.5c-.1.4-.3.7-.5 1-.2.3-.5.4-.8.5-.3.1-.6.2-1 .2s-.7-.1-1-.2c-.3-.1-.6-.3-.8-.5-.2-.3-.4-.6-.5-1-.1-.4-.2-.9-.2-1.5s.1-1.1.2-1.5c.1-.4.3-.7.5-1 .2-.3.5-.4.8-.5.2-.1.6-.2 1-.2zm6 .8c-.2 0-.4 0-.5.1-.1.1-.3.2-.4.4-.1.2-.2.4-.2.7-.1.3-.1.7-.1 1.1 0 .5 0 .8.1 1.1.1.3.1.5.3.7.1.2.3.3.4.4.2.1.4.1.6.1h1.3v.6c-.2.1-.4.1-.7.2-.3 0-.6.1-.9.1-.4 0-.8-.1-1.1-.2-.3-.1-.6-.3-.8-.5-.2-.3-.4-.6-.5-1-.1-.4-.2-.9-.2-1.5s.1-1.1.2-1.5c.1-.4.3-.7.5-1 .2-.3.5-.4.8-.5.3-.1.6-.2 1-.2.3 0 .6 0 .9.1.3 0 .5.1.7.2v.6h-1.4zm5.6-.7h1.4l-1.1 6.2c-.2.9-.4 1.5-.8 1.8-.4.4-.8.6-1.4.6-.2 0-.5 0-.7-.1-.2 0-.4-.1-.5-.2v-.6h.8c.2 0 .3 0 .4-.1.1 0 .2-.1.3-.2.1-.1.2-.3.3-.5.1-.2.1-.5.2-.8-.4 0-.7-.1-1-.4-.3-.3-.5-.6-.6-1l-1.1-4.7h1.4l1.1 4.7c0 .1.1.2.1.2 0 .1.1.1.1.1l.1.1 1-5.1zm7.8 5.2v2.7h-.9c-.1-.2-.2-.5-.3-.8-.1-.3-.1-.6-.2-1h-3.2c0 .4-.1.7-.2 1-.1.3-.2.6-.3.8h-.9v-2.7h.5l.3-.6c.1-.3.2-.6.2-1l.2-3.5h4v5.1h.8zm-3.3-4.3l-.1 2.6c0 .4-.1.8-.2 1-.1.3-.2.5-.3.6h1.8V8.4h-1.2zm7.1 2.3h-1c-.1 0-.2.1-.3.2-.1.1-.2.2-.2.3-.1.1-.1.3-.1.5s0 .4.1.5c.1.1.1.3.2.3.1.1.2.1.3.2h.3c.2 0 .3 0 .4-.1.1 0 .2-.1.3-.2v-1.7zm-1.2 3c-.3 0-.5 0-.7-.1l-.6-.3c-.2-.1-.3-.3-.4-.6-.1-.3-.2-.6-.2-1s0-.7.2-1c.1-.3.2-.4.4-.6l.6-.3c.2-.1.5-.1.8-.1h.5c.2 0 .3.1.5.1v-.3c0-.5-.1-.8-.3-1-.2-.2-.5-.2-.9-.2H124v-.7c.2-.1.4-.1.7-.2.3 0 .5-.1.8-.1.4 0 .8 0 1.1.1.3.1.6.2.8.3.2.2.4.4.5.6.1.3.2.6.2 1v4.1h-1l-.2-.4h-.1c-.1.1-.3.2-.5.3-.4.3-.6.4-1 .4zm5.7-1.1c.1.1.2.1.3.2.1 0 .2.1.4.1s.3 0 .4-.1c.1-.1.2-.2.3-.4.1-.2.2-.4.2-.7.1-.3.1-.7.1-1.1 0-.5 0-.8-.1-1.1-.1-.3-.1-.5-.2-.7-.1-.2-.2-.3-.3-.4-.1-.1-.3-.1-.4-.1-.2 0-.3 0-.4.1-.1 0-.2.1-.3.2v4zm1.1-5.2c.3 0 .6.1.8.2.3.1.5.3.7.5.2.3.3.6.4 1 .1.4.1.9.1 1.5s0 1.1-.1 1.5c-.1.4-.2.7-.4 1-.2.3-.4.4-.7.5-.3.1-.6.2-.9.2-.2 0-.4 0-.6-.1-.2-.1-.3-.1-.5-.2V16h-1.5V7.5h1l.2.4h.1c.1-.1.3-.2.5-.3.3-.1.6-.2.9-.2zm5.7.8c-.2 0-.3 0-.5.1-.1.1-.3.2-.4.4-.1.2-.2.4-.2.7-.1.3-.1.7-.1 1.1 0 .5 0 .8.1 1.1.1.3.1.5.3.7.1.2.3.3.4.4.2.1.4.1.6.1h1.3v.6c-.2.1-.4.1-.7.2-.3 0-.6.1-.9.1-.4 0-.8-.1-1.1-.2-.3-.1-.6-.3-.8-.5-.2-.3-.4-.6-.5-1-.1-.4-.2-.9-.2-1.5s.1-1.1.2-1.5c.1-.4.3-.7.5-1 .2-.3.5-.4.8-.5.3-.1.6-.2 1-.2.3 0 .6 0 .9.1.3 0 .5.1.7.2v.6h-1.4zm6.2-.7v.9h-1.5v5.1H141V8.4h-1.5v-.9h4.5zm3.1 5.3h.4c.1 0 .2-.1.3-.2.1-.1.2-.2.2-.3.1-.1.1-.3.1-.5 0-.4-.1-.6-.3-.8-.2-.1-.4-.2-.7-.2h-.7v2h.7zm-.7-4.6V10h.9c.1 0 .2-.1.3-.2.1-.1.2-.2.2-.3.1-.1.1-.2.1-.4s0-.3-.1-.4c-.1-.1-.1-.2-.2-.3-.1-.1-.2-.1-.3-.2h-.9zm-1.5-.6c.3-.1.6-.2.9-.2.3 0 .7-.1 1.1-.1.4 0 .7 0 1 .1.3.1.5.1.8.3.2.1.4.3.5.5.1.2.2.5.2.8 0 .2 0 .4-.1.5-.1.1-.1.3-.2.4-.1.1-.2.2-.3.2-.1.1-.2.1-.3.2.1 0 .3.1.4.2.1.1.3.2.4.3.1.1.2.3.3.4.1.2.1.4.1.6 0 .4-.1.7-.2.9-.1.2-.3.4-.5.6-.2.1-.5.2-.8.3-.3.1-.7.1-1.1.1-.5 0-.9 0-1.2-.1-.3 0-.6-.1-1-.2V7.6zm10.2 3.4H152c0 .7.1 1.2.4 1.5.2.3.6.4 1.1.4h1.3v.6c-.2.1-.4.1-.7.2-.3 0-.6.1-.9.1-.5 0-.9-.1-1.2-.2-.3-.1-.6-.3-.8-.5-.2-.3-.4-.6-.5-1-.1-.4-.2-.9-.2-1.5s.1-1.1.2-1.5c.1-.4.3-.7.4-1 .2-.3.4-.4.7-.5.3-.1.6-.2 1-.2s.7.1 1 .2c.3.1.5.3.7.5.2.3.3.6.4 1 .1.4.2.9.2 1.5v.4zm-1.4-.9c0-.4 0-.7-.1-1 0-.3-.1-.4-.2-.6l-.3-.3c-.1-.1-.2-.1-.3-.1-.1 0-.2 0-.3.1l-.3.3c-.1.1-.1.3-.2.6 0 .3-.1.6-.1 1h1.8zm4.2 3.5h-1.5v-6h1.5v2.5h1.6V7.5h1.5v6h-1.5V11h-1.6v2.6zm6.1 0h-1.5v-6h1.5v2.5h1.6V7.5h1.5v6h-1.5V11H164v2.6zm11.2-6.1v6h-1.5v-6h1.5zm-5.1 2.3c.2 0 .3-.1.5-.1h.5c.3 0 .6 0 .8.1.2.1.5.2.6.3.2.1.3.3.4.6.1.3.2.6.2 1s-.1.7-.2 1c-.1.3-.3.5-.5.6-.2.1-.4.2-.7.3-.3.1-.6.1-1 .1-.5 0-.9 0-1.2-.1-.3 0-.6-.1-.9-.2V7.5h1.5v2.3zm.6 3c.1 0 .2 0 .3-.1.1 0 .2-.1.3-.2.1-.1.2-.2.2-.4.1-.1.1-.3.1-.6 0-.2 0-.4-.1-.5-.1-.1-.1-.3-.2-.3-.1-.1-.2-.1-.3-.2h-1v2.2h.7v.1zm8.3-7c.2 0 .5-.1.6-.2.2-.1.3-.2.5-.3l.6.6c-.2.3-.4.5-.7.7-.3.2-.6.2-1 .2s-.7-.1-1-.2c-.3-.2-.5-.4-.7-.7l.6-.6c.1.1.3.2.5.3.2.2.4.2.6.2zm1 4l-1.8 3.8h-1.5v-6h1.4v3.7h.1l1.6-3.7h1.6v6H180V9.8zm9.2 0l-1.8 3.8H186v-6h1.4v3.7h.1l1.6-3.7h1.6v6h-1.4V9.8h-.1zm4.4 3.8h-1.5v-6h1.5v2.5h1.6V7.5h1.5v6h-1.5V11h-1.6v2.6zm7-5.4c-.2 0-.4 0-.5.1-.1.1-.3.2-.4.4-.1.2-.2.4-.2.7-.1.3-.1.7-.1 1.1 0 .5 0 .8.1 1.1.1.3.1.5.3.7.1.2.3.3.4.4.2.1.4.1.6.1h1.3v.6c-.2.1-.4.1-.7.2-.3 0-.6.1-.9.1-.4 0-.8-.1-1.1-.2-.3-.1-.6-.3-.8-.5-.2-.3-.4-.6-.5-1-.1-.4-.2-.9-.2-1.5s.1-1.1.2-1.5c.1-.4.3-.7.5-1 .2-.3.5-.4.8-.5.3-.1.6-.2 1-.2.3 0 .6 0 .9.1.3 0 .5.1.7.2v.6h-1.4zm6.2-.7v.9h-1.5v5.1h-1.5V8.4h-1.5v-.9h4.5zm4.1 2.3l-1.8 3.8h-1.5v-6h1.4v3.7h.1l1.6-3.7h1.6v6h-1.4V9.8zm6.8-2.3v.9h-1.5v5.1h-1.5V8.4h-1.5v-.9h4.5zm4.1 0h1.4l-1.1 6.2c-.2.9-.4 1.5-.8 1.8-.4.4-.8.6-1.4.6-.2 0-.5 0-.7-.1-.2 0-.4-.1-.5-.2v-.6h.8c.2 0 .3 0 .4-.1.1 0 .2-.1.3-.2.1-.1.2-.3.3-.5.1-.2.1-.5.2-.8-.4 0-.7-.1-1-.4-.3-.3-.5-.6-.6-1L218 7.5h1.4l1.1 4.7c0 .1.1.2.1.2 0 .1.1.1.1.1l.1.1 1-5.1zm6.4 0v.9h-1.5v5.1h-1.5V8.4h-1.5v-.9h4.5zM101.1 20.2v6h-1.5v-5.1h-1.3l-.2 3.2c0 .7-.2 1.2-.5 1.5-.3.3-.7.5-1.1.5-.2 0-.4 0-.5-.1-.2 0-.2-.1-.2-.1v-.6c.2 0 .4-.1.6-.3.2-.2.3-.5.3-1l.2-4.1h4.2v.1zm5.9 3.5h-3.1c0 .7.1 1.2.4 1.5.2.3.6.4 1.1.4h1.3v.6c-.2.1-.4.1-.7.2-.3 0-.6.1-.9.1-.5 0-.9-.1-1.2-.2-.3-.1-.6-.3-.8-.5-.2-.3-.4-.6-.5-1-.1-.4-.2-.9-.2-1.5s.1-1.1.2-1.5c.1-.4.3-.7.4-1 .2-.3.4-.4.7-.5.3-.1.6-.2 1-.2s.7.1 1 .2c.3.1.5.3.7.5.2.3.3.6.4 1 .1.4.2.9.2 1.5v.4zm-1.5-.9c0-.4 0-.7-.1-1 0-.3-.1-.4-.2-.6l-.3-.3c-.1-.1-.2-.1-.3-.1-.1 0-.2 0-.3.1l-.3.3c-.1.1-.1.3-.2.6 0 .3-.1.6-.1 1h1.8zm5.5.3c.2 0 .4.2.6.3.2.2.3.4.4.8l.2 1c0 .1.1.2.2.3.1.1.3.2.5.2v.6c-.1 0-.1 0-.2.1-.2 0-.3.1-.6.1-.4 0-.7-.1-.9-.3-.2-.2-.4-.4-.5-.7l-.3-1.1c-.1-.2-.1-.4-.3-.5-.1-.1-.3-.2-.4-.2h-.2v2.7H108v-6h1.5v2.4h.2c.1 0 .2 0 .3-.1.1-.1.2-.3.3-.5l.4-.9c.1-.3.3-.5.5-.7.2-.2.5-.3.8-.3h.6c.1 0 .2 0 .2.1v.6c-.2 0-.4 0-.5.1l-.2.2-.3.8c-.1.3-.3.6-.4.8-.1 0-.2.1-.4.2zm5.6.3h-.9c-.1 0-.2.1-.3.2-.1.1-.2.2-.2.3-.1.1-.1.3-.1.5s0 .4.1.5c.1.1.1.3.2.3.1.1.2.1.3.2h.3c.2 0 .3 0 .4-.1.1 0 .2-.1.3-.2v-1.7h-.1zm-1.1 3c-.3 0-.5 0-.7-.1-.2-.1-.4-.1-.6-.3-.2-.1-.3-.3-.4-.6-.1-.3-.2-.6-.2-1s.1-.7.2-1c.1-.3.2-.4.4-.6l.6-.3c.2-.1.5-.1.8-.1h.5c.2 0 .3.1.5.1V22c0-.5-.1-.8-.3-1-.2-.2-.5-.2-.9-.2h-1.2v-.6c.2-.1.4-.1.7-.2.3 0 .5-.1.8-.1.4 0 .8 0 1.1.1.3.1.6.2.8.3.2.1.4.4.5.6.1.3.2.6.2 1V26h-1l-.2-.4h-.1c-.1.1-.3.2-.5.3-.4.4-.7.5-1 .5zm5.6-1.1c.1.1.2.1.3.2.1 0 .2.1.4.1s.3 0 .4-.1c.1-.1.2-.2.3-.4.1-.2.2-.4.2-.7.1-.3.1-.7.1-1.1 0-.5 0-.8-.1-1.1-.1-.3-.1-.5-.2-.7-.1-.2-.2-.3-.3-.4-.1-.1-.3-.1-.4-.1-.2 0-.3 0-.4.1-.1 0-.2.1-.3.2v4zm1.1-5.2c.3 0 .6.1.8.2.3.1.5.3.7.5.2.3.3.6.4 1 .1.4.2.9.2 1.5s0 1.1-.2 1.5c-.1.4-.2.7-.4 1-.2.3-.4.4-.7.5-.3.1-.6.2-.9.2-.2 0-.4 0-.6-.1-.2-.1-.3-.1-.5-.2v2.6h-1.5v-8.5h1l.2.4h.1c.1-.1.3-.2.5-.3.3-.2.6-.3.9-.3zm5.7.9c-.2 0-.4 0-.5.1-.1.1-.3.2-.4.4-.1.2-.2.4-.2.7-.1.3-.1.7-.1 1.1 0 .5 0 .8.1 1.1.1.3.1.5.3.7.1.2.3.3.4.4.2.1.4.1.6.1h1.3v.6c-.2.1-.4.1-.7.2-.3 0-.6.1-.9.1-.4 0-.8-.1-1.1-.2-.3-.1-.6-.3-.8-.5-.2-.3-.4-.6-.5-1-.1-.4-.2-.9-.2-1.5s.1-1.1.2-1.5c.1-.4.3-.7.5-1 .2-.3.5-.4.8-.5.3-.1.6-.2 1-.2.3 0 .6 0 .9.1.3 0 .5.1.7.2v.6h-1.4zm6.3-.8v.9h-1.5v5.1h-1.5v-5.1h-1.5v-.9h4.5zm3 5.3h.4c.1 0 .2-.1.3-.2.1-.1.2-.2.2-.3.1-.1.1-.3.1-.5 0-.4-.1-.6-.3-.8-.2-.1-.4-.2-.7-.2h-.7v2h.7zm-.7-4.5v1.8h.9c.1 0 .2-.1.3-.1.1-.1.2-.2.2-.3.1-.1.1-.2.1-.4s0-.3-.1-.4c-.1-.1-.1-.2-.2-.3-.1-.1-.2-.1-.3-.2h-.9V21zm-1.4-.6c.3-.1.6-.2.9-.2.3 0 .7-.1 1.1-.1.4 0 .7 0 1 .1.3.1.5.1.8.3.2.1.4.3.5.5.1.2.2.5.2.8 0 .2 0 .4-.1.5-.1.1-.1.3-.2.4-.1.1-.2.2-.3.2-.1.1-.2.1-.3.2.1 0 .3.1.4.2.1.1.3.2.4.3.1.1.2.3.3.4.1.2.1.4.1.6 0 .4-.1.7-.2.9-.1.2-.3.4-.5.6-.2.1-.5.2-.8.3-.3.1-.7.1-1.1.1-.5 0-.9 0-1.2-.1-.3 0-.6-.1-1-.2v-5.8zm10.2 3.3h-3.1c0 .7.1 1.2.4 1.5.2.3.6.4 1.1.4h1.3v.6c-.2.1-.4.1-.7.2-.3 0-.6.1-.9.1-.5 0-.9-.1-1.2-.2-.3-.1-.6-.3-.8-.5-.2-.3-.4-.6-.5-1-.1-.4-.2-.9-.2-1.5s.1-1.1.2-1.5c.1-.4.3-.7.4-1 .2-.3.4-.4.7-.5.3-.1.6-.2 1-.2s.7.1 1 .2c.3.1.5.3.7.5s.3.6.4 1c.1.4.2.9.2 1.5v.4zm-1.5-.9c0-.4 0-.7-.1-1 0-.3-.1-.4-.2-.6l-.3-.3c-.1-.1-.2-.1-.3-.1s-.2 0-.3.1l-.3.3c-.1.1-.1.3-.2.6 0 .3-.1.6-.1 1h1.8zm4.2 3.5h-1.5v-6h1.5v2.5h1.6v-2.5h1.5v6h-1.5v-2.6H148v2.6zm6.1 0h-1.5v-6h1.5v2.5h1.6v-2.5h1.5v6h-1.5v-2.6h-1.6v2.6zm11.3-6.1v6h-1.5v-6h1.5zm-5.2 2.3c.2 0 .3-.1.5-.1h.5c.3 0 .6 0 .8.1.2.1.5.2.6.3.2.1.3.3.4.6.1.3.1.6.1 1s-.1.7-.2 1c-.1.3-.3.5-.5.6-.2.1-.4.2-.7.3-.3.1-.6.1-1 .1-.5 0-.9 0-1.2-.1-.3 0-.6-.1-.9-.2v-5.9h1.5v2.3h.1zm.7 3c.1 0 .2 0 .3-.1.1 0 .2-.1.3-.2.1-.1.2-.2.2-.4.1-.1.1-.3.1-.6 0-.2 0-.4-.1-.5-.1-.1-.1-.3-.2-.3-.1-.1-.2-.1-.3-.2h-1v2.2h.7v.1zm8.8-5.3h1.5l-1.4 3 1.5 3.1h-1.5l-1-2.2-1 2.2h-1.5l1.5-3.1-1.4-3h1.5l.9 2.1.9-2.1zm7.9.8c-.2 0-.4 0-.5.1-.1.1-.3.2-.4.4-.1.2-.2.4-.2.7-.1.3-.1.7-.1 1.1 0 .5 0 .8.1 1.1.1.3.1.5.3.7.1.2.3.3.4.4.2.1.4.1.6.1h1.3v.6c-.2.1-.4.1-.7.2-.3 0-.6.1-.9.1-.4 0-.8-.1-1.1-.2-.3-.1-.6-.3-.8-.5-.2-.3-.4-.6-.5-1-.1-.4-.2-.9-.2-1.5s.1-1.1.2-1.5c.1-.4.3-.7.5-1 .2-.3.5-.4.8-.5.3-.1.6-.2 1-.2.3 0 .6 0 .9.1.3 0 .5.1.7.2v.6h-1.4zm3.9 4.3c.1.1.2.1.3.2.1 0 .2.1.4.1s.3 0 .4-.1c.1-.1.2-.2.3-.4.1-.2.2-.4.2-.7.1-.3.1-.7.1-1.1 0-.5 0-.8-.1-1.1-.1-.3-.1-.5-.2-.7-.1-.2-.2-.3-.3-.4-.1-.1-.3-.1-.4-.1-.2 0-.3 0-.4.1-.1 0-.2.1-.3.2v4zm1.1-5.2c.3 0 .6.1.8.2.3.1.5.3.7.5.2.3.3.6.4 1 .1.4.2.9.2 1.5s0 1.1-.2 1.5c-.1.4-.2.7-.4 1-.2.3-.4.4-.7.5-.3.1-.6.2-.9.2-.2 0-.4 0-.6-.1-.2-.1-.3-.1-.5-.2v2.6H180v-8.5h1l.2.4h.1c.1-.1.3-.2.5-.3.2-.2.5-.3.8-.3zm7.7 3.6h-3.1c0 .7.1 1.2.4 1.5.2.3.6.4 1.1.4h1.3v.6c-.2.1-.4.1-.7.2-.3 0-.6.1-.9.1-.5 0-.9-.1-1.2-.2-.3-.1-.6-.3-.8-.5-.2-.3-.4-.6-.5-1-.1-.4-.2-.9-.2-1.5s.1-1.1.2-1.5c.1-.4.3-.7.4-1 .2-.3.4-.4.7-.5.3-.1.6-.2 1-.2s.7.1 1 .2c.3.1.5.3.7.5.2.3.3.6.4 1 .1.4.2.9.2 1.5v.4zm-1.5-.9c0-.4 0-.7-.1-1 0-.3-.1-.4-.2-.6l-.3-.3c-.1-.1-.2-.1-.3-.1-.1 0-.2 0-.3.1l-.3.3c-.1.1-.1.3-.2.6 0 .3-.1.6-.1 1h1.8zm7.9 2.6V28h-.9c-.1-.2-.2-.5-.3-.8-.1-.3-.1-.6-.2-1h-3.2c0 .4-.1.7-.2 1-.1.3-.2.6-.3.8h-.9v-2.7h.5l.3-.6c.1-.3.2-.6.2-1l.2-3.5h4v5.1h.8v.1zm-3.3-4.3l-.1 2.6c0 .4-.1.8-.2 1-.1.3-.2.5-.3.6h1.8v-4.2h-1.2zm6.8-.1c-.2 0-.4 0-.5.1-.1.1-.3.2-.4.4-.1.2-.2.4-.2.7-.1.3-.1.7-.1 1.1 0 .5 0 .8.1 1.1.1.3.1.5.3.7.1.2.3.3.4.4.2.1.4.1.6.1h1.3v.6c-.2.1-.4.1-.7.2-.3 0-.6.1-.9.1-.4 0-.8-.1-1.1-.2-.3-.1-.6-.3-.8-.5-.2-.3-.4-.6-.5-1-.1-.4-.2-.9-.2-1.5s.1-1.1.2-1.5c.1-.4.3-.7.5-1 .2-.3.5-.4.8-.5.3-.1.6-.2 1-.2.3 0 .6 0 .9.1.3 0 .5.1.7.2v.6h-1.4zm6.2-.8v.9h-1.5v5.1h-1.5v-5.1h-1.5v-.9h4.5zm3.1 5.3h.4c.1 0 .2-.1.3-.2.1-.1.2-.2.2-.3.1-.1.1-.3.1-.5 0-.4-.1-.6-.3-.8-.2-.1-.4-.2-.7-.2h-.7v2h.7zm-.7-4.5v1.8h.9c.1 0 .2-.1.3-.1.1-.1.2-.2.2-.3.1-.1.1-.2.1-.4s0-.3-.1-.4c-.1-.1-.1-.2-.2-.3-.1-.1-.2-.1-.3-.2h-.9V21zm-1.5-.6c.3-.1.6-.2.9-.2.3 0 .7-.1 1.1-.1.4 0 .7 0 1 .1.3.1.6.1.8.3.2.1.4.3.5.5.1.2.2.5.2.8 0 .2 0 .4-.1.5-.1.1-.1.3-.2.4-.1.1-.2.2-.3.2-.1.1-.2.1-.3.2.1 0 .3.1.4.2.1.1.3.2.4.3.1.1.2.3.3.4.1.2.1.4.1.6 0 .4-.1.7-.2.9-.1.2-.3.4-.5.6-.2.1-.5.2-.8.3-.3.1-.7.1-1.1.1-.5 0-.9 0-1.2-.1-.3 0-.6-.1-1-.2v-5.8zM99.8 35.2L98.1 39h-1.5v-6H98v3.7h.1l1.6-3.7h1.6v6h-1.4v-3.8h-.1zm7.5 3.8h-1.5v-6h1.5v2.5h1.6V33h1.5v6h-1.5v-2.6h-1.6V39zm7.3-2.9h-.9c-.1 0-.2.1-.3.2-.1.1-.2.2-.2.3-.1.1-.1.3-.1.5s0 .4.1.5c.1.1.1.3.2.3.1.1.2.1.3.2h.3c.2 0 .3 0 .4-.1.1 0 .2-.1.3-.2v-1.7h-.1zm-1.1 3c-.3 0-.5 0-.7-.1l-.6-.3c-.2-.1-.3-.3-.4-.6-.1-.3-.2-.6-.2-1s0-.7.2-1c.1-.3.2-.4.4-.6l.6-.3c.2-.1.5-.1.8-.1h.5c.2 0 .3.1.5.1v-.5c0-.5-.1-.8-.3-1-.2-.2-.5-.2-.9-.2h-1.2v-.6c.2-.1.4-.1.7-.2.3 0 .5-.1.8-.1.4 0 .8 0 1.1.1.3.1.6.2.8.3.2.1.4.4.5.6.1.3.2.6.2 1V39h-1l-.2-.4h-.1c-.1.1-.3.2-.5.3-.4.2-.7.2-1 .2zm9.5-1v2.7h-.9c-.1-.2-.2-.5-.3-.8-.1-.3-.1-.6-.2-1h-3.2c0 .4-.1.7-.2 1-.1.3-.2.6-.3.8h-.9v-2.7h.5l.3-.6c.1-.3.2-.6.2-1l.2-3.5h4v5.1h.8zm-3.3-4.3l-.1 2.6c0 .4-.1.8-.2 1-.1.3-.2.5-.3.6h1.8v-4.2h-1.2zm8.8-.9v6H127v-5.1h-1.3l-.2 3.2c0 .7-.2 1.2-.5 1.5-.3.3-.6.5-1.1.5-.2 0-.4 0-.5-.1-.2 0-.2-.1-.2-.1v-.6c.2 0 .4-.1.6-.3.2-.2.3-.5.3-1l.2-4.1h4.2v.1zm5.9 3.5h-3.1c0 .7.1 1.2.4 1.5.2.3.6.4 1.1.4h1.3v.6c-.2.1-.4.1-.7.2-.3 0-.6.1-.9.1-.5 0-.9-.1-1.2-.2-.3-.1-.6-.3-.8-.5-.2-.3-.4-.6-.5-1-.1-.4-.2-.9-.2-1.5s.1-1.1.2-1.5c.1-.4.3-.7.4-1 .2-.3.4-.4.7-.5.3-.1.6-.2 1-.2s.7.1 1 .2c.3.1.5.3.7.5.2.2.3.6.4 1 .1.4.2.9.2 1.5v.4zm-1.5-.9c0-.4 0-.7-.1-1 0-.3-.1-.4-.2-.6l-.3-.3c-.1-.1-.2-.1-.3-.1-.1 0-.2 0-.3.1l-.3.3c-.1.1-.1.3-.2.6 0 .2-.1.6-.1 1h1.8zm6.6-2.6v2.4h.1c.1 0 .2 0 .3-.1.1-.1.2-.3.3-.5l.4-.9c.1-.3.3-.5.5-.7.2-.2.5-.3.8-.3h.6c.1 0 .2 0 .2.1v.6c-.2 0-.4 0-.5.1l-.2.2-.3.8c-.1.3-.3.6-.4.8-.1.2-.3.3-.5.3.2 0 .4.2.6.3.2.2.3.4.4.8l.2 1c0 .1.1.2.2.3.1.1.3.2.5.2v.7c-.1 0-.1 0-.2.1-.2 0-.3.1-.6.1-.4 0-.7-.1-.9-.3-.2-.2-.4-.4-.5-.7l-.3-1.1c-.1-.2-.1-.4-.3-.5-.1-.1-.3-.2-.4-.2h-.1V39h-1.5v-2.7h.1c-.2 0-.3.1-.4.2-.1.1-.2.3-.3.5l-.3 1.1c-.1.3-.2.6-.5.7-.2.2-.5.3-.9.3-.2 0-.4 0-.6-.1-.1 0-.2 0-.2-.1v-.6c.2 0 .4-.1.5-.2.1-.1.2-.2.2-.3l.2-1c.1-.4.2-.6.4-.8.2-.2.4-.3.6-.3-.2 0-.4-.2-.5-.3-.2-.2-.3-.4-.4-.8l-.3-.8c0-.1-.1-.2-.2-.2-.1-.1-.3-.1-.5-.1v-.6c.1 0 .1 0 .2-.1h.5c.4 0 .6.1.8.3.2.2.4.4.5.7l.4.9c.1.3.2.5.3.5.1.1.2.1.3.1h.1v-2.4h1.6zm6.9 3.2h-1c-.1 0-.2.1-.3.2-.1.1-.2.2-.2.3-.1.1-.1.3-.1.5s0 .4.1.5c.1.1.1.3.2.3.1.1.2.1.3.2h.3c.2 0 .3 0 .4-.1.1 0 .2-.1.3-.2v-1.7zm-1.2 3c-.3 0-.5 0-.7-.1l-.6-.3c-.2-.1-.3-.3-.4-.6-.1-.3-.2-.6-.2-1s0-.7.2-1c.1-.3.2-.4.4-.6l.6-.3c.2-.1.5-.1.8-.1h.5c.2 0 .3.1.5.1v-.5c0-.5-.1-.8-.3-1-.2-.2-.5-.2-.9-.2h-1.2v-.6c.2-.1.4-.1.7-.2.3 0 .5-.1.8-.1.4 0 .8 0 1.1.1.3.1.6.2.8.3.2.1.4.4.5.6.1.3.2.6.2 1V39h-1l-.2-.4h-.1c-.1.1-.3.2-.5.3-.4.2-.6.2-1 .2zm4.2-.1v-6h1.5v5.1h1.3V33h1.5v5.1h1.3V33h1.5v5.1h.7v2.7h-.9c-.1-.2-.2-.5-.3-.8-.1-.3-.1-.6-.2-1h-6.4zm12-3.8l-1.8 3.8h-1.5v-6h1.4v3.7h.1l1.6-3.7h1.6v6h-1.4v-3.8zm5.8-2.3h1.5l-1.4 3 1.5 3.1h-1.5l-1-2.2-1 2.2h-1.5l1.5-3.1-1.4-3h1.5l.9 2.1.9-2.1zm7 6.1h-1.5v-6h4.5v6h-1.5v-5.1h-1.6V39h.1zm6.1-1c.1.1.2.1.3.2.1 0 .2.1.4.1s.3 0 .4-.1c.1-.1.2-.2.3-.4.1-.2.2-.4.2-.7.1-.3.1-.7.1-1.1 0-.5 0-.8-.1-1.1-.1-.3-.1-.5-.2-.7-.1-.2-.2-.3-.3-.4-.1-.1-.3-.1-.4-.1-.2 0-.3 0-.4.1-.1 0-.2.1-.3.2v4zm1.1-5.2c.3 0 .6.1.8.2.3.1.5.3.7.5.2.2.3.6.4 1 .1.4.2.9.2 1.5s0 1.1-.2 1.5c-.1.4-.2.7-.4 1-.2.3-.4.4-.7.5-.3.1-.6.2-.9.2-.2 0-.4 0-.6-.1-.2-.1-.3-.1-.5-.2v2.6h-1.5V33h1l.2.4h.1c.1-.1.3-.2.5-.3.3-.2.6-.3.9-.3zm6.1 3.3h-1c-.1 0-.2.1-.3.2-.1.1-.2.2-.2.3-.1.1-.1.3-.1.5s0 .4.1.5c.1.1.1.3.2.3.1.1.2.1.3.2h.3c.2 0 .3 0 .4-.1.1 0 .2-.1.3-.2v-1.7zm-1.2 3c-.3 0-.5 0-.7-.1l-.6-.3c-.2-.1-.3-.3-.4-.6-.1-.3-.2-.6-.2-1s0-.7.2-1c.1-.3.2-.4.4-.6l.6-.3c.2-.1.5-.1.8-.1h.5c.2 0 .3.1.5.1v-.5c0-.5-.1-.8-.3-1-.2-.2-.5-.2-.9-.2H185v-.6c.2-.1.4-.1.7-.2.3 0 .5-.1.8-.1.4 0 .8 0 1.1.1.3.1.6.2.8.3.2.1.4.4.5.6.1.3.2.6.2 1V39h-1l-.2-.4h-.1c-.1.1-.3.2-.5.3-.4.2-.6.2-1 .2zm7-3.3c.2 0 .4.2.6.3.2.2.3.4.4.8l.2 1c0 .1.1.2.2.3.1.1.3.2.5.2v.6c-.1 0-.1 0-.2.1-.2 0-.3.1-.6.1-.4 0-.7-.1-.9-.3-.2-.2-.4-.4-.5-.7l-.3-1.1c-.1-.2-.1-.4-.3-.5-.1-.1-.3-.2-.4-.2V39h-1.5v-6h1.5v2.4h.2c.1 0 .2 0 .3-.1.1-.1.2-.3.3-.5l.4-.9c.1-.3.3-.5.5-.7.2-.2.5-.3.8-.3h.6c.1 0 .2 0 .2.1v.6c-.2 0-.4 0-.5.1l-.2.2-.3.8c-.1.3-.3.6-.4.8-.3.1-.4.2-.6.3zm6.7-2.9v.9h-1.5V39H197v-5.1h-1.5V33h4.5v-.1zm4.1 2.3l-1.8 3.8h-1.5v-6h1.4v3.7h.1l1.6-3.7h1.6v6h-1.4v-3.8zm5.7.6c.2 0 .4.2.6.3.2.2.3.4.4.8l.2 1c0 .1.1.2.2.3.1.1.3.2.5.2v.6c-.1 0-.1 0-.2.1-.2 0-.3.1-.6.1-.4 0-.7-.1-.9-.3-.2-.2-.4-.4-.5-.7l-.3-1.1c-.1-.2-.1-.4-.3-.5-.1-.1-.3-.2-.4-.2h-.2V39h-1.5v-6h1.5v2.4h.2c.1 0 .2 0 .3-.1.1-.1.2-.3.3-.5l.4-.9c.1-.3.3-.5.5-.7.2-.2.5-.3.8-.3h.6c.1 0 .2 0 .2.1v.6c-.2 0-.4 0-.5.1l-.2.2-.3.8c-.1.3-.3.6-.4.8 0 .1-.2.2-.4.3z" fill="#1b1c20"/><path class="st1" d="M18.4 3.1c4.1 0 7.8 1.5 10.7 4l-2.4 2.3c-2.2-1.9-5.1-3-8.3-3-7.1 0-12.9 5.8-12.9 12.9 0 7.1 5.8 12.9 12.9 12.9 1.9 0 3.7-.4 5.4-1.2L19 26.4l2.2-2.2 7.5 7.5c-.4.5-.9.8-1.5 1.2-2.6 1.7-5.6 2.7-8.9 2.7-9 0-16.2-7.3-16.2-16.2.1-9 7.3-16.3 16.3-16.3z"/><path fill-rule="evenodd" clip-rule="evenodd" fill="#a21214" d="M36.5 19l-8.2-8.2 2.5-2.3 8.1 8.2 8.6-8.6 2.4 2.3-8.6 8.6 8.5 8.6-2.4 2.3-8.5-8.5-8.1 8.1-2.3-2.4 8-8.1z"/><path class="st1" d="M59 3.1c9 0 16.2 7.3 16.2 16.2 0 9-7.3 16.2-16.2 16.2-2.1 0-4.2-.4-6.1-1.2V43h-3.3V32.3l2.2-2.1c2 1.3 4.5 2.1 7.1 2.1 7.1 0 12.9-5.8 12.9-12.9 0-7.1-5.8-12.9-12.9-12.9-2.8 0-5.4.9-7.5 2.4L49 6.6c2.8-2.2 6.2-3.5 10-3.5z"/><path d="M34.3 43.2h-.6v-3.5h.6v2.6l1.9-2.6h.6v3.5h-.6v-2.6l-1.9 2.6zm5.8-2.2v2.2h-.6v-4.9h.6v2.1h2.1v-2.1h.6v4.9h-.6V41h-2.1zm4.6-2.1v4.3H44v-4.9h3.4v4.9h-.6v-4.3h-2.1z" fill="#232f67"/><path d="M30.5 32.9v4.3h-.7v-4.9h2.5v.6h-1.8zm6.1.5l-2.5 3.8h-.6v-4.9h.7v3.8l2.5-3.8h.6v4.9h-.7v-3.8zm3.6-.3l-1.4 4.1h-.7l1.8-4.9h.6l1.8 4.9h-.7l-1.4-4.1zm6.5 3h.8c-.4.8-1.1 1.3-2.2 1.3-.7 0-1.3-.3-1.8-.8s-.7-1.1-.7-1.8.2-1.3.7-1.8c.5-.5 1.1-.7 1.8-.7.5 0 .9.1 1.3.3.4.2.7.6.9 1h-.8c-.3-.4-.8-.7-1.4-.7-.5 0-.9.2-1.3.6-.4.4-.5.8-.5 1.3s.2 1 .5 1.3c.4.4.8.6 1.3.6.7 0 1.1-.2 1.4-.6z" fill="#a21214"/></svg>