<svg xmlns="http://www.w3.org/2000/svg" viewBox="0 0 163.9 40"><linearGradient id="a" gradientUnits="userSpaceOnUse" x1="5.548" y1="30.376" x2="30.82" y2="5.104"><stop offset="0" stop-color="#4852a0"/><stop offset=".163" stop-color="#4c509d"/><stop offset=".323" stop-color="#584a94"/><stop offset=".482" stop-color="#6c3f86"/><stop offset=".641" stop-color="#873171"/><stop offset=".799" stop-color="#ab1e57"/><stop offset=".955" stop-color="#d60737"/><stop offset="1" stop-color="#e4002d"/></linearGradient><path d="M10.9 25.5h14.5v7.3c0 4-3.3 7.3-7.3 7.3s-7.3-3.3-7.3-7.3v-7.3zM31 5.3C27.8 2 23.2 0 18.2 0c-5 0-9.6 2-12.9 5.3C2 8.6 0 13.2 0 18.2c0 2.6.5 5 1.5 7.3h9.4v-7.3c0-4 3.3-7.3 7.3-7.3 1.4 0 2.7.4 3.8 1.1l6.2-3.8-3.8 6.2c.7 1.1 1.1 2.4 1.1 3.8v7.3h9.4c1-2.2 1.5-4.7 1.5-7.3 0-5-2.1-9.6-5.4-12.9z" fill="url(#a)"/><path d="M51.3 16.5v-3.1L50 16.5h-.2l-1.3-3.1v3.1H48v-3.8h.7l1.2 2.8 1.2-2.8h.7v3.8h-.5zm1.7 0v-3.8h2.5v.4h-2v1.2h2v.4h-2V16h2v.4H53zm3.2 0l1.7-2-1.6-1.8h.6l1.5 1.8v-1.8h.5v1.8l1.5-1.8h.6l-1.6 1.8 1.7 2h-.6l-1.4-1.7-.2.2v1.4h-.5V15l-.2-.3-1.4 1.7h-.6zm5.6-1.9c0-1.1.7-1.9 1.9-1.9 1.1 0 1.9.8 1.9 1.9 0 1.1-.8 1.9-1.9 1.9-1.2 0-1.9-.8-1.9-1.9zm3.2 0c0-.9-.5-1.5-1.4-1.5-.8 0-1.4.6-1.4 1.5s.5 1.5 1.4 1.5c.9 0 1.4-.6 1.4-1.5zm2.5 1.9v-3.3h-1.2v-.4h2.8v.4H68v3.3h-.5zm2.6 0v-3.8h1.5c.8 0 1.2.5 1.2 1.1s-.5 1.2-1.2 1.2h-1v1.5h-.5zm2.2-2.7c0-.4-.3-.7-.7-.7h-1v1.4h1c.4.1.7-.2.7-.7zm4.1 2.7l-.4-.9h-1.9l-.3.8h-.5l1.5-3.8h.6l1.5 3.8h-.5zm-1.3-3.3l-.8 2h1.6l-.8-2zm2.5 1.4c0-1.2.8-1.9 1.9-1.9.7 0 1.1.3 1.4.7l-.4.2c-.2-.3-.6-.5-1-.5-.8 0-1.4.6-1.4 1.5s.6 1.5 1.4 1.5c.4 0 .8-.2 1-.5l.4.2c-.3.4-.8.7-1.4.7-1.1 0-1.9-.8-1.9-1.9zm4 1.5c.4 0 .7-.2.9-1.5l.2-1.9H85v3.8h-.5v-3.3h-1.4l-.2 1.5c-.2 1.6-.7 1.9-1.3 1.9v-.5zm4.6.4v-3.8h2.5v.4h-2v1.2h2v.4h-2V16h2v.4h-2.5zm3.5 0v-3.8h1.7c.7 0 1.1.4 1.1 1 0 .5-.3.8-.7.9.4.1.7.5.7.9 0 .6-.4 1-1.1 1h-1.7zm2.2-2.8c0-.3-.2-.6-.6-.6h-1.1v1.2h1.1c.4 0 .6-.2.6-.6zm.1 1.7c0-.3-.2-.6-.7-.6h-1.1V16h1.1c.4 0 .7-.2.7-.6zm1.4-.8c0-1.1.7-1.9 1.9-1.9 1.1 0 1.9.8 1.9 1.9 0 1.1-.8 1.9-1.9 1.9-1.2 0-1.9-.8-1.9-1.9zm3.2 0c0-.9-.5-1.5-1.4-1.5-.8 0-1.4.6-1.4 1.5s.5 1.5 1.4 1.5c.9 0 1.4-.6 1.4-1.5zm1.5 1.9v-3.8h2.5v.4h-2v1.2h2v.4h-2V16h2v.4h-2.5zm5.2-1.9c0-1.1.7-1.9 1.9-1.9 1.1 0 1.9.8 1.9 1.9 0 1.1-.8 1.9-1.9 1.9-1.2 0-1.9-.8-1.9-1.9zm3.2 0c0-.9-.5-1.5-1.4-1.5-.8 0-1.4.6-1.4 1.5s.5 1.5 1.4 1.5c.9 0 1.4-.6 1.4-1.5zm4-1.9v.4h-2v1.1h1c.7 0 1.2.5 1.2 1.1 0 .6-.4 1.1-1.2 1.1H108v-3.8h2.5zm-2 1.9V16h1c.4 0 .7-.3.7-.7 0-.4-.3-.7-.7-.7h-1zm4.1 1.9v-3.3h-1.2v-.4h1.7v1.5h1c.7 0 1.2.5 1.2 1.1 0 .6-.4 1.1-1.2 1.1h-1.5zm.5-1.9V16h1c.4 0 .7-.3.7-.7 0-.4-.3-.7-.7-.7h-1zm3.1 1.9v-3.8h2.5v.4h-2v1.2h2v.4h-2V16h2v.4h-2.5zm3.3-.4c.4 0 .7-.2.9-1.5l.2-1.9h2.3V16h.3v1.1h-.5v-.7h-2.8v.7h-.5v-1zm.7-.1h2.2v-2.9H121l-.2 1.5c-.1.8-.3 1.2-.6 1.4zm3.9.5v-3.8h.5v2.9l2.2-2.9h.5v3.8h-.5v-3l-2.2 3h-.5zm7 0v-1.7h-2.2v1.7h-.5v-3.8h.5v1.6h2.2v-1.6h.5v3.8h-.5zm1.6 0v-3.8h2.5v.4h-2v1.2h2v.4h-2V16h2v.4h-2.5zm6.2 0v-1.7h-2.2v1.7h-.5v-3.8h.5v1.6h2.2v-1.6h.5v3.8h-.5zm1.7 0v-3.8h.5v2.9l2.2-2.9h.5v3.8h-.5v-3l-2.2 3h-.5zm4.2 0v-3.8h2.5v.4h-2v1.2h2v.4h-2V16h2v.4h-2.5z" fill="#e40029"/><path d="M52.7 34v-1.1c-3.4-.3-5.4-1.8-5.4-4.4 0-2.5 2-4 5.4-4.4V23h2.8v1.1c3.4.3 5.4 1.8 5.4 4.4 0 2.6-2 4-5.4 4.4V34h-2.8zm0-3.7v-3.7c-1.7.2-2.5.8-2.5 1.8 0 1.1.8 1.7 2.5 1.9zm2.9-3.6v3.7c1.7-.2 2.5-.8 2.5-1.8 0-1.1-.9-1.7-2.5-1.9zM70 34l-.5-1.6h-4.3l-.6 1.6h-3.2l4.1-11H69l4.1 11H70zm-2.7-8.2l-1.4 4.1h2.8l-1.4-4.1zm6.8 8.2V23h5.5c2.5 0 3.8 1.7 3.8 3.6 0 2-1.3 3.6-3.8 3.6H77V34h-2.9zm6.5-7.3c0-.8-.6-1.2-1.3-1.2H77v2.4h2.3c.7-.1 1.3-.5 1.3-1.2zM94.5 34v-7.1L91.7 34h-1.2l-2.8-7.1V34h-2.8V23h3.9l2.3 6 2.3-6h3.9v11h-2.8zm12.3 0v-8.5h-4.6V34h-2.8V23h10.2v11h-2.8zm5 0V23h5.5c2.5 0 3.8 1.7 3.8 3.6 0 2-1.3 3.6-3.8 3.6h-2.7V34h-2.8zm6.4-7.3c0-.8-.6-1.2-1.3-1.2h-2.3v2.4h2.3c.8-.1 1.3-.5 1.3-1.2zm3.8 1.8c0-3.3 2.5-5.7 5.9-5.7 3.4 0 5.9 2.3 5.9 5.7 0 3.3-2.5 5.7-5.9 5.7-3.4 0-5.9-2.4-5.9-5.7zm8.8 0c0-1.8-1.2-3.2-3-3.2s-3 1.4-3 3.2c0 1.8 1.2 3.2 3 3.2 1.9 0 3-1.4 3-3.2zm13.1-5.5v2.5h-5.7v1.4h2.8c2.4 0 3.7 1.6 3.7 3.5S143.4 34 141 34h-5.6V23h8.5zm-5.8 6.3v2.2h2.4c.7 0 1.2-.4 1.2-1.1 0-.7-.5-1.1-1.2-1.1h-2.4zM146 34V23h8v2.5h-5.2v1.7h5.1v2.5h-5.1v1.9h5.2V34h-8zm9.9 0V23h8v2.5h-5.2V34h-2.8z" fill="#272d5c"/></svg>