<?xml version="1.0" encoding="utf-8"?>
<!-- Generator: Adobe Illustrator 23.0.5, SVG Export Plug-In . SVG Version: 6.00 Build 0)  -->
<svg version="1.1" id="Layer_1" xmlns="http://www.w3.org/2000/svg" xmlns:xlink="http://www.w3.org/1999/xlink" x="0px" y="0px"
	 viewBox="0 0 47.5 60" style="enable-background:new 0 0 47.5 60;" xml:space="preserve">
<style type="text/css">
	.st0{fill:url(#SVGID_1_);}
	.st1{fill:url(#SVGID_2_);}
	.st2{fill:url(#SVGID_3_);}
	.st3{fill:url(#SVGID_4_);}
	.st4{fill:url(#SVGID_5_);}
</style>
<linearGradient id="SVGID_1_" gradientUnits="userSpaceOnUse" x1="0" y1="35.8" x2="47.5" y2="35.8" gradientTransform="matrix(1 0 0 -1 0 62)">
	<stop  offset="0" style="stop-color:#008CB4"/>
	<stop  offset="0.372" style="stop-color:#0089B2"/>
	<stop  offset="0.606" style="stop-color:#0081AB"/>
	<stop  offset="0.801" style="stop-color:#0072A0"/>
	<stop  offset="0.975" style="stop-color:#005E91"/>
	<stop  offset="1" style="stop-color:#005A8E"/>
</linearGradient>
<path class="st0" d="M47.5,3v26.4l-41.1,20C2.7,44.8,0,38,0,28.4v-2.3L47.5,3z"/>
<linearGradient id="SVGID_2_" gradientUnits="userSpaceOnUse" x1="6.347" y1="17.3" x2="47.465" y2="17.3" gradientTransform="matrix(1 0 0 -1 0 62)">
	<stop  offset="0" style="stop-color:#A30442"/>
	<stop  offset="6.200000e-02" style="stop-color:#AC0340"/>
	<stop  offset="0.272" style="stop-color:#C40239"/>
	<stop  offset="0.491" style="stop-color:#D60135"/>
	<stop  offset="0.726" style="stop-color:#E10032"/>
	<stop  offset="1" style="stop-color:#E40031"/>
</linearGradient>
<path class="st1" d="M47.5,29.4C46.9,56.9,23.7,60,23.7,60S13.4,58.6,6.3,49.5L47.5,29.4z"/>
<linearGradient id="SVGID_3_" gradientUnits="userSpaceOnUse" x1="46.1339" y1="61.776" x2="-7.8091" y2="45.025" gradientTransform="matrix(1 0 0 -1 0 62)">
	<stop  offset="0" style="stop-color:#FFFFFF"/>
	<stop  offset="0.17" style="stop-color:#F8F8F8"/>
	<stop  offset="0.41" style="stop-color:#E6E6E6"/>
	<stop  offset="0.693" style="stop-color:#C7C7C7"/>
	<stop  offset="1" style="stop-color:#9E9E9E"/>
</linearGradient>
<path class="st2" d="M47.5,3L0,26.1V3c0,0,12.4-3,23.7-3C35.1,0,47.5,3,47.5,3z"/>
<linearGradient id="SVGID_4_" gradientUnits="userSpaceOnUse" x1="17.8" y1="41.8" x2="29.671" y2="41.8" gradientTransform="matrix(1 0 0 -1 0 62)">
	<stop  offset="0" style="stop-color:#A30442"/>
	<stop  offset="6.200000e-02" style="stop-color:#AC0340"/>
	<stop  offset="0.272" style="stop-color:#C40239"/>
	<stop  offset="0.491" style="stop-color:#D60135"/>
	<stop  offset="0.726" style="stop-color:#E10032"/>
	<stop  offset="1" style="stop-color:#E40031"/>
</linearGradient>
<path class="st3" d="M29.7,27.9H17.8v-9.5c0-3.3,2.7-5.9,5.9-5.9c3.3,0,5.9,2.7,5.9,5.9v9.5H29.7z"/>
<linearGradient id="SVGID_5_" gradientUnits="userSpaceOnUse" x1="17.8" y1="26.4" x2="29.671" y2="26.4" gradientTransform="matrix(1 0 0 -1 0 62)">
	<stop  offset="0" style="stop-color:#FFFFFF"/>
	<stop  offset="0.17" style="stop-color:#F8F8F8"/>
	<stop  offset="0.41" style="stop-color:#E6E6E6"/>
	<stop  offset="0.693" style="stop-color:#C7C7C7"/>
	<stop  offset="1" style="stop-color:#9E9E9E"/>
</linearGradient>
<path class="st4" d="M23.7,43.3c-3.3,0-5.9-2.7-5.9-5.9v-9.5h11.9v9.5C29.7,40.7,27,43.3,23.7,43.3z"/>
</svg>
