<svg xmlns="http://www.w3.org/2000/svg" xmlns:xlink="http://www.w3.org/1999/xlink"><symbol id="icon_arrow" viewBox="0 0 21 21">
<g>
	<g>
		<path style="fill:#E50031;" d="M12.9,15.8c-0.1,0-0.2,0-0.2-0.1l-8.4-4.8C4,10.8,4,10.7,4,10.5s0.1-0.3,0.3-0.4l8.4-4.8
			c0.2-0.1,0.3-0.1,0.5,0s0.2,0.3,0.2,0.4V8h6.9c0.2,0,0.4,0.2,0.5,0.4C20.9,9,21,9.8,21,10.5s-0.1,1.5-0.2,2.2
			c0,0.2-0.3,0.4-0.5,0.4h-6.9v2.3c0,0.2-0.1,0.3-0.2,0.4C13,15.8,13,15.8,12.9,15.8z M5.5,10.5l6.9,4v-1.9c0-0.3,0.2-0.5,0.5-0.5h7
			c0.1-0.5,0.1-1,0.1-1.6c0-0.5,0-1-0.1-1.6h-7c-0.3,0-0.5-0.2-0.5-0.5V6.5L5.5,10.5z"/>
	</g>
	<g>
		<path style="fill:#005A8F;" d="M10.5,21C4.7,21,0,16.3,0,10.5c0-2.8,1.1-5.4,3.1-7.4S7.7,0,10.5,0s5.4,1.1,7.4,3.1
			c1.4,1.5,2.4,3.3,2.8,5.3C20.9,9,21,9.8,21,10.5s-0.1,1.5-0.2,2.2c-0.4,2-1.4,3.8-2.8,5.3C15.9,19.9,13.3,21,10.5,21z M10.5,1
			C8,1,5.6,2,3.8,3.8S1,8,1,10.5c0,5.2,4.3,9.5,9.5,9.5c2.5,0,4.9-1,6.7-2.8c1.3-1.3,2.2-3,2.6-4.8c0.1-0.6,0.2-1.3,0.2-2
			s-0.1-1.3-0.2-2c-0.4-1.8-1.3-3.4-2.6-4.8C15.4,2,13,1,10.5,1z"/>
	</g>
</g>
</symbol><symbol id="icon_arrow_thin" viewBox="0 0 12.2 9">
<g>
	<path d="M12.1,4.7c0-0.1,0.1-0.1,0.1-0.2s0-0.2-0.1-0.2c0,0,0,0,0-0.1L12,4.1l0,0l-7-4C4.7-0.1,4.4,0,4.3,0.3
		C4.1,0.5,4.2,0.8,4.4,0.9L9.8,4H0.5C0.2,4,0,4.2,0,4.5S0.2,5,0.5,5h9.3L4.4,8.1C4.2,8.2,4.1,8.5,4.3,8.7C4.3,8.9,4.5,9,4.7,9
		c0.1,0,0.2,0,0.2-0.1l7-4l0,0C12,4.9,12,4.8,12.1,4.7C12.1,4.8,12.1,4.7,12.1,4.7z"/>
</g>
</symbol><symbol id="icon_arrow_thin_circle" viewBox="0 0 21 21">
<g>
	<path d="M16.5,10.7c0-0.1,0.1-0.1,0.1-0.2s0-0.2-0.1-0.2c0,0,0,0,0-0.1l-0.1-0.1l0,0l-7-4C9.1,5.9,8.8,6,8.7,6.3
		C8.5,6.5,8.6,6.8,8.9,6.9l5.3,3.1H4.9c-0.3,0-0.5,0.2-0.5,0.5S4.6,11,4.9,11h9.3l-5.3,3.1c-0.2,0.1-0.3,0.4-0.2,0.7
		C8.8,14.9,8.9,15,9.1,15c0.1,0,0.2,0,0.2-0.1l7-4l0,0C16.4,10.9,16.5,10.8,16.5,10.7C16.5,10.8,16.5,10.7,16.5,10.7z"/>
	<g>
		<path d="M10.5,21C4.7,21,0,16.3,0,10.5S4.7,0,10.5,0S21,4.7,21,10.5S16.3,21,10.5,21z M10.5,1C5.3,1,1,5.3,1,10.5S5.3,20,10.5,20
			s9.5-4.3,9.5-9.5S15.7,1,10.5,1z"/>
	</g>
</g>
</symbol><symbol id="icon_big_box" viewBox="0 0 48 48">
<path style="fill:#E50031;" d="M28.1,14.8h-8.2c-0.3,0-0.5-0.2-0.5-0.5s0.2-0.5,0.5-0.5h8.2c0.3,0,0.5,0.2,0.5,0.5
	S28.3,14.8,28.1,14.8z"/>
<g>
	<path style="fill:#005A8F;" d="M40.4,26.6L40.4,26.6L40.4,26.6L40.4,26.6l-2.6-6.9c-0.1-0.2-0.3-0.3-0.5-0.3h-5.6V9
		c0-0.3-0.2-0.5-0.5-0.5H16.8c-0.3,0-0.5,0.2-0.5,0.5v10.4h-5.6c-0.2,0-0.4,0.1-0.5,0.3l-2.6,6.9l0,0v0.1V39c0,0.3,0.2,0.5,0.5,0.5
		H40c0.3,0,0.5-0.2,0.5-0.5V26.8C40.4,26.7,40.4,26.7,40.4,26.6z M17.3,19.9V9.5h13.3v10.4v2.9H17.3V19.9z M11,20.4h5.3v2.5h-1.8
		c-0.3,0-0.5,0.2-0.5,0.5s0.2,0.5,0.5,0.5h19c0.3,0,0.5-0.2,0.5-0.5s-0.2-0.5-0.5-0.5h-1.8v-2.5H37l2.3,5.9H8.8L11,20.4z M39.4,38.5
		H8.6V27.3h30.9L39.4,38.5L39.4,38.5z"/>
	<path style="fill:#005A8F;" d="M19.8,12.3h6c0.3,0,0.5-0.2,0.5-0.5s-0.2-0.5-0.5-0.5h-6c-0.3,0-0.5,0.2-0.5,0.5
		S19.5,12.3,19.8,12.3z"/>
	<path style="fill:#005A8F;" d="M26.7,16.3h-6.9c-0.3,0-0.5,0.2-0.5,0.5s0.2,0.5,0.5,0.5h6.9c0.3,0,0.5-0.2,0.5-0.5
		S27,16.3,26.7,16.3z"/>
	<path style="fill:#005A8F;" d="M25.8,18.8h-6c-0.3,0-0.5,0.2-0.5,0.5s0.2,0.5,0.5,0.5h6c0.3,0,0.5-0.2,0.5-0.5S26.1,18.8,25.8,18.8
		z"/>
</g>
</symbol><symbol id="icon_big_box_black" viewBox="0 0 48 48">
<path d="M28.1,14.8h-8.2c-0.3,0-0.5-0.2-0.5-0.5s0.2-0.5,0.5-0.5h8.2c0.3,0,0.5,0.2,0.5,0.5S28.3,14.8,28.1,14.8z"/>
<g>
	<path d="M40.4,26.6L40.4,26.6L40.4,26.6L40.4,26.6l-2.6-6.9c-0.1-0.2-0.3-0.3-0.5-0.3h-5.6V9c0-0.3-0.2-0.5-0.5-0.5H16.8
		c-0.3,0-0.5,0.2-0.5,0.5v10.4h-5.6c-0.2,0-0.4,0.1-0.5,0.3l-2.6,6.9l0,0v0.1V39c0,0.3,0.2,0.5,0.5,0.5H40c0.3,0,0.5-0.2,0.5-0.5
		V26.8C40.4,26.7,40.4,26.7,40.4,26.6z M17.3,19.9V9.5h13.3v10.4v2.9H17.3V19.9z M11,20.4h5.3v2.5h-1.8c-0.3,0-0.5,0.2-0.5,0.5
		s0.2,0.5,0.5,0.5h19c0.3,0,0.5-0.2,0.5-0.5s-0.2-0.5-0.5-0.5h-1.8v-2.5H37l2.3,5.9H8.8L11,20.4z M39.4,38.5H8.6V27.3h30.9
		L39.4,38.5L39.4,38.5z"/>
	<path d="M19.8,12.3h6c0.3,0,0.5-0.2,0.5-0.5s-0.2-0.5-0.5-0.5h-6c-0.3,0-0.5,0.2-0.5,0.5S19.5,12.3,19.8,12.3z"/>
	<path d="M26.7,16.3h-6.9c-0.3,0-0.5,0.2-0.5,0.5s0.2,0.5,0.5,0.5h6.9c0.3,0,0.5-0.2,0.5-0.5S27,16.3,26.7,16.3z"/>
	<path d="M25.8,18.8h-6c-0.3,0-0.5,0.2-0.5,0.5s0.2,0.5,0.5,0.5h6c0.3,0,0.5-0.2,0.5-0.5S26.1,18.8,25.8,18.8z"/>
</g>
</symbol><symbol id="icon_big_chat" viewBox="0 0 48 48">
<g>
	<g>
		<path style="fill:#004B83;" d="M16.6,31.8c1.9-1,3.2-3,3.2-5.3c0-3.3-2.7-6-6-6s-6,2.7-6,6c0,2.3,1.3,4.3,3.2,5.3
			c-3.8,0.8-6.1,3.5-6.1,7.1v3.7c0,0.3,0.2,0.5,0.5,0.5h16.8c0.3,0,0.5-0.2,0.5-0.5v-3.7C22.7,35.2,20.4,32.6,16.6,31.8z M8.8,26.4
			c0-2.8,2.3-5,5-5s5,2.3,5,5c0,2.8-2.3,5-5,5S8.8,29.2,8.8,26.4z M21.7,42.1H5.9v-3.2c0-4.7,4.1-6.4,7.9-6.4s7.9,1.7,7.9,6.4V42.1z
			"/>
		<path style="fill:#004B83;" d="M38,33.3c1.6-0.9,2.7-2.6,2.7-4.5c0-2.9-2.4-5.3-5.3-5.3s-5.3,2.4-5.3,5.3c0,2,1.1,3.6,2.7,4.5
			c-3.2,0.8-5.1,3-5.1,6.1v3.2c0,0.3,0.2,0.5,0.5,0.5h14.4c0.3,0,0.5-0.2,0.5-0.5v-3.2C43.1,36.3,41.1,34,38,33.3z M31.1,28.7
			c0-2.3,1.9-4.3,4.3-4.3s4.3,1.9,4.3,4.3s-2,4.3-4.3,4.3S31.1,31.1,31.1,28.7z M42.1,42.1H28.7v-2.7c0-4,3.5-5.4,6.7-5.4
			s6.7,1.4,6.7,5.4C42.1,39.4,42.1,42.1,42.1,42.1z"/>
	</g>
	<g>
		<path style="fill:#004B83;" d="M22,23c-0.1,0-0.1,0-0.2,0c-0.2-0.1-0.3-0.3-0.3-0.5v-4.4c-2.4-1.1-3.9-3.6-3.9-6.2
			c0-3.8,3.1-6.9,6.9-6.9h5.9c3.8,0,6.9,3.1,6.9,6.9s-3.1,6.9-6.9,6.9h-3.9l-4.1,4.1C22.2,22.9,22.1,23,22,23z M24.5,5.9
			c-3.3,0-5.9,2.7-5.9,5.9c0,2.4,1.4,4.5,3.6,5.5c0.2,0.1,0.3,0.3,0.3,0.5v3.5l3.4-3.4c0.1-0.1,0.2-0.1,0.4-0.1h4.2
			c3.3,0,5.9-2.7,5.9-5.9S33.7,6,30.5,6L24.5,5.9L24.5,5.9z"/>
	</g>
	<g>
		<g>
			<path style="fill:#E50031;" d="M23.3,10.9c-0.6,0-1,0.4-1,1s0.4,1,1,1s1-0.4,1-1C24.3,11.3,23.9,10.9,23.3,10.9L23.3,10.9z"/>
		</g>
		<g>
			<path style="fill:#E50031;" d="M27.4,10.9c-0.6,0-1,0.4-1,1s0.4,1,1,1s1-0.4,1-1C28.4,11.3,28,10.9,27.4,10.9L27.4,10.9z"/>
		</g>
		<g>
			<path style="fill:#E50031;" d="M31.5,10.9c-0.6,0-1,0.4-1,1s0.4,1,1,1c0.6,0,1-0.4,1-1C32.5,11.3,32.1,10.9,31.5,10.9L31.5,10.9z
				"/>
		</g>
	</g>
</g>
</symbol><symbol id="icon_big_hand" viewBox="0 0 48 48">
<path style="fill:#005A8F;" d="M34.1,14.3c0-1.3-1-2.3-2.3-2.3c-0.5,0-1,0.2-1.4,0.5c-0.3-1-1.2-1.7-2.2-1.7c-0.5,0-0.9,0.2-1.3,0.4
	v-0.3c0-1.3-1-2.3-2.3-2.3s-2.3,1-2.3,2.3v0.3c-0.4-0.3-0.8-0.4-1.3-0.4c-1.3,0-2.3,1-2.3,2.3v8.7c-0.1-0.6-0.5-1.2-1.1-1.5
	s-1.2-0.4-1.9-0.2c-1.1,0.3-1.8,1.6-1.6,2.8l1.5,7.8c0.4,1.9,2,3.3,3.9,3.4v0.1V39c0,0.3,0.2,0.5,0.5,0.5h12.9
	c0.3,0,0.5-0.2,0.5-0.5v-4.8c0-0.1,0-0.2-0.1-0.3c0.6-0.5,1-1.3,1-2.2v-9.1l0,0v-8.3H34.1z M31.1,33.7h-9.6c-0.5,0-0.9-0.2-1.3-0.5
	c-0.4-0.4-0.7-0.9-0.7-1.5v-8.6h13.6v8.6C33.1,32.8,32.2,33.7,31.1,33.7z M31.7,12.9c0.7,0,1.3,0.6,1.3,1.3V22h-2.6v-7.8
	C30.4,13.5,31,12.9,31.7,12.9z M28.1,11.8c0.7,0,1.3,0.6,1.3,1.3v1.2v7.8h-2.6v-9C26.8,12.3,27.4,11.8,28.1,11.8z M23.1,10.8
	c0-0.7,0.6-1.3,1.3-1.3c0.7,0,1.3,0.6,1.3,1.3v2.3v9h-2.6v-9C23.1,13.1,23.1,10.8,23.1,10.8z M19.5,13.1c0-0.7,0.6-1.3,1.3-1.3
	c0.7,0,1.3,0.6,1.3,1.3v9h-2.6C19.5,22.1,19.5,13.1,19.5,13.1z M16.5,30.5L15,22.7c-0.1-0.7,0.3-1.4,0.9-1.6c0.1,0,0.3-0.1,0.4-0.1
	c0.2,0,0.5,0.1,0.7,0.2c0.3,0.2,0.6,0.5,0.6,0.9l1,4.9v4.7c0,0.2,0,0.4,0.1,0.7c0,0.1,0,0.1,0.1,0.2c0,0.2,0.1,0.3,0.2,0.4l0,0
	C17.6,32.7,16.7,31.7,16.5,30.5z M32.2,34.7v3.8H20.4v-3.8h1.1l0,0h9.6l0,0H32.2z"/>
<path style="fill:#E50031;" d="M30.1,35.8c-0.5,0-0.8,0.4-0.8,0.8s0.4,0.8,0.8,0.8c0.5,0,0.8-0.4,0.8-0.8S30.6,35.8,30.1,35.8
	L30.1,35.8z"/>
</symbol><symbol id="icon_big_hand_black" viewBox="0 0 48 48">
<path d="M34.1,14.3c0-1.3-1-2.3-2.3-2.3c-0.5,0-1,0.2-1.4,0.5c-0.3-1-1.2-1.7-2.2-1.7c-0.5,0-0.9,0.2-1.3,0.4v-0.3
	c0-1.3-1-2.3-2.3-2.3s-2.3,1-2.3,2.3v0.3c-0.4-0.3-0.8-0.4-1.3-0.4c-1.3,0-2.3,1-2.3,2.3v8.7c-0.1-0.6-0.5-1.2-1.1-1.5
	s-1.2-0.4-1.9-0.2c-1.1,0.3-1.8,1.6-1.6,2.8l1.5,7.8c0.4,1.9,2,3.3,3.9,3.4v0.1V39c0,0.3,0.2,0.5,0.5,0.5h12.9
	c0.3,0,0.5-0.2,0.5-0.5v-4.8c0-0.1,0-0.2-0.1-0.3c0.6-0.5,1-1.3,1-2.2v-9.1l0,0v-8.3H34.1z M31.1,33.7h-9.6c-0.5,0-0.9-0.2-1.3-0.5
	c-0.4-0.4-0.7-0.9-0.7-1.5v-8.6h13.6v8.6C33.1,32.8,32.2,33.7,31.1,33.7z M31.7,12.9c0.7,0,1.3,0.6,1.3,1.3V22h-2.6v-7.8
	C30.4,13.5,31,12.9,31.7,12.9z M28.1,11.8c0.7,0,1.3,0.6,1.3,1.3v1.2v7.8h-2.6v-9C26.8,12.3,27.4,11.8,28.1,11.8z M23.1,10.8
	c0-0.7,0.6-1.3,1.3-1.3c0.7,0,1.3,0.6,1.3,1.3v2.3v9h-2.6v-9C23.1,13.1,23.1,10.8,23.1,10.8z M19.5,13.1c0-0.7,0.6-1.3,1.3-1.3
	c0.7,0,1.3,0.6,1.3,1.3v9h-2.6C19.5,22.1,19.5,13.1,19.5,13.1z M16.5,30.5L15,22.7c-0.1-0.7,0.3-1.4,0.9-1.6c0.1,0,0.3-0.1,0.4-0.1
	c0.2,0,0.5,0.1,0.7,0.2c0.3,0.2,0.6,0.5,0.6,0.9l1,4.9v4.7c0,0.2,0,0.4,0.1,0.7c0,0.1,0,0.1,0.1,0.2c0,0.2,0.1,0.3,0.2,0.4l0,0
	C17.6,32.7,16.7,31.7,16.5,30.5z M32.2,34.7v3.8H20.4v-3.8h1.1l0,0h9.6l0,0H32.2z"/>
<path d="M30.1,35.8c-0.5,0-0.8,0.4-0.8,0.8s0.4,0.8,0.8,0.8c0.5,0,0.8-0.4,0.8-0.8S30.6,35.8,30.1,35.8L30.1,35.8z"/>
</symbol><symbol id="icon_big_people" viewBox="0 0 48 48">
<path style="fill:#E50031;" d="M13.6,31.3c-0.6,0-1.3-0.1-1.9-0.2c-0.3-0.1-0.4-0.3-0.4-0.6c0.1-0.3,0.3-0.5,0.6-0.4
	c1.2,0.2,2.3,0.2,3.5,0c0.3-0.1,0.5,0.1,0.6,0.4s-0.1,0.5-0.4,0.6C14.9,31.2,14.2,31.3,13.6,31.3z"/>
<g>
	<path style="fill:#005A8F;" d="M47.5,15.8c0-0.1,0-0.1,0-0.2c0-0.2-0.8-5.1-7.1-7.9c-2.5-1.1-5.2-1.2-7.5-0.3
		c-1.3,0.5-2.2,1.3-2.8,2.3c-0.3-0.3-0.6-0.8-0.4-1.6c0.1-0.3-0.1-0.5-0.3-0.6c-0.3-0.1-0.5,0.1-0.6,0.3c-0.2,0.6-0.1,1.1,0,1.6
		c-0.4,0-0.9,0-1.3,0.2c-0.3,0.1-0.4,0.4-0.3,0.6c0.1,0.3,0.4,0.4,0.6,0.3c0.5-0.2,0.9-0.2,1.3-0.1c-0.7,0.5-1.4,1.1-2,1.7
		c-0.2,0.2-0.3,0.4-0.5,0.6c-0.2,0.2-0.3,0.4-0.4,0.6c-0.1,0.2-0.3,0.4-0.4,0.6c-0.1,0.2-0.2,0.4-0.4,0.7c-1.5-4-4.4-6.9-8.1-8.1
		l0,0l0,0c-0.3-0.1-0.5-0.2-0.8-0.2c-1-0.2-2-0.4-3-0.4c-7.6,0.1-13,6.3-13,15.3v0.5v12.5c0,0.3,0.2,0.5,0.5,0.5
		c2,0.2,3.8,0.3,5.4,0.4l-2.3,1.1c-0.2,0.1-0.4,0.4-0.3,0.6c0,0,0.4,1,1.4,2c0,0,0,0,0.1,0c0,0,0.1,0,0.1,0.1h0.1c0,0,0,0,0.1,0
		s0.1,0,0.2,0l1.4-0.6l-0.5,1.2c0,0.1,0,0.1,0,0.2l0,0l0,0v0.1c0,0,0,0.1,0.1,0.1l0,0L6.9,40l0,0l0,0c0,0,0,0,0.1,0
		c1.8,1.1,4,1.7,6.5,1.7s4.7-0.6,6.5-1.7c0,0,0,0,0.1,0l0,0l0,0l0.1-0.1c0,0,0,0,0-0.1v-0.1v-0.1c0,0,0,0,0-0.1l0,0v-0.1v-0.1
		l-0.5-1.2l1.4,0.6l0,0c0.1,0,0.1,0,0.2,0c0,0,0,0,0.1,0h0.1c0,0,0.1,0,0.1-0.1l0,0c1-1.1,1.4-2,1.4-2c0.1-0.2,0-0.5-0.3-0.6
		l-2.3-1.1c1.6-0.1,3.3-0.3,5.4-0.5c0.3,0,0.5-0.2,0.5-0.5v-3.7c1.2,1.8,2.6,2.9,3.8,3.7L26,36.2c-0.2,0.1-0.4,0.4-0.3,0.6
		c0,0,0.4,1,1.4,2l0,0l0.1,0.1h0.1l0,0c0.1,0,0.1,0,0.2,0l0,0l1.4-0.6l-0.5,1.2c0,0.1,0,0.1,0,0.2l0,0l0,0c0,0,0,0,0,0.1v0.1
		c0,0,0,0.1,0.1,0.1l0,0l0.1,0.1l0,0l0,0h0.1c1.8,1.1,4,1.7,6.5,1.7l0,0l0,0l0,0l0,0c2.5,0,4.7-0.6,6.5-1.7c0,0,0,0,0.1,0l0,0l0,0
		c0,0,0.1,0,0.1-0.1c0,0,0,0,0.1-0.1c0,0,0,0,0-0.1v-0.1l0,0l0,0c0-0.1,0-0.1,0-0.2l-0.5-1.2l1.4,0.6c0.1,0,0.1,0,0.2,0
		c0,0,0,0,0.1,0s0.1,0,0.1,0s0.1,0,0.1-0.1l0,0c1-1.1,1.4-2,1.4-2c0.1-0.2,0-0.5-0.3-0.6l-4.4-2.1c2.3-1.4,6-4.8,6.3-12
		c0-0.3,0-0.6,0-1c0-1.3-0.1-2.6-0.4-3.8C46.9,16.9,47.3,16.4,47.5,15.8z M32.2,15.9c0.1,0.1,0.3,0.2,0.5,0.4
		c0.1,0.1,0.2,0.2,0.3,0.3c0.2,0.1,0.3,0.2,0.5,0.3c0.1,0.1,0.2,0.2,0.4,0.2c0.2,0.1,0.4,0.2,0.6,0.3c0.1,0.1,0.2,0.1,0.4,0.2
		s0.5,0.2,0.7,0.3c0.1,0,0.2,0.1,0.3,0.1c0.4,0.1,0.7,0.3,1.1,0.4c0.5,0.2,1,0.3,1.5,0.4c0.1,0,0.1,0,0.2,0l-0.1,0.1
		c-0.1,0-0.1,0.1-0.2,0.1c-0.1,0.1-0.2,0.2-0.4,0.3c-0.1,0.1-0.1,0.1-0.2,0.2c-0.1,0.1-0.2,0.2-0.3,0.4L37.4,20
		c-0.1,0.2-0.2,0.4-0.3,0.6c-0.1-0.1-0.1-0.1-0.2-0.1c-0.1,0-0.1-0.1-0.1-0.1c-0.1,0-0.1-0.1-0.2-0.1c-0.1,0-0.1-0.1-0.2-0.1
		c-0.1,0-0.2-0.1-0.3-0.1s-0.1,0-0.2,0c-0.1,0-0.3,0-0.4,0c-0.2,0-0.3,0-0.5,0c-0.1,0-0.1,0-0.2,0.1c-0.1,0-0.2,0-0.2,0.1
		c-0.1,0-0.1,0.1-0.2,0.1c-0.1,0-0.1,0.1-0.2,0.1c-0.1,0.1-0.1,0.1-0.2,0.2l-0.1,0.1c-0.1-0.2-0.2-0.4-0.3-0.5
		c0-0.1-0.1-0.1-0.1-0.1c-0.1-0.1-0.2-0.3-0.3-0.4l-0.1-0.1c-0.1-0.1-0.3-0.3-0.5-0.4c0,0,0,0-0.1,0c-0.2-0.1-0.4-0.2-0.6-0.3
		c-0.1,0-0.1,0-0.2-0.1c-0.2-0.1-0.3-0.1-0.5-0.1c-0.1,0-0.1,0-0.2,0c-0.2,0-0.5-0.1-0.7-0.1c-0.3,0-0.5,0-0.8,0.1
		c-0.1,0-0.2,0-0.2,0.1c-0.2,0-0.3,0.1-0.5,0.1c-0.1,0-0.2,0.1-0.3,0.1c-0.1,0.1-0.3,0.1-0.4,0.2s-0.2,0.1-0.3,0.2
		c-0.1,0.1-0.2,0.2-0.3,0.3c-0.1,0.1-0.1,0.1-0.2,0.2s-0.2,0.2-0.3,0.3c-0.1,0.1-0.1,0.2-0.2,0.3c-0.1,0.1-0.1,0.2-0.2,0.3
		c0,0.1-0.1,0.2-0.1,0.3c0,0.1-0.1,0.3-0.1,0.4s-0.1,0.2-0.1,0.3V22h-1.1c0-0.1,0-0.3,0-0.4c0-0.4,0-0.7,0-1c0-0.1,0-0.2,0-0.3
		c0-0.2,0-0.5,0.1-0.7c0-0.1,0-0.2,0.1-0.4c0-0.2,0.1-0.4,0.1-0.6c0-0.1,0.1-0.3,0.1-0.4s0.1-0.3,0.1-0.4c0.1,0,0.1,0,0.2-0.1
		c1.3-0.4,2.6-1.1,3.7-2c0.3-0.2,0.5-0.5,0.8-0.7c0.1-0.1,0.1-0.1,0.2-0.2c0.1-0.1,0.1-0.1,0.2-0.2c0,0,0,0,0.1,0.1s0.1,0.2,0.2,0.3
		c0.1,0.2,0.2,0.3,0.4,0.4c0.1,0.1,0.2,0.2,0.3,0.3c0.1,0.1,0.3,0.3,0.4,0.4C32,15.7,32.1,15.8,32.2,15.9z M44.1,18.7
		c0.4-0.1,0.7-0.2,1.1-0.4c0,0,0.1,0,0.1-0.1c0.1-0.1,0.2-0.1,0.3-0.2c0.2,1,0.3,2,0.3,3.1c0,0.1,0,0.3,0,0.4h-1.2v-0.1
		c0-0.2-0.1-0.3-0.1-0.5c0-0.1-0.1-0.2-0.1-0.3c-0.1-0.2-0.2-0.3-0.2-0.4S44.2,20,44.2,20c-0.1-0.2-0.3-0.3-0.4-0.5l-0.1-0.1
		c-0.2-0.2-0.4-0.3-0.6-0.5l0,0C43.4,18.8,43.8,18.8,44.1,18.7C44,18.7,44,18.7,44.1,18.7z M43.7,22.1c0,1.5-1.3,2.8-3,2.8
		s-3-1.2-3-2.8s1.4-2.8,3-2.8C42.4,19.3,43.7,20.6,43.7,22.1z M33.2,22.1c0,1.5-1.4,2.8-3,2.8c-1.7,0-3-1.2-3-2.8s1.3-2.8,3-2.8
		C31.9,19.3,33.2,20.6,33.2,22.1z M26.1,15.8c0.2-0.5,0.4-0.9,0.7-1.3c0.1-0.2,0.2-0.4,0.4-0.6c0.1-0.2,0.2-0.4,0.4-0.6
		c0.1-0.2,0.3-0.4,0.5-0.5c0.5-0.6,1.1-1.1,1.8-1.6c0,0.2,0,0.4,0,0.6c0,0.1,0,0.1,0,0.2c0,0.2,0.1,0.5,0.2,0.7l0,0
		c0.1,0.2,0.1,0.3,0.2,0.5c-0.1,0.1-0.2,0.3-0.3,0.4c-0.1,0.1-0.1,0.2-0.2,0.2c-0.2,0.2-0.5,0.5-0.7,0.7s-0.5,0.4-0.7,0.6
		c-0.1,0.1-0.2,0.1-0.2,0.2c-0.2,0.1-0.4,0.2-0.5,0.3s-0.2,0.1-0.3,0.2c-0.2,0.1-0.3,0.2-0.5,0.2c-0.1,0-0.2,0.1-0.3,0.1
		c-0.1,0-0.2,0.1-0.3,0.1c0-0.1,0.1-0.2,0.1-0.2L26.1,15.8z M24.9,16L24.9,16c-0.1,0.3-0.2,0.5-0.2,0.8l0,0l0,0l0,0
		c-0.4,1.4-0.6,2.8-0.6,4.4c0,0.3,0,0.7,0,1c0,0.5,0.1,1.1,0.1,1.6c0,0.2,0,0.3,0.1,0.5c0,0.2,0.1,0.4,0.1,0.6h-0.1
		c-0.3,0-0.6-0.1-0.9-0.2l0,0c-0.3-0.1-0.6-0.2-0.9-0.3c-0.1,0-0.2-0.1-0.2-0.1c-0.1,0-0.2-0.1-0.2-0.1l0,0c0.1-0.1,0.1-0.1,0.1-0.2
		c0,0,0-0.1,0.1-0.1c0-0.1,0.1-0.2,0.1-0.4c0-0.1,0-0.3-0.1-0.4c0,0,0-0.1-0.1-0.1c0-0.1-0.1-0.2-0.1-0.2L22,22.7
		c-0.1-0.1-0.1-0.1-0.2-0.2c-0.1,0-0.1-0.1-0.2-0.1c-0.1-0.1-0.2-0.1-0.3-0.1c-0.1,0-0.1-0.1-0.2-0.1s-0.2-0.1-0.3-0.1
		c-0.1,0-0.2,0-0.2-0.1c-0.1,0-0.2-0.1-0.3-0.1c-0.1,0-0.2,0-0.3,0c-0.1,0-0.2,0-0.4-0.1c-0.1,0-0.2,0-0.3,0c-0.1,0-0.1,0-0.2,0
		c-0.2-0.2-0.3-0.4-0.4-0.6s-0.3-0.3-0.4-0.5c-0.2-0.3-0.3-0.5-0.5-0.8c-0.1-0.2-0.2-0.4-0.3-0.5c-0.2-0.3-0.3-0.6-0.4-1
		c-0.1-0.2-0.1-0.3-0.2-0.5c-0.2-0.5-0.4-1-0.5-1.5l-0.1-0.3c0.1-0.3,0.3-0.5,0.4-0.8c0.1-0.2,0.2-0.4,0.3-0.6
		c0.1-0.3,0.2-0.6,0.3-0.9c0.1-0.2,0.2-0.4,0.2-0.6c0.1-0.3,0.2-0.6,0.2-1c0-0.2,0.1-0.4,0.1-0.5c0.1-0.5,0.1-0.9,0.2-1.4v-0.1l0,0
		c0-0.3,0-0.6,0-1c0-0.1,0-0.2,0-0.3c0-0.2,0-0.5-0.1-0.7c0-0.1,0-0.1,0-0.2C21.3,9.1,23.8,12.1,24.9,16z M22.4,26.5
		c-0.1,0.2-0.1,0.4-0.2,0.6s-0.1,0.4-0.2,0.5c-0.1,0.2-0.1,0.4-0.2,0.5c-0.1,0.2-0.1,0.3-0.2,0.5s-0.2,0.3-0.2,0.5
		c-0.1,0.1-0.1,0.3-0.2,0.4c-0.1,0.2-0.2,0.3-0.3,0.4c-0.1,0.1-0.2,0.3-0.2,0.4c-0.1,0.1-0.2,0.3-0.3,0.4c-0.1,0.1-0.2,0.2-0.2,0.3
		c-0.1,0.1-0.2,0.2-0.3,0.4c-0.1,0.1-0.2,0.2-0.2,0.3c-0.1,0.1-0.2,0.2-0.3,0.3c-0.1,0.1-0.2,0.2-0.3,0.2c-0.1,0.1-0.2,0.2-0.3,0.3
		c-0.1,0.1-0.2,0.1-0.2,0.2c-0.1,0.1-0.2,0.2-0.3,0.2c-0.1,0.1-0.2,0.1-0.2,0.2c-0.1,0.1-0.2,0.1-0.3,0.2c-0.1,0.1-0.2,0.1-0.2,0.2
		c-0.1,0.1-0.2,0.1-0.3,0.2c-0.1,0-0.2,0.1-0.2,0.1c-0.1,0-0.2,0.1-0.3,0.1c-0.1,0-0.1,0.1-0.2,0.1s-0.2,0.1-0.2,0.1
		c-0.1,0-0.1,0.1-0.2,0.1s-0.1,0.1-0.2,0.1c-0.1,0-0.1,0-0.2,0.1c-0.1,0-0.2,0.1-0.3,0.1h-0.1c-1.2,0.4-2.2,0.3-3.3,0
		c-0.2-0.1-0.4-0.1-0.6-0.2c-0.1,0-0.1-0.1-0.2-0.1c-0.1-0.1-0.3-0.1-0.4-0.2c-0.1,0-0.2-0.1-0.3-0.1c-0.1-0.1-0.3-0.1-0.4-0.2
		c-0.1-0.1-0.2-0.1-0.3-0.2c-0.1-0.1-0.2-0.2-0.4-0.2C9.2,33.2,9.1,33.1,9,33s-0.2-0.2-0.3-0.3s-0.2-0.2-0.3-0.2
		c-0.1-0.1-0.2-0.2-0.3-0.3c-0.1,0-0.2-0.1-0.3-0.2c-0.1-0.1-0.2-0.2-0.3-0.3c-0.1-0.1-0.2-0.2-0.3-0.3C7.1,31.2,7,31.1,6.9,31
		s-0.2-0.2-0.2-0.3c-0.1-0.1-0.2-0.3-0.3-0.4c-0.1-0.1-0.2-0.2-0.2-0.4c-0.1-0.1-0.2-0.3-0.3-0.4c-0.1-0.1-0.1-0.3-0.2-0.4
		c-0.1-0.2-0.2-0.3-0.2-0.5c-0.1-0.1-0.1-0.3-0.2-0.4c-0.1-0.2-0.1-0.3-0.2-0.5C5,27.5,5,27.3,4.9,27.2c-0.1-0.2-0.1-0.4-0.2-0.6
		c0-0.2-0.1-0.3-0.1-0.5c-0.1-0.2-0.1-0.4-0.1-0.6S4.4,25.1,4.4,25c0-0.2-0.1-0.4-0.1-0.6S4.2,24,4.2,23.8c0-0.1,0-0.2,0-0.4l0,0
		c0.1,0,0.2,0,0.3,0c0.1,0,0.2,0,0.4,0c0.1,1.1,1.9,1.7,3.6,1.7c1.6,0,3.2-0.5,3.6-1.4c0-0.1,0.1-0.2,0.1-0.2c0-0.1,0.5-0.4,1.4-0.4
		s1.4,0.3,1.4,0.4s0.1,0.2,0.1,0.3c0.4,0.9,2,1.4,3.5,1.4c0.3,0,0.5,0,0.8,0c0.1,0,0.2,0,0.3,0c0.2,0,0.3,0,0.5-0.1
		c0.1,0,0.2,0,0.3-0.1c0.1,0,0.2-0.1,0.4-0.1c0.1,0,0.2-0.1,0.3-0.1c0.1,0,0.1,0,0.2-0.1c0.3,0.2,0.5,0.3,0.8,0.4
		c0.1,0,0.1,0,0.2,0.1c0.2,0.1,0.4,0.2,0.6,0.2c0,0.1-0.1,0.3-0.1,0.4C22.5,26.1,22.5,26.3,22.4,26.5z M16.9,35.9
		c0,0.2-0.1,0.4-0.1,0.5s0,0.2-0.1,0.3c0,0.1-0.1,0.3-0.1,0.4c0,0.1-0.1,0.2-0.1,0.3s-0.1,0.2-0.1,0.4c0,0.1-0.1,0.2-0.1,0.2
		c-0.1,0.1-0.1,0.2-0.2,0.3c0,0.1-0.1,0.1-0.1,0.2c-0.1,0.1-0.1,0.2-0.2,0.3l-0.1,0.1c-0.1,0.1-0.2,0.3-0.3,0.4l0,0
		c-0.1,0.1-0.2,0.3-0.3,0.4L15,39.8c-0.1,0.1-0.1,0.1-0.2,0.2l-0.1,0.1c-0.1,0.1-0.1,0.1-0.2,0.2l-0.1,0.1c-0.1,0-0.1,0.1-0.2,0.1
		l-0.1,0.1c-0.1,0-0.1,0.1-0.2,0.1c0,0-0.1,0-0.1,0.1c-0.1,0-0.1,0.1-0.1,0.1s0,0-0.1,0S13.5,41,13.4,41h-0.1c0,0,0,0-0.1,0
		s-0.1-0.1-0.2-0.1c0,0,0,0-0.1,0s-0.1-0.1-0.2-0.1l-0.1-0.1c-0.1,0-0.1-0.1-0.2-0.1l-0.1-0.1c-0.1,0-0.1-0.1-0.2-0.2L12,40.2
		c-0.1-0.1-0.1-0.1-0.2-0.2l-0.1-0.1c-0.1-0.1-0.2-0.2-0.2-0.3c0,0,0-0.1-0.1-0.1c-0.1-0.1-0.2-0.3-0.3-0.4c0,0,0-0.1-0.1-0.1
		c-0.1-0.1-0.1-0.2-0.2-0.4c0-0.1-0.1-0.1-0.1-0.2c-0.1-0.1-0.1-0.2-0.2-0.3c0-0.1-0.1-0.1-0.1-0.2c0-0.1-0.1-0.2-0.1-0.4
		c0-0.1-0.1-0.2-0.1-0.2c0-0.1-0.1-0.3-0.1-0.4c0-0.1,0-0.2-0.1-0.3c0-0.2-0.1-0.4-0.1-0.6c0-0.1,0-0.1,0-0.2c0-0.2-0.1-0.5-0.1-0.8
		l0,0c0.1,0.1,0.3,0.1,0.4,0.2c0.1,0,0.2,0.1,0.3,0.1c0.2,0.1,0.5,0.2,0.7,0.2c0.3,0.1,0.7,0.2,1,0.2c0.1,0,0.3,0,0.4,0
		c0.2,0,0.3,0,0.5,0c0,0,0,0,0.1,0c0.3,0,0.5,0,0.8-0.1c0,0,0,0,0.1,0c0.3,0,0.6-0.1,0.9-0.2l0,0h0.1c0.1,0,0.2-0.1,0.3-0.1h0.1
		c0.1,0,0.2-0.1,0.2-0.1c0.1,0,0.1,0,0.2-0.1c0.1,0,0.2-0.1,0.3-0.1s0.1-0.1,0.2-0.1s0.1,0,0.2-0.1c0,0.3,0,0.5-0.1,0.8
		C16.9,35.7,16.9,35.8,16.9,35.9z M6.5,23.3c0.2,0,0.4-0.1,0.6-0.1c0.1,0,0.2,0,0.3-0.1C7.7,23,8,22.9,8.3,22.8l0,0
		c0.3-0.1,0.5-0.2,0.8-0.3c1.3,0.1,2.1,0.6,2.1,0.8c0,0.2-0.9,0.8-2.6,0.8c-1.6,0-2.5-0.5-2.6-0.8c0.1,0,0.2,0,0.3-0.1
		C6.3,23.3,6.4,23.3,6.5,23.3z M15.5,16.9c0.1,0.3,0.2,0.5,0.3,0.7c0,0.1,0.1,0.2,0.1,0.4c0.2,0.5,0.4,1,0.6,1.4
		c0,0.1,0.1,0.2,0.2,0.3c0.2,0.4,0.4,0.7,0.6,1.1c0.1,0.1,0.2,0.3,0.3,0.4c0.1,0.1,0.2,0.2,0.2,0.4c-0.1,0-0.2,0-0.3,0
		c-0.1,0-0.1,0-0.2,0c-0.2,0-0.4,0.1-0.6,0.1l0,0c-0.2,0.1-0.3,0.1-0.5,0.2c-0.1,0-0.1,0-0.1,0.1c-0.1,0.1-0.2,0.1-0.3,0.2l-0.1,0.1
		c-0.1,0.1-0.2,0.1-0.2,0.2l0,0c-0.4-0.3-1.1-0.4-1.8-0.4s-1.4,0.2-1.8,0.4c-0.3-0.3-0.7-0.6-1.3-0.7c1.6-1,3.1-2.2,4.3-3.8
		C15,17.6,15.3,17.3,15.5,16.9z M20.9,23.7c-0.5,0.3-1.4,0.5-2.3,0.5c-1.7,0-2.6-0.6-2.6-0.8c0-0.3,0.9-0.9,2.6-0.9h0.1
		c1.7,0,2.5,0.6,2.5,0.9C21.3,23.4,21.2,23.5,20.9,23.7z M13.6,7c1,0,1.9,0.1,2.8,0.3c0.1,0,0.3,0.1,0.4,0.1
		c0.1,0.2,0.1,0.4,0.1,0.7c0,0.1,0,0.3,0.1,0.4c0,0.4,0,0.9,0,1.3l0,0c0,0.3-0.1,0.6-0.1,0.9c0,0.2,0,0.3-0.1,0.5c0,0.1,0,0.1,0,0.2
		c-0.3,1.3-0.8,2.7-1.5,4C15,16,14.5,16.7,14,17.3c-1.5,1.9-3.3,3.3-5.2,4.2c-1.1,0.5-2.3,0.8-3.3,0.9c-0.5,0-1,0-1.6-0.1
		c-0.1,0-0.1,0-0.2,0l0,0l0,0c-0.2,0-0.4-0.1-0.6-0.2c-0.1,0-0.1,0-0.2-0.1c-0.1,0-0.3-0.1-0.4-0.1c-0.1,0-0.1-0.1-0.2-0.1
		c-0.1-0.1-0.2-0.1-0.3-0.2c-0.1,0-0.1-0.1-0.2-0.1s-0.1-0.1-0.2-0.1v-0.2C1.5,12.8,6.5,7,13.6,7z M1.5,22.6c0.1,0,0.1,0.1,0.2,0.1
		c0.2,0.1,0.3,0.2,0.5,0.2C2.3,23,2.4,23,2.5,23c0.2,0.1,0.3,0.1,0.5,0.2c0.1,0,0.1,0,0.2,0.1c0,0.1,0,0.2,0,0.3
		c0,0.5,0.1,1,0.2,1.4c0,0.1,0,0.3,0.1,0.4c0.1,0.5,0.2,1.1,0.4,1.6c0,0.1,0.1,0.2,0.1,0.3c0,0.3,0.2,0.7,0.3,1
		c0,0.1,0.1,0.2,0.1,0.3C4.6,29,4.8,29.5,5,29.9C5,30,5.1,30,5.1,30.1c0.2,0.3,0.4,0.7,0.6,1c0.1,0.1,0.1,0.2,0.2,0.3
		c0.3,0.3,0.5,0.7,0.8,1l0,0C7,32.7,7.2,33,7.5,33.2c0.1,0.1,0.2,0.1,0.2,0.2C8,33.6,8.2,33.8,8.5,34c0,0,0,0,0.1,0.1l-0.5,0.2
		c-1.8-0.1-4-0.3-6.7-0.5L1.5,22.6L1.5,22.6z M8.4,35.3h0.2l-0.8,1.9l-2,0.8c-0.4-0.4-0.6-0.8-0.8-1.1L8.4,35.3z M7.8,39.6l0.4-1
		l0.4-0.9l0,0l0,0l0,0l0,0l0.7-1.5v0.1c0,0.2,0.1,0.4,0.1,0.6c0,0.1,0.1,0.2,0.1,0.3c0.1,0.2,0.1,0.4,0.2,0.5c0,0.1,0.1,0.2,0.1,0.3
		c0.1,0.2,0.1,0.3,0.2,0.5c0,0.1,0.1,0.2,0.1,0.3c0.1,0.1,0.2,0.3,0.2,0.4c0,0.1,0.1,0.2,0.1,0.2c0.1,0.1,0.2,0.3,0.3,0.4l0.1,0.1
		c0.1,0.2,0.3,0.3,0.4,0.5c0,0,0,0,0.1,0.1s0.2,0.2,0.3,0.3l0,0C10.3,40.7,9,40.3,7.8,39.6z M15.4,40.9L15.4,40.9
		c0.1-0.1,0.2-0.2,0.3-0.3l0.1-0.1c0.1-0.1,0.3-0.3,0.4-0.5c0,0,0.1-0.1,0.1-0.2c0.1-0.1,0.2-0.3,0.3-0.4c0-0.1,0.1-0.2,0.1-0.2
		c0.1-0.1,0.2-0.3,0.2-0.4c0-0.1,0.1-0.2,0.1-0.3c0.1-0.1,0.1-0.3,0.2-0.4c0-0.1,0.1-0.2,0.1-0.3c0.1-0.2,0.1-0.3,0.2-0.5
		c0-0.1,0.1-0.2,0.1-0.3c0.1-0.2,0.1-0.4,0.1-0.6v-0.1l0.6,1.5l0,0l0.8,1.9C18.2,40.3,16.8,40.7,15.4,40.9z M21.4,37.9L21.4,37.9
		l-2-0.8l-0.8-1.9h0.2l3.4,1.6C22,37.2,21.7,37.5,21.4,37.9z M18.9,34.3L18.4,34l0,0c0.2-0.2,0.5-0.3,0.7-0.5
		c0.1-0.1,0.1-0.1,0.2-0.2c0.2-0.1,0.3-0.3,0.5-0.4c0.1-0.1,0.2-0.2,0.3-0.3c0.2-0.2,0.3-0.3,0.5-0.5c0.1-0.1,0.2-0.2,0.3-0.3
		c0.2-0.2,0.3-0.4,0.5-0.6c0.1-0.1,0.1-0.2,0.2-0.3c0.2-0.3,0.4-0.6,0.6-1l0,0c0.2-0.3,0.4-0.7,0.5-1.1c0.1-0.1,0.1-0.3,0.2-0.4
		c0.1-0.3,0.2-0.6,0.3-0.9c0.1-0.2,0.1-0.3,0.2-0.5c0.1-0.3,0.2-0.6,0.3-0.9c0-0.1,0.1-0.2,0.1-0.3c0.1,0,0.1,0,0.2,0
		c0.2,0,0.3,0.1,0.5,0.1c0.1,0,0.2,0,0.3,0c0.1,0.3,0.2,0.7,0.3,1c0,0.1,0.1,0.3,0.1,0.4c0.2,0.5,0.4,1,0.6,1.4v5
		C22.9,33.9,20.7,34.1,18.9,34.3z M30.5,35.2l-0.8,2l-2,0.8c-0.4-0.4-0.6-0.8-0.8-1.1L30.5,35.2z M29.7,39.6L30,39l0.5-1.2l0,0
		l0.6-1.5c0.4,2.3,1.5,3.8,2.5,4.7C32.2,40.7,30.9,40.3,29.7,39.6z M35.5,41c-0.7-0.4-3.1-1.9-3.4-6c1.2,0.5,2.4,0.8,3.4,0.8
		s2.3-0.3,3.4-0.8C38.6,39.1,36.2,40.6,35.5,41z M37.3,40.9c1-0.9,2.1-2.3,2.5-4.7l0.6,1.5l0,0l0.8,1.9
		C40.1,40.3,38.7,40.7,37.3,40.9z M43.3,37.9l-2-0.8l-0.8-2l3.6,1.7C43.9,37.2,43.6,37.5,43.3,37.9z M39.2,33.7L39.2,33.7L39.2,33.7
		L39.2,33.7c-1.3,0.7-2.6,1-3.8,1c-1.1,0-2.4-0.4-3.7-1l0,0c0,0,0,0-0.1,0c-1.6-0.8-3.7-2.4-5.1-5.4c-0.5-0.9-0.8-2-1.1-3.1
		c-0.1-0.4-0.2-0.9-0.2-1.4c0-0.2,0-0.3,0-0.5s0-0.5-0.1-0.8h1.1v0.1c0,0.1,0,0.2,0.1,0.3c0,0.1,0.1,0.3,0.1,0.4s0.1,0.2,0.1,0.3
		c0.1,0.1,0.1,0.2,0.2,0.3c0.1,0.1,0.1,0.2,0.2,0.3c0.1,0.1,0.2,0.2,0.3,0.3c0.1,0.1,0.1,0.1,0.2,0.2s0.2,0.2,0.3,0.3
		c0.1,0.1,0.2,0.1,0.3,0.2c0.1,0.1,0.3,0.1,0.4,0.2c0.1,0,0.2,0.1,0.3,0.1c0.2,0.1,0.3,0.1,0.5,0.1c0.1,0,0.2,0,0.2,0.1
		c0.3,0,0.5,0.1,0.8,0.1c2.2,0,4-1.7,4-3.8c0-0.6,0.6-1.1,1.2-1.1c0.7,0,1.2,0.5,1.2,1.1c0,2.1,1.8,3.8,4,3.8c0.3,0,0.5,0,0.8-0.1
		c0.1,0,0.2,0,0.2-0.1c0.2,0,0.3-0.1,0.5-0.1c0.1,0,0.2-0.1,0.3-0.1c0.1-0.1,0.3-0.1,0.4-0.2c0.1-0.1,0.2-0.1,0.3-0.2
		s0.2-0.2,0.3-0.3c0.1-0.1,0.1-0.1,0.2-0.2c0.1-0.1,0.2-0.2,0.3-0.3c0.1-0.1,0.1-0.2,0.2-0.3c0.1-0.1,0.1-0.2,0.2-0.3
		c0-0.1,0.1-0.2,0.1-0.3c0.1-0.1,0.1-0.3,0.1-0.4s0.1-0.2,0.1-0.3v-0.1h1.1C45.3,29.6,41.5,32.6,39.2,33.7z M45.6,16.8
		c-1.7,1.4-5,1.6-8.3,0.7c-0.7-0.2-1.4-0.5-2-0.8c-1.9-0.9-3.4-2.2-4.1-3.6c-0.4-0.9-0.6-1.7-0.3-2.4v-0.1v-0.1l0,0
		c0.4-0.9,1.2-1.6,2.4-2.1c2-0.8,4.5-0.7,6.7,0.3c5.4,2.4,6.4,6.3,6.5,7C46.3,16,46,16.5,45.6,16.8z"/>
	<path style="fill:#005A8F;" d="M37.9,30c-1.6,0.3-3.2,0.3-4.8,0c-0.3-0.1-0.5,0.1-0.6,0.4s0.1,0.5,0.4,0.6c0.9,0.2,1.7,0.3,2.6,0.3
		c0.9,0,1.7-0.1,2.6-0.3c0.3-0.1,0.4-0.3,0.4-0.6C38.4,30.1,38.1,29.9,37.9,30z"/>
	<path style="fill:#005A8F;" d="M34,27.2c0.5,0.1,1,0.1,1.4,0.1c0.5,0,1,0,1.4-0.1c0.3,0,0.5-0.3,0.4-0.6c0-0.3-0.3-0.5-0.6-0.4
		c-0.7,0.1-1.3,0.1-2,0.1c0.1-0.3-0.1-0.5-0.3-0.6c-0.3-0.1-0.5,0.1-0.6,0.3l-0.2,0.5c0,0.1,0,0.3,0.1,0.4
		C33.8,27.1,33.9,27.2,34,27.2z"/>
	<path style="fill:#005A8F;" d="M14.5,26.2c-0.5,0.1-1,0.1-1.5,0.1l0,0c0.1-0.3-0.1-0.5-0.4-0.6c-0.3-0.1-0.5,0.1-0.6,0.4v0.5
		c0,0.1,0,0.3,0.1,0.4s0.2,0.2,0.3,0.2c0.4,0.1,0.8,0.1,1.2,0.1s0.8,0,1.2-0.1c0.3-0.1,0.5-0.3,0.4-0.6
		C15.1,26.4,14.8,26.2,14.5,26.2z"/>
</g>
</symbol><symbol id="icon_big_search" viewBox="0 0 48 48">
<style type="text/css">
	.st0{fill:#E50031;}
	.st1{fill:#004B83;}
</style>
<g>
	<g>
		<g>
			<path class="st0" d="M29.1,22.4c-0.1,0-0.1,0-0.2,0l-9.2-3.2c-0.2-0.1-0.3-0.3-0.3-0.5c0-0.1,0-0.1,0-0.2
				c0.1-0.3,0.4-0.4,0.6-0.3l9.2,3.2c0.2,0.1,0.3,0.3,0.3,0.5c0,0.1,0,0.1,0,0.2C29.5,22.3,29.3,22.4,29.1,22.4z"/>
		</g>
		<path class="st1" d="M41.8,13.9c-0.9-0.6-2.2-1.2-3.6-1.7s-2.8-0.8-3.9-0.9c-1.1-0.1-1.8,0.1-2.2,0.5c-0.1,0.1-0.2,0.1-0.2,0.3
			l-2.4,7l-8.3-2.9l2.4-7c0-0.1,0-0.2,0-0.2c0.1-1.4-3-2.8-5-3.5S13.3,4,12.5,5.2c-0.1,0.1-0.1,0.1-0.1,0.2l-7,20.2
			c0,0.1,0,0.1,0,0.2c-0.1,0.6,0.4,1.2,1.5,1.9l-2.1,5.9c-0.2,0.7,0.6,1.3,0.9,1.5c0.6,0.4,1.4,0.8,2.3,1.1c0.4,0.1,1.7,0.6,2.8,0.6
			c0.6,0,1.1-0.2,1.3-0.6l2.1-6c0.2,0,0.4,0,0.6,0c0.8,0,1.4-0.2,1.7-0.6c0.1-0.1,0.1-0.1,0.1-0.2l2.7-7.8l8.3,2.9l-2.7,7.8
			c0,0.1,0,0.1,0,0.2c-0.1,0.6,0.4,1.2,1.5,1.9l-2.1,5.9c-0.4,1.2,2.6,2.4,3.2,2.6c0.4,0.1,1.7,0.6,2.8,0.6c0.6,0,1.1-0.2,1.3-0.6
			l2.1-6c0.2,0,0.4,0,0.6,0c0.9,0,1.4-0.2,1.7-0.6c0.1-0.1,0.1-0.1,0.1-0.2l7-20.2c0-0.1,0-0.1,0-0.2C43.2,15.2,42.8,14.6,41.8,13.9
			z M14.2,5.5c0.9,0,2.3,0.2,4.1,0.9c2.7,0.9,4.1,2,4.3,2.5c0,0,0,0-0.1,0h-0.1c0,0-0.1,0-0.2,0s-0.1,0-0.2,0C22.1,9,22,9,22,9
			c-0.1,0-0.1,0-0.2,0s-0.2,0-0.3,0c-0.1,0-0.2,0-0.3,0c-0.1,0-0.2,0-0.4-0.1c-0.1,0-0.2,0-0.3,0c-0.1,0-0.3-0.1-0.5-0.1
			c-0.1,0-0.2,0-0.3-0.1c-0.2,0-0.4-0.1-0.6-0.2c-0.1,0-0.2-0.1-0.3-0.1c-0.3-0.1-0.6-0.2-1-0.3c-2.8-1-4.2-2.1-4.3-2.4
			C13.6,5.6,13.8,5.5,14.2,5.5z M11.3,35.7c-0.3,0.1-1.4,0-2.9-0.5S6,34,5.8,33.8l2-5.7c0,0,0,0,0.1,0c0.3,0.2,0.7,0.4,1.1,0.5
			c0.1,0,0.2,0.1,0.3,0.1c0.4,0.2,0.8,0.3,1.2,0.5c0.4,0.1,0.9,0.3,1.3,0.4c0.1,0,0.2,0,0.2,0.1c0.4,0.1,0.8,0.2,1.2,0.3
			c0,0,0,0,0.1,0L11.3,35.7z M15.8,28.9L15.7,29c-0.1,0.1-0.5,0.2-1.8,0.1c-0.9-0.1-2.1-0.4-3.2-0.8s-2.2-0.9-3-1.4l0,0l0,0
			c-1.1-0.6-1.3-1.1-1.3-1.1s0-0.1,0-0.2l6.6-19c0,0,0,0,0.1,0.1s0.2,0.2,0.3,0.3l0.1,0.1c0.1,0.1,0.2,0.2,0.3,0.2
			c0,0,0.1,0,0.1,0.1c0.2,0.1,0.3,0.2,0.5,0.3l0.1,0.1C14.7,7.9,14.9,7.9,15,8c0.1,0,0.1,0.1,0.2,0.1c0.1,0.1,0.3,0.1,0.4,0.2h0.1
			c0.2,0.1,0.4,0.2,0.5,0.2s0.1,0,0.2,0.1s0.3,0.1,0.4,0.2c0.1,0,0.1,0,0.2,0.1C17.2,9,17.3,9,17.5,9.1c1.4,0.5,2.8,0.8,3.9,0.9
			c0.2,0,0.4,0,0.6,0l0,0c0.2,0,0.3,0,0.5,0L15.8,28.9z M33.7,12.3c0.9,0,2.3,0.2,4.1,0.9c2.7,0.9,4.2,2,4.3,2.5c0,0,0,0-0.1,0h-0.1
			h-0.1c-0.1,0-0.1,0-0.2,0c-0.1,0-0.1,0-0.2,0c-0.1,0-0.2,0-0.3,0s-0.1,0-0.2,0c-0.1,0-0.2,0-0.4,0c-0.1,0-0.2,0-0.3,0
			s-0.3,0-0.4-0.1c-0.1,0-0.2,0-0.3-0.1c-0.2,0-0.3-0.1-0.5-0.1c-0.1,0-0.3-0.1-0.5-0.1c-0.1,0-0.3-0.1-0.4-0.1
			c-0.3-0.1-0.6-0.2-1-0.3c-2.8-1-4.2-2.1-4.3-2.4C33,12.3,33.3,12.3,33.7,12.3z M20.9,17.1l8.3,2.9L28,23.5l-8.3-2.9L20.9,17.1z
			 M30.7,42.4c-0.3,0.1-1.4,0-2.9-0.5s-2.4-1.1-2.6-1.4l2-5.7c0,0,0,0,0.1,0c0.3,0.2,0.7,0.4,1.1,0.5c0.1,0,0.2,0.1,0.2,0.1
			c0.4,0.2,0.8,0.3,1.3,0.5c0.4,0.1,0.9,0.3,1.3,0.4c0.1,0,0.2,0,0.3,0.1c0.4,0.1,0.8,0.2,1.2,0.3c0,0,0,0,0.1,0L30.7,42.4z
			 M35.3,35.7C35.3,35.7,35.3,35.8,35.3,35.7c-0.2,0.2-0.7,0.3-1.9,0.2c-0.9-0.1-2.1-0.4-3.2-0.8c-0.3-0.1-0.6-0.2-0.8-0.3
			c-0.5-0.2-1.1-0.4-1.5-0.7c-0.2-0.1-0.5-0.2-0.7-0.4l0,0l0,0c-1-0.6-1.3-1-1.3-1.1s0-0.1,0-0.2l2.8-8c0,0,0.1-0.1,0.1-0.2l1.5-4.5
			c0-0.1,0-0.1,0-0.2l2.2-6.2l0,0c0.1,0.1,0.2,0.1,0.2,0.2l0.1,0.1c0.1,0.1,0.3,0.2,0.4,0.3c0.9,0.6,2.2,1.2,3.6,1.7
			c1.4,0.5,2.8,0.8,3.9,0.9c0.2,0,0.4,0,0.6,0l0,0l0,0c0.2,0,0.3,0,0.5,0L35.3,35.7z"/>
	</g>
</g>
</symbol><symbol id="icon_big_settings" viewBox="0 0 48 48">
<g>
	<g>
		<g>
			<path style="fill:#E50031;" d="M16.7,28c-2.2,0-4-1.8-4-4s1.8-4,4-4s4,1.8,4,4S18.9,28,16.7,28z M16.7,21c-1.6,0-3,1.3-3,3
				c0,1.6,1.3,3,3,3s3-1.3,3-3C19.7,22.4,18.3,21,16.7,21z"/>
		</g>
		<g>
			<path style="fill:#005A8F;" d="M16.7,35.2c-0.8,0-1.6-0.1-2.4-0.3c-0.2-0.1-0.4-0.3-0.4-0.5v-2.9c-0.8-0.3-1.6-0.8-2.3-1.3
				l-2.5,1.5c-0.2,0.1-0.5,0.1-0.6-0.1c-1.1-1.2-1.9-2.6-2.4-4.1c-0.1-0.2,0-0.5,0.2-0.6l2.5-1.5c-0.1-0.4-0.1-0.9-0.1-1.3
				s0-0.9,0.1-1.3l-2.5-1.5c-0.2-0.1-0.3-0.4-0.2-0.6c0.5-1.5,1.3-2.9,2.4-4.1c0.2-0.2,0.4-0.2,0.6-0.1l2.5,1.5
				c0.7-0.6,1.5-1,2.3-1.3v-2.9c0-0.2,0.2-0.4,0.4-0.5c1.5-0.4,3.3-0.3,4.8,0c0.2,0.1,0.4,0.3,0.4,0.5v2.9c0.8,0.3,1.6,0.8,2.3,1.3
				l2.5-1.5c0.2-0.1,0.5-0.1,0.6,0.1c1.1,1.2,1.9,2.6,2.4,4.1c0.1,0.2,0,0.5-0.2,0.6l-2.5,1.5c0.1,0.4,0.1,0.9,0.1,1.3
				s0,0.9-0.1,1.3l2.5,1.5c0.2,0.1,0.3,0.4,0.2,0.6c-0.5,1.5-1.3,3-2.4,4.1c-0.2,0.2-0.4,0.2-0.6,0.1l-2.5-1.5
				c-0.7,0.6-1.5,1-2.3,1.3v2.9c0,0.2-0.2,0.4-0.4,0.5C18.3,35.1,17.6,35.2,16.7,35.2z M14.9,34c1.2,0.2,2.4,0.2,3.6,0v-2.9
				c0-0.2,0.1-0.4,0.3-0.5c1-0.3,1.8-0.8,2.6-1.5c0.2-0.1,0.4-0.2,0.6-0.1l2.5,1.4c0.8-0.9,1.4-2,1.8-3.1L23.8,26
				c-0.2-0.1-0.3-0.3-0.2-0.5c0.1-0.5,0.2-1,0.2-1.5s-0.1-1-0.2-1.5c0-0.2,0.1-0.4,0.2-0.5l2.5-1.4c-0.4-1.1-1-2.2-1.8-3.1L22,18.9
				c-0.2,0.1-0.4,0.1-0.6-0.1c-0.7-0.7-1.6-1.2-2.6-1.5c-0.2-0.1-0.3-0.3-0.3-0.5V14c-1.1-0.2-2.4-0.2-3.6,0v2.9
				c0,0.2-0.1,0.4-0.4,0.5c-0.9,0.3-1.8,0.8-2.6,1.5c-0.2,0.2-0.4,0.2-0.6,0.1l-2.5-1.4c-0.8,0.9-1.4,2-1.8,3.1L9.6,22
				c0.2,0.1,0.3,0.3,0.2,0.5c-0.1,0.5-0.2,1-0.2,1.5s0.1,1,0.2,1.5c0,0.2-0.1,0.4-0.2,0.5l-2.5,1.4c0.4,1.1,1,2.2,1.8,3.1l2.5-1.4
				c0.2-0.1,0.4-0.1,0.6,0.1c0.7,0.7,1.6,1.2,2.5,1.5c0.2,0.1,0.4,0.3,0.4,0.5C14.9,31.2,14.9,34,14.9,34z"/>
		</g>
	</g>
	<g>
		<g>
			<path style="fill:#E50031;" d="M34.3,29.5c-0.6,0-1.3-0.2-1.8-0.6c-0.6-0.5-1-1.2-1.1-1.9s0.1-1.5,0.6-2.1s1.2-1,1.9-1.1
				c1.5-0.2,3,0.9,3.2,2.5c0.1,0.8-0.1,1.5-0.6,2.1s-1.2,1-1.9,1.1C34.5,29.5,34.4,29.5,34.3,29.5z M34.3,24.7c-0.1,0-0.1,0-0.2,0
				c-0.5,0.1-0.9,0.3-1.2,0.7c-0.3,0.4-0.4,0.9-0.4,1.4c0.1,0.5,0.3,0.9,0.7,1.2c0.4,0.3,0.9,0.4,1.4,0.4c0.5-0.1,0.9-0.3,1.2-0.7
				c0.3-0.4,0.4-0.9,0.4-1.4c-0.1-0.5-0.3-0.9-0.7-1.2C35.1,24.9,34.7,24.7,34.3,24.7z"/>
		</g>
		<g>
			<path style="fill:#005A8F;" d="M34.2,34.4c-0.2,0-0.5,0-0.7,0s-0.4-0.2-0.4-0.4l-0.2-2c-0.5-0.1-1-0.4-1.5-0.7l-1.5,1.1
				c-0.2,0.1-0.4,0.1-0.6,0c-0.2-0.2-0.4-0.4-0.6-0.6c-0.6-0.6-1-1.3-1.4-2.1c-0.1-0.2,0-0.5,0.2-0.6L29,28
				c-0.1-0.3-0.1-0.5-0.2-0.8c0-0.3,0-0.5,0-0.8L27,25.7c-0.2-0.1-0.3-0.3-0.3-0.6c0.2-0.9,0.5-1.8,1-2.6c0.1-0.2,0.2-0.3,0.3-0.4
				c0.1-0.2,0.4-0.3,0.6-0.2l1.7,0.7c0.4-0.4,0.8-0.7,1.3-1l-0.2-1.9c0-0.2,0.1-0.5,0.3-0.5c0.5-0.2,1.1-0.3,1.6-0.4
				c0.6-0.1,1.1-0.1,1.7,0c0.2,0,0.4,0.2,0.4,0.4l0.2,1.9c0.5,0.1,1,0.4,1.5,0.7l1.5-1.1c0.2-0.1,0.4-0.1,0.6,0
				c0.9,0.7,1.5,1.6,2,2.7c0.1,0.2,0,0.5-0.2,0.6l-1.5,1.1c0.1,0.3,0.1,0.5,0.2,0.8c0,0.3,0,0.5,0,0.8l1.7,0.7
				c0.2,0.1,0.3,0.3,0.3,0.6c-0.2,1.1-0.7,2.2-1.3,3.1c-0.1,0.2-0.4,0.3-0.6,0.2l-1.7-0.7c-0.4,0.4-0.8,0.7-1.3,1l0.2,1.9
				c0,0.2-0.1,0.5-0.3,0.5c-0.1,0-0.2,0.1-0.3,0.1h-0.1c-0.4,0.1-0.8,0.2-1.2,0.3c-0.1,0-0.2,0-0.4,0h-0.1
				C34.6,34.3,34.4,34.4,34.2,34.4z M34.1,33.4c0.2,0,0.4,0,0.7,0h0.1c0.1,0,0.2,0,0.3,0c0.3,0,0.7-0.1,1-0.2L36,31.4
				c0-0.2,0.1-0.4,0.3-0.5c0.6-0.3,1.1-0.7,1.6-1.2c0.1-0.2,0.4-0.2,0.6-0.1l1.7,0.7c0.4-0.6,0.7-1.2,0.8-1.9l-1.7-0.7
				c-0.2-0.1-0.3-0.3-0.3-0.5c0-0.3,0-0.7,0-1s-0.1-0.6-0.2-1c-0.1-0.2,0-0.4,0.2-0.6l1.5-1.1c-0.3-0.6-0.7-1.2-1.3-1.7l-1.5,1.1
				c-0.2,0.1-0.4,0.1-0.6,0c-0.5-0.4-1.1-0.7-1.8-0.8c-0.2,0-0.4-0.2-0.4-0.4l-0.2-1.8c-0.3,0-0.7,0-1.1,0c-0.4,0-0.7,0.1-1,0.2
				l0.2,1.8c0,0.2-0.1,0.4-0.3,0.5c-0.6,0.3-1.1,0.7-1.6,1.2c-0.1,0.2-0.4,0.2-0.6,0.1L28.6,23c-0.4,0.7-0.7,1.3-0.8,1.9l1.7,0.7
				c0.2,0.1,0.3,0.3,0.3,0.5c0,0.3,0,0.7,0,1s0.1,0.7,0.2,1c0.1,0.2,0,0.4-0.2,0.6l-1.4,1.1c0.3,0.5,0.6,1,1,1.5
				c0.1,0.1,0.2,0.2,0.2,0.2l1.5-1.1c0.2-0.1,0.4-0.1,0.6,0c0.5,0.4,1.1,0.7,1.8,0.8c0.2,0,0.4,0.2,0.4,0.4L34.1,33.4z"/>
		</g>
	</g>
</g>
</symbol><symbol id="icon_calendar" viewBox="0 0 21 21">
<g>
	<path d="M20.5,3.5h-4.1v-3c0-0.3-0.2-0.5-0.5-0.5c-0.3,0-0.5,0.2-0.5,0.5v3H11v-3C11,0.2,10.8,0,10.5,0S10,0.2,10,0.5v3H5.6v-3
		C5.6,0.2,5.3,0,5.1,0S4.6,0.2,4.6,0.5v3H0.5C0.2,3.5,0,3.7,0,4v16.5C0,20.8,0.2,21,0.5,21h20c0.3,0,0.5-0.2,0.5-0.5V4
		C21,3.7,20.8,3.5,20.5,3.5z M20,20H1V4.5h3.6v2C4.6,6.8,4.8,7,5.1,7s0.5-0.2,0.5-0.5v-2H10v2C10,6.8,10.2,7,10.5,7S11,6.8,11,6.5
		v-2h4.4v2c0,0.3,0.2,0.5,0.5,0.5c0.3,0,0.5-0.2,0.5-0.5v-2H20V20z"/>
	<g>
		<circle cx="5.1" cy="10.8" r="1"/>
	</g>
	<g>
		<circle cx="10.5" cy="10.8" r="1"/>
	</g>
	<g>
		<circle cx="15.9" cy="10.8" r="1"/>
	</g>
	<g>
		<circle cx="5.1" cy="15.7" r="1"/>
	</g>
	<g>
		<circle cx="10.5" cy="15.7" r="1"/>
	</g>
	<g>
		<circle cx="15.9" cy="15.7" r="1"/>
	</g>
</g>
</symbol><symbol id="icon_check" viewBox="0 0 10 9">
<g>
	<g>
		<path d="M3.3,9C3.2,9,3,8.9,2.9,8.9L0.2,6.1C0,5.9,0,5.6,0.2,5.4s0.5-0.2,0.7,0l2.4,2.4L9.1,2c0.2-0.2,0.5-0.2,0.7,0
			s0.2,0.5,0,0.7L3.7,8.9C3.6,8.9,3.4,9,3.3,9z"/>
	</g>
</g>
</symbol><symbol id="icon_close" viewBox="0 0 18 18">
<path d="M9.7,9l8.1-8.1c0.2-0.2,0.2-0.5,0-0.7s-0.5-0.2-0.7,0L9,8.3L0.9,0.1C0.7,0,0.3,0,0.1,0.1S0,0.7,0.1,0.9L8.3,9l-8.1,8.1
	c-0.2,0.2-0.2,0.5,0,0.7C0.2,18,0.4,18,0.5,18s0.3,0,0.4-0.1L9,9.7l8.1,8.1c0.1,0.1,0.2,0.1,0.4,0.1c0.1,0,0.3,0,0.4-0.1
	c0.2-0.2,0.2-0.5,0-0.7L9.7,9z"/>
</symbol><symbol id="icon_plus" viewBox="0 0 21 21">
<g>
	<g>
		<path style="fill:#005A8F;" d="M10.5,21C4.7,21,0,16.3,0,10.5S4.7,0,10.5,0S21,4.7,21,10.5S16.3,21,10.5,21z M10.5,1
			C5.3,1,1,5.3,1,10.5S5.3,20,10.5,20s9.5-4.3,9.5-9.5S15.7,1,10.5,1z"/>
	</g>
	<path style="fill:#E50031;" d="M15.5,10H11V5.5C11,5.2,10.8,5,10.5,5S10,5.2,10,5.5V10H5.5C5.2,10,5,10.2,5,10.5S5.2,11,5.5,11H10
		v4.5c0,0.3,0.2,0.5,0.5,0.5s0.5-0.2,0.5-0.5V11h4.5c0.3,0,0.5-0.2,0.5-0.5S15.8,10,15.5,10z"/>
</g>
</symbol><symbol id="icon_search" viewBox="0 0 21 21">
<path d="M20.3,17.1l-4.9-4.9c0.7-1.2,1.1-2.6,1.1-4s-0.3-2.8-1-4c-0.8-1.4-1.9-2.5-3.2-3.2c-1.2-0.7-2.6-1-4-1C3.7,0,0,3.7,0,8.2
	c0,1.4,0.4,2.8,1,4c0.7,1.3,1.9,2.4,3.2,3.2c1.2,0.7,2.6,1,4,1s2.8-0.4,4-1.1l4.9,4.9c0.4,0.4,1,0.7,1.6,0.7s1.2-0.2,1.6-0.7l0,0
	C21.2,19.4,21.2,18,20.3,17.1z M4.7,14.5c-1.2-0.7-2.2-1.6-2.8-2.8C1.3,10.7,1,9.5,1,8.2C1,4.3,4.3,1,8.2,1c1.2,0,2.4,0.3,3.5,0.9
	c1.2,0.6,2.2,1.6,2.8,2.8c0.6,1.1,0.9,2.3,0.9,3.5c0,1.4-0.4,2.7-1.1,3.8c-0.6,0.9-1.4,1.7-2.3,2.3C9.9,15.7,7,15.8,4.7,14.5z
	 M19.6,19.6c-0.5,0.5-1.3,0.5-1.8,0L13,14.8l0.1-0.1c0.3-0.2,0.6-0.5,0.9-0.7l0,0c0.3-0.3,0.5-0.6,0.7-0.9l0.1-0.1l4.8,4.8
	C20.1,18.3,20.1,19.1,19.6,19.6z"/>
</symbol><symbol id="icon_user" viewBox="0 0 21 21">
<g>
	<path style="fill:#E50031;" d="M12.9,12.6c1.3-0.8,2.1-2.2,2.1-3.8c0-2.5-2-4.5-4.5-4.5S6,6.3,6,8.8c0,1.6,0.9,3,2.1,3.8
		c-2.6,0.7-4.2,2.6-4.2,5.2V18L5,18.9l-0.1-0.8v-0.4c0-3.3,2.9-4.5,5.6-4.5s5.6,1.2,5.6,4.5v0.4L16,18.7l1.1-0.8v-0.1
		C17.1,15.2,15.5,13.3,12.9,12.6z M7,8.8c0-1.9,1.6-3.5,3.5-3.5S14,6.9,14,8.8s-1.6,3.5-3.5,3.5S7,10.7,7,8.8z"/>
	<g>
		<path style="fill:#005A8F;" d="M10.5,21c-2.3,0-4.5-0.7-6.4-2.2c-2.6-2-4.1-5-4.1-8.3c0-2.8,1.1-5.4,3.1-7.4C5,1.1,7.7,0,10.5,0
			s5.4,1.1,7.4,3.1S21,7.7,21,10.5s-1.1,5.4-3.1,7.4c-0.3,0.3-0.7,0.6-1.1,0.9C15,20.3,12.8,21,10.5,21z M10.5,1C8,1,5.6,2,3.8,3.8
			S1,8,1,10.5c0,3,1.4,5.7,3.7,7.6c1.7,1.3,3.7,1.9,5.8,1.9s4.1-0.7,5.8-1.9c0.3-0.3,0.6-0.5,1-0.8C19,15.4,20,13,20,10.5
			s-1-4.9-2.8-6.7C15.4,2,13,1,10.5,1z"/>
	</g>
</g>
</symbol></svg>