<?xml version="1.0" encoding="utf-8"?>
<!-- Generator: Adobe Illustrator 23.0.5, SVG Export Plug-In . SVG Version: 6.00 Build 0)  -->
<svg version="1.1" id="Layer_1" xmlns="http://www.w3.org/2000/svg" xmlns:xlink="http://www.w3.org/1999/xlink" x="0px" y="0px"
	 viewBox="0 0 48 48" style="enable-background:new 0 0 48 48;" xml:space="preserve">
<path d="M16.7,28c-2.2,0-4-1.8-4-4s1.8-4,4-4s4,1.8,4,4S18.9,28,16.7,28z M16.7,21c-1.6,0-3,1.3-3,3c0,1.6,1.3,3,3,3s3-1.3,3-3
	C19.7,22.4,18.3,21,16.7,21z"/>
<path d="M16.7,35.2c-0.8,0-1.6-0.1-2.4-0.3c-0.2-0.1-0.4-0.3-0.4-0.5v-2.9c-0.8-0.3-1.6-0.8-2.3-1.3l-2.5,1.5
	c-0.2,0.1-0.5,0.1-0.6-0.1c-1.1-1.2-1.9-2.6-2.4-4.1c-0.1-0.2,0-0.5,0.2-0.6l2.5-1.5c-0.1-0.4-0.1-0.9-0.1-1.3s0-0.9,0.1-1.3
	l-2.5-1.5c-0.2-0.1-0.3-0.4-0.2-0.6c0.5-1.5,1.3-2.9,2.4-4.1c0.2-0.2,0.4-0.2,0.6-0.1l2.5,1.5c0.7-0.6,1.5-1,2.3-1.3v-2.9
	c0-0.2,0.2-0.4,0.4-0.5c1.5-0.4,3.3-0.3,4.8,0c0.2,0.1,0.4,0.3,0.4,0.5v2.9c0.8,0.3,1.6,0.8,2.3,1.3l2.5-1.5
	c0.2-0.1,0.5-0.1,0.6,0.1c1.1,1.2,1.9,2.6,2.4,4.1c0.1,0.2,0,0.5-0.2,0.6l-2.5,1.5c0.1,0.4,0.1,0.9,0.1,1.3s0,0.9-0.1,1.3l2.5,1.5
	c0.2,0.1,0.3,0.4,0.2,0.6c-0.5,1.5-1.3,3-2.4,4.1c-0.2,0.2-0.4,0.2-0.6,0.1l-2.5-1.5c-0.7,0.6-1.5,1-2.3,1.3v2.9
	c0,0.2-0.2,0.4-0.4,0.5C18.3,35.1,17.6,35.2,16.7,35.2z M14.9,34c1.2,0.2,2.4,0.2,3.6,0v-2.9c0-0.2,0.1-0.4,0.3-0.5
	c1-0.3,1.8-0.8,2.6-1.5c0.2-0.1,0.4-0.2,0.6-0.1l2.5,1.4c0.8-0.9,1.4-2,1.8-3.1L23.8,26c-0.2-0.1-0.3-0.3-0.2-0.5
	c0.1-0.5,0.2-1,0.2-1.5s-0.1-1-0.2-1.5c0-0.2,0.1-0.4,0.2-0.5l2.5-1.4c-0.4-1.1-1-2.2-1.8-3.1L22,18.9c-0.2,0.1-0.4,0.1-0.6-0.1
	c-0.7-0.7-1.6-1.2-2.6-1.5c-0.2-0.1-0.3-0.3-0.3-0.5V14c-1.1-0.2-2.4-0.2-3.6,0v2.9c0,0.2-0.1,0.4-0.4,0.5c-0.9,0.3-1.8,0.8-2.6,1.5
	c-0.2,0.2-0.4,0.2-0.6,0.1l-2.5-1.4c-0.8,0.9-1.4,2-1.8,3.1L9.6,22c0.2,0.1,0.3,0.3,0.2,0.5c-0.1,0.5-0.2,1-0.2,1.5s0.1,1,0.2,1.5
	c0,0.2-0.1,0.4-0.2,0.5l-2.5,1.4c0.4,1.1,1,2.2,1.8,3.1l2.5-1.4c0.2-0.1,0.4-0.1,0.6,0.1c0.7,0.7,1.6,1.2,2.5,1.5
	c0.2,0.1,0.4,0.3,0.4,0.5C14.9,31.2,14.9,34,14.9,34z"/>
<path d="M34.3,29.5c-0.6,0-1.3-0.2-1.8-0.6c-0.6-0.5-1-1.2-1.1-1.9s0.1-1.5,0.6-2.1s1.2-1,1.9-1.1c1.5-0.2,3,0.9,3.2,2.5
	c0.1,0.8-0.1,1.5-0.6,2.1s-1.2,1-1.9,1.1C34.6,29.5,34.3,29.5,34.3,29.5z M34.3,24.7h-0.2c-0.5,0.1-0.9,0.3-1.2,0.7
	c-0.3,0.4-0.4,0.9-0.4,1.4c0.1,0.5,0.3,0.9,0.7,1.2c0.4,0.3,0.9,0.4,1.4,0.4c0.5-0.1,0.9-0.3,1.2-0.7c0.3-0.4,0.4-0.9,0.4-1.4
	c-0.1-0.5-0.3-0.9-0.7-1.2C35.1,24.9,34.7,24.7,34.3,24.7z"/>
<path d="M34.2,34.4h-0.7c-0.2,0-0.4-0.2-0.4-0.4l-0.2-2c-0.5-0.1-1-0.4-1.5-0.7l-1.5,1.1c-0.2,0.1-0.4,0.1-0.6,0l-0.6-0.6
	c-0.6-0.6-1-1.3-1.4-2.1c-0.1-0.2,0-0.5,0.2-0.6L29,28c-0.1-0.3-0.1-0.5-0.2-0.8v-0.8L27,25.7c-0.2-0.1-0.3-0.3-0.3-0.6
	c0.2-0.9,0.5-1.8,1-2.6c0.1-0.2,0.2-0.3,0.3-0.4c0.1-0.2,0.4-0.3,0.6-0.2l1.7,0.7c0.4-0.4,0.8-0.7,1.3-1l-0.2-1.9
	c0-0.2,0.1-0.5,0.3-0.5c0.5-0.2,1.1-0.3,1.6-0.4c0.6-0.1,1.1-0.1,1.7,0c0.2,0,0.4,0.2,0.4,0.4l0.2,1.9c0.5,0.1,1,0.4,1.5,0.7
	l1.5-1.1c0.2-0.1,0.4-0.1,0.6,0c0.9,0.7,1.5,1.6,2,2.7c0.1,0.2,0,0.5-0.2,0.6l-1.5,1.1c0.1,0.3,0.1,0.5,0.2,0.8v0.8l1.7,0.7
	c0.2,0.1,0.3,0.3,0.3,0.6c-0.2,1.1-0.7,2.2-1.3,3.1c-0.1,0.2-0.4,0.3-0.6,0.2l-1.7-0.7c-0.4,0.4-0.8,0.7-1.3,1l0.2,1.9
	c0,0.2-0.1,0.5-0.3,0.5c-0.1,0-0.2,0.1-0.3,0.1h-0.1l-1.2,0.3h-0.5C34.6,34.3,34.4,34.4,34.2,34.4z M34.1,33.4h1.1
	c0.3,0,0.7-0.1,1-0.2L36,31.4c0-0.2,0.1-0.4,0.3-0.5c0.6-0.3,1.1-0.7,1.6-1.2c0.1-0.2,0.4-0.2,0.6-0.1l1.7,0.7
	c0.4-0.6,0.7-1.2,0.8-1.9l-1.7-0.7c-0.2-0.1-0.3-0.3-0.3-0.5v-1c0-0.3-0.1-0.6-0.2-1c-0.1-0.2,0-0.4,0.2-0.6l1.5-1.1
	c-0.3-0.6-0.7-1.2-1.3-1.7l-1.5,1.1c-0.2,0.1-0.4,0.1-0.6,0c-0.5-0.4-1.1-0.7-1.8-0.8c-0.2,0-0.4-0.2-0.4-0.4l-0.2-1.8h-1.1
	c-0.4,0-0.7,0.1-1,0.2l0.2,1.8c0,0.2-0.1,0.4-0.3,0.5c-0.6,0.3-1.1,0.7-1.6,1.2c-0.1,0.2-0.4,0.2-0.6,0.1L28.6,23
	c-0.4,0.7-0.7,1.3-0.8,1.9l1.7,0.7c0.2,0.1,0.3,0.3,0.3,0.5v1c0,0.3,0.1,0.7,0.2,1c0.1,0.2,0,0.4-0.2,0.6l-1.4,1.1
	c0.3,0.5,0.6,1,1,1.5l0.2,0.2l1.5-1.1c0.2-0.1,0.4-0.1,0.6,0c0.5,0.4,1.1,0.7,1.8,0.8c0.2,0,0.4,0.2,0.4,0.4L34.1,33.4z"/>
</svg>
