<?xml version="1.0" encoding="utf-8"?>
<!-- Generator: Adobe Illustrator 23.0.5, SVG Export Plug-In . SVG Version: 6.00 Build 0)  -->
<svg version="1.1" id="Layer_1" xmlns="http://www.w3.org/2000/svg" xmlns:xlink="http://www.w3.org/1999/xlink" x="0px" y="0px"
	 viewBox="0 0 21 21" style="enable-background:new 0 0 21 21;" xml:space="preserve">
<g>
	<path style="fill:#005A8F;" d="M10.5,21C4.7,21,0,16.3,0,10.5S4.7,0,10.5,0S21,4.7,21,10.5S16.3,21,10.5,21z M10.5,1
		C5.3,1,1,5.3,1,10.5c0,5.2,4.3,9.5,9.5,9.5c5.2,0,9.5-4.3,9.5-9.5C20,5.3,15.7,1,10.5,1z"/>
</g>
<g>
	<g>
		<path style="fill:#E50031;" d="M6.5,13.2c-0.2,0-0.3-0.1-0.4-0.3c-1.1-2-0.7-4.4,0.8-5.9c1.6-1.6,4-1.9,5.9-0.8
			c0.2,0.1,0.3,0.4,0.2,0.7C13,7,12.7,7.1,12.4,7c-1.6-0.9-3.5-0.6-4.8,0.7C6.4,8.9,6.1,10.8,7,12.4c0.1,0.2,0,0.5-0.2,0.7
			C6.7,13.1,6.6,13.2,6.5,13.2z"/>
	</g>
	<g>
		<path style="fill:#E50031;" d="M10.5,15.5c-0.8,0-1.7-0.2-2.4-0.6c-0.2-0.1-0.3-0.4-0.2-0.7C8,14,8.3,13.9,8.6,14
			c1.6,0.9,3.5,0.6,4.8-0.7c1.3-1.3,1.5-3.2,0.7-4.8c-0.1-0.2,0-0.5,0.2-0.7c0.2-0.1,0.5,0,0.7,0.2c1.1,2,0.7,4.4-0.8,5.9
			C13.1,15,11.8,15.5,10.5,15.5z"/>
	</g>
</g>
</svg>
