<svg xmlns="http://www.w3.org/2000/svg" viewBox="0 0 48 48"><path d="M38.8 18h-7.4c-.3 0-.2.2-.2.5v20.3c0 .3-.1.5.2.5h7.4c.3 0 .5-.2.5-.5V18.5c0-.2-.2-.5-.5-.5zm-.5 20.3h-6.7V19h6.7v19.3zM24 13.5h-7.4c-.3 0-.5.2-.5.5v14.4H9.2c-.3 0-.5.2-.5.5v9.9c0 .3.2.5.5.5H24c.3 0 .3-.2.3-.5V14c0-.2 0-.5-.3-.5zM9.7 29.4h6.4v8.9H9.7v-8.9zm14.1 8.9h-6.7V14.5h6.7v23.8z" fill="#004b83"/><path d="M31.4 39.3H24c-.3 0-.5-.2-.5-.5V9.2c0-.3.2-.5.5-.5h7.4c.3 0 .5.2.5.5v29.7c0 .2-.2.4-.5.4zm-6.9-1h6.4V9.7h-6.4v28.6z" fill="#e50031"/></svg>