<svg xmlns="http://www.w3.org/2000/svg" viewBox="0 0 21 21"><path d="M20.3 17.1l-4.9-4.9c.7-1.2 1.1-2.6 1.1-4s-.3-2.8-1-4c-.8-1.4-1.9-2.5-3.2-3.2-1.2-.7-2.6-1-4-1C3.7 0 0 3.7 0 8.2c0 1.4.4 2.8 1 4 .7 1.3 1.9 2.4 3.2 3.2 1.2.7 2.6 1 4 1s2.8-.4 4-1.1l4.9 4.9c.4.4 1 .7 1.6.7s1.2-.2 1.6-.7c.9-.8.9-2.2 0-3.1zM4.7 14.5c-1.2-.7-2.2-1.6-2.8-2.8-.6-1-.9-2.2-.9-3.5C1 4.3 4.3 1 8.2 1c1.2 0 2.4.3 3.5.9 1.2.6 2.2 1.6 2.8 2.8.6 1.1.9 2.3.9 3.5 0 1.4-.4 2.7-1.1 3.8-.6.9-1.4 1.7-2.3 2.3-2.1 1.4-5 1.5-7.3.2zm14.9 5.1c-.5.5-1.3.5-1.8 0L13 14.8l.1-.1c.3-.2.6-.5.9-.7.3-.3.5-.6.7-.9l.1-.1 4.8 4.8c.5.5.5 1.3 0 1.8z"/></svg>