<?xml version="1.0" encoding="utf-8"?>
<!-- Generator: Adobe Illustrator 23.0.5, SVG Export Plug-In . SVG Version: 6.00 Build 0)  -->
<svg version="1.1" id="Layer_1" xmlns="http://www.w3.org/2000/svg" xmlns:xlink="http://www.w3.org/1999/xlink" x="0px" y="0px"
	 viewBox="0 0 21 21" style="enable-background:new 0 0 21 21;" xml:space="preserve">
<g>
	<path d="M16.5,10.7c0-0.1,0.1-0.1,0.1-0.2s0-0.2-0.1-0.2c0,0,0,0,0-0.1l-0.1-0.1l0,0l-7-4C9.1,5.9,8.8,6,8.7,6.3
		C8.5,6.5,8.6,6.8,8.9,6.9l5.3,3.1H4.9c-0.3,0-0.5,0.2-0.5,0.5S4.6,11,4.9,11h9.3l-5.3,3.1c-0.2,0.1-0.3,0.4-0.2,0.7
		C8.8,14.9,8.9,15,9.1,15c0.1,0,0.2,0,0.2-0.1l7-4l0,0C16.4,10.9,16.5,10.8,16.5,10.7C16.5,10.8,16.5,10.7,16.5,10.7z"/>
	<g>
		<path d="M10.5,21C4.7,21,0,16.3,0,10.5S4.7,0,10.5,0S21,4.7,21,10.5S16.3,21,10.5,21z M10.5,1C5.3,1,1,5.3,1,10.5S5.3,20,10.5,20
			s9.5-4.3,9.5-9.5S15.7,1,10.5,1z"/>
	</g>
</g>
</svg>
