<?xml version="1.0" encoding="utf-8"?>
<!-- Generator: Adobe Illustrator 23.0.5, SVG Export Plug-In . SVG Version: 6.00 Build 0)  -->
<svg version="1.1" id="Layer_1" xmlns="http://www.w3.org/2000/svg" xmlns:xlink="http://www.w3.org/1999/xlink" x="0px" y="0px"
	 viewBox="0 0 48 48" style="enable-background:new 0 0 48 48;" xml:space="preserve">
<path d="M28.1,14.8h-8.2c-0.3,0-0.5-0.2-0.5-0.5s0.2-0.5,0.5-0.5h8.2c0.3,0,0.5,0.2,0.5,0.5S28.3,14.8,28.1,14.8z"/>
<g>
	<path d="M40.4,26.6L40.4,26.6L40.4,26.6L40.4,26.6l-2.6-6.9c-0.1-0.2-0.3-0.3-0.5-0.3h-5.6V9c0-0.3-0.2-0.5-0.5-0.5H16.8
		c-0.3,0-0.5,0.2-0.5,0.5v10.4h-5.6c-0.2,0-0.4,0.1-0.5,0.3l-2.6,6.9l0,0v0.1V39c0,0.3,0.2,0.5,0.5,0.5H40c0.3,0,0.5-0.2,0.5-0.5
		V26.8C40.4,26.7,40.4,26.7,40.4,26.6z M17.3,19.9V9.5h13.3v10.4v2.9H17.3V19.9z M11,20.4h5.3v2.5h-1.8c-0.3,0-0.5,0.2-0.5,0.5
		s0.2,0.5,0.5,0.5h19c0.3,0,0.5-0.2,0.5-0.5s-0.2-0.5-0.5-0.5h-1.8v-2.5H37l2.3,5.9H8.8L11,20.4z M39.4,38.5H8.6V27.3h30.9
		L39.4,38.5L39.4,38.5z"/>
	<path d="M19.8,12.3h6c0.3,0,0.5-0.2,0.5-0.5s-0.2-0.5-0.5-0.5h-6c-0.3,0-0.5,0.2-0.5,0.5S19.5,12.3,19.8,12.3z"/>
	<path d="M26.7,16.3h-6.9c-0.3,0-0.5,0.2-0.5,0.5s0.2,0.5,0.5,0.5h6.9c0.3,0,0.5-0.2,0.5-0.5S27,16.3,26.7,16.3z"/>
	<path d="M25.8,18.8h-6c-0.3,0-0.5,0.2-0.5,0.5s0.2,0.5,0.5,0.5h6c0.3,0,0.5-0.2,0.5-0.5S26.1,18.8,25.8,18.8z"/>
</g>
</svg>
