<?xml version="1.0" encoding="utf-8"?>
<!-- Generator: Adobe Illustrator 23.0.5, SVG Export Plug-In . SVG Version: 6.00 Build 0)  -->
<svg version="1.1" id="Layer_1" xmlns="http://www.w3.org/2000/svg" xmlns:xlink="http://www.w3.org/1999/xlink" x="0px" y="0px"
	 viewBox="0 0 21 21" style="enable-background:new 0 0 21 21;" xml:space="preserve">
<g>
	<path style="fill:#E50031;" d="M12.9,12.6c1.3-0.8,2.1-2.2,2.1-3.8c0-2.5-2-4.5-4.5-4.5S6,6.3,6,8.8c0,1.6,0.9,3,2.1,3.8
		c-2.6,0.7-4.2,2.6-4.2,5.2V18L5,18.9l-0.1-0.8v-0.4c0-3.3,2.9-4.5,5.6-4.5s5.6,1.2,5.6,4.5v0.4L16,18.7l1.1-0.8v-0.1
		C17.1,15.2,15.5,13.3,12.9,12.6z M7,8.8c0-1.9,1.6-3.5,3.5-3.5S14,6.9,14,8.8s-1.6,3.5-3.5,3.5S7,10.7,7,8.8z"/>
	<g>
		<path style="fill:#005A8F;" d="M10.5,21c-2.3,0-4.5-0.7-6.4-2.2c-2.6-2-4.1-5-4.1-8.3c0-2.8,1.1-5.4,3.1-7.4C5,1.1,7.7,0,10.5,0
			s5.4,1.1,7.4,3.1S21,7.7,21,10.5s-1.1,5.4-3.1,7.4c-0.3,0.3-0.7,0.6-1.1,0.9C15,20.3,12.8,21,10.5,21z M10.5,1C8,1,5.6,2,3.8,3.8
			S1,8,1,10.5c0,3,1.4,5.7,3.7,7.6c1.7,1.3,3.7,1.9,5.8,1.9s4.1-0.7,5.8-1.9c0.3-0.3,0.6-0.5,1-0.8C19,15.4,20,13,20,10.5
			s-1-4.9-2.8-6.7C15.4,2,13,1,10.5,1z"/>
	</g>
</g>
</svg>
