<svg xmlns="http://www.w3.org/2000/svg" viewBox="0 0 48 48"><path d="M38.8 21.4h-6.9v-6.7c0-.3-.2-.5-.5-.5H24c-.3 0-.2.2-.2.5v24.1c0 .3-.1.5.2.5h14.8c.3 0 .5-.2.5-.5V21.9c0-.3-.2-.5-.5-.5zM24 15.2h6.9v23.1H24V15.2zm14.3 23h-6.4V22.4h6.4v15.8zM16.6 25.6H9.2c-.3 0-.5.2-.5.5v12.7c0 .3.2.5.5.5h7.4c.3 0 .1-.6.1-.9V25.7c0-.3.2-.1-.1-.1zm-.5 12.7H9.7V26.6h6.4v11.7z" fill="#004b83"/><path d="M24 39.3h-7.4c-.3 0-.5-.2-.5-.5V9.2c0-.3.2-.5.5-.5H24c.3 0 .5.2.5.5v29.7c0 .2-.2.4-.5.4zm-6.9-1h6.4V9.7h-6.4v28.6z" fill="#e50031"/></svg>