<svg xmlns="http://www.w3.org/2000/svg" viewBox="0 0 204.3 60"><linearGradient id="a" gradientUnits="userSpaceOnUse" x1="0" y1="26.233" x2="47.481" y2="26.233"><stop offset="0" stop-color="#008cb4"/><stop offset=".372" stop-color="#0089b2"/><stop offset=".606" stop-color="#0081ab"/><stop offset=".801" stop-color="#0072a0"/><stop offset=".975" stop-color="#005e91"/><stop offset="1" stop-color="#005a8e"/></linearGradient><path d="M47.5 3v26.4l-41.1 20C2.7 44.8 0 38 0 28.4v-2.3L47.5 3z" fill="url(#a)"/><linearGradient id="b" gradientUnits="userSpaceOnUse" x1="6.347" y1="44.719" x2="47.465" y2="44.719"><stop offset="0" stop-color="#a30442"/><stop offset=".062" stop-color="#ac0340"/><stop offset=".272" stop-color="#c40239"/><stop offset=".491" stop-color="#d60135"/><stop offset=".726" stop-color="#e10032"/><stop offset="1" stop-color="#e40031"/></linearGradient><path d="M47.5 29.4C46.9 56.9 23.7 60 23.7 60S13.4 58.6 6.3 49.5l41.2-20.1z" fill="url(#b)"/><linearGradient id="c" gradientUnits="userSpaceOnUse" x1="46.137" y1=".234" x2="-7.806" y2="16.985"><stop offset="0" stop-color="#fff"/><stop offset=".17" stop-color="#f8f8f8"/><stop offset=".41" stop-color="#e6e6e6"/><stop offset=".693" stop-color="#c7c7c7"/><stop offset="1" stop-color="#9e9e9e"/></linearGradient><path d="M47.5 3L0 26.1V3s12.4-3 23.7-3c11.4 0 23.8 3 23.8 3z" fill="url(#c)"/><linearGradient id="d" gradientUnits="userSpaceOnUse" x1="17.805" y1="20.178" x2="29.676" y2="20.178"><stop offset="0" stop-color="#a30442"/><stop offset=".062" stop-color="#ac0340"/><stop offset=".272" stop-color="#c40239"/><stop offset=".491" stop-color="#d60135"/><stop offset=".726" stop-color="#e10032"/><stop offset="1" stop-color="#e40031"/></linearGradient><path d="M29.7 27.9H17.8v-9.5c0-3.3 2.7-5.9 5.9-5.9 3.3 0 5.9 2.7 5.9 5.9v9.5z" fill="url(#d)"/><linearGradient id="e" gradientUnits="userSpaceOnUse" x1="17.805" y1="35.604" x2="29.676" y2="35.604"><stop offset="0" stop-color="#fff"/><stop offset=".17" stop-color="#f8f8f8"/><stop offset=".41" stop-color="#e6e6e6"/><stop offset=".693" stop-color="#c7c7c7"/><stop offset="1" stop-color="#9e9e9e"/></linearGradient><path d="M23.7 43.3c-3.3 0-5.9-2.7-5.9-5.9v-9.5h11.9v9.5c0 3.3-2.7 5.9-6 5.9z" fill="url(#e)"/><path d="M65.4 22.7c1.2.2 1.9-.2 1.9-2.1v-6.9h7.9v11.5h-2.6v-9h-2.7v4.3c0 4.1-2.4 4.9-4.5 4.7v-2.5zm19.5 0v2.5h-7.2V13.7h7.1v2.5h-4.5v1.9h4.1v2.5h-4.1v2h4.6zm8.4 2.5l-3.7-5.3v5.3H87V13.7h2.6v5l3.5-5h3l-3.9 5.6 4 5.9h-2.9zm11.6-1.8h-4.3l-.6 1.8h-2.9l3.9-11.5h3.3l3.9 11.5h-2.9l-.4-1.8zm-.8-2.5l-1.3-4.2-1.3 4.2h2.6zm14.1-3.2c0 2.2-1.8 3.9-4 3.9h-1.7v3.6h-2.6V13.7h4.3c2.3 0 4 1.8 4 4zm-2.6 0c0-.8-.6-1.5-1.4-1.5h-1.7v3h1.7c.8-.1 1.4-.7 1.4-1.5zm4 1.8c0-3.4 2.5-6 6-6 2.1 0 3.9 1 4.9 2.7l-2.3 1.3c-.5-.9-1.5-1.4-2.7-1.4-2 0-3.3 1.4-3.3 3.4s1.3 3.4 3.3 3.4c1.2 0 2.2-.5 2.7-1.4l2.3 1.3c-1 1.6-2.8 2.7-4.9 2.7-3.5-.1-6-2.7-6-6zm20.7-3.3h-3v9h-2.6v-9h-3v-2.5h8.5v2.5zm10 5.6c0 2-1.7 3.4-3.7 3.4h-4.8V13.7h4.5c2 0 3.6 1.3 3.6 3.3 0 1-.4 1.7-1 2.2.9.6 1.4 1.5 1.4 2.6zm-5.9-5.6v2h1.9c.6 0 1-.4 1-1s-.4-1-1-1h-1.9zm3.3 5.4c0-.6-.4-1.1-1.1-1.1h-2.2v2.2h2.2c.7 0 1.1-.4 1.1-1.1zm11.7 1.1v2.5h-7.2V13.7h7.1v2.5h-4.5v1.9h4.1v2.5h-4.1v2h4.6zm10.9-9v11.5h-2.6v-4.6h-3.6v4.6h-2.6V13.7h2.6v4.4h3.6v-4.4h2.6zm11.3 0v11.5H179v-4.6h-3.6v4.6h-2.6V13.7h2.6v4.4h3.6v-4.4h2.6zm9.2 9.7h-4.3l-.6 1.8H183l3.9-11.5h3.3l3.9 11.5h-2.9l-.4-1.8zm-.8-2.5l-1.3-4.2-1.3 4.2h2.6zm14.3 4.3h-2.6v-3.8h-.8l-2.4 3.8h-3l2.7-4.1c-1.4-.6-2.4-2-2.4-3.4 0-2.2 1.8-3.9 3.9-3.9h4.6v11.4zm-2.6-6.1v-3h-2c-.7 0-1.3.6-1.3 1.5 0 .8.6 1.5 1.3 1.5h2zM74.6 41.3c0 2.2-1.6 3.6-3.9 3.6h-4.4V33.4h7.4v2.5h-4.8v1.7h1.8c2.3 0 3.9 1.5 3.9 3.7zm-2.7 0c0-.8-.6-1.1-1.3-1.1h-1.8v2.3h1.8c.8-.1 1.3-.4 1.3-1.2zm11.6 1v2.5h-7.2V33.4h7.1v2.5h-4.5v1.9H83v2.5h-4.1v2h4.6zm10-.7c0 2.1-1.8 3.5-4.2 3.5-2.4 0-3.7-1.1-4.4-2.7l2.3-1.3c.3.9.9 1.6 2.1 1.6 1.1 0 1.6-.5 1.6-1.2 0-.8-.5-1.2-1.6-1.2h-1.5V38h1.1c1 0 1.6-.4 1.6-1.1 0-.7-.4-1.1-1.3-1.1-1 0-1.5.6-1.8 1.3l-2.2-1.3c.7-1.4 1.9-2.5 4.1-2.5 2.3 0 4 1.3 4 3.4 0 1-.4 1.8-1.1 2.4.7.4 1.3 1.3 1.3 2.5zm1.3-2.5c0-3.4 2.7-6 6-6s6 2.6 6 6-2.7 6-6 6-6-2.6-6-6zm9.3 0c0-2-1.5-3.4-3.3-3.4s-3.3 1.4-3.3 3.4 1.5 3.4 3.3 3.4 3.3-1.3 3.3-3.4zm13.1 5.8h-2.6v-9h-3.4v9h-2.6V33.4h8.7v11.5zm9.2-1.8h-4.3l-.6 1.8h-2.9l3.9-11.5h3.3l3.9 11.5H127l-.6-1.8zm-.8-2.5l-1.3-4.2-1.3 4.2h2.6zm4.8-1.5c0-3.4 2.5-6 6-6 2.1 0 3.9 1 4.9 2.7l-2.3 1.3c-.5-.9-1.5-1.4-2.7-1.4-2 0-3.3 1.4-3.3 3.4s1.3 3.4 3.3 3.4c1.2 0 2.2-.5 2.7-1.4l2.3 1.3c-1 1.6-2.8 2.7-4.9 2.7-3.5 0-6-2.6-6-6zm21.4-5.7v11.5h-2.6v-4.6h-3.6v4.6H143V33.4h2.6v4.4h3.6v-4.4h2.6zm1.9 5.7c0-3.4 2.7-6 6-6s6 2.6 6 6-2.7 6-6 6c-3.4 0-6-2.6-6-6zm9.3 0c0-2-1.5-3.4-3.3-3.4s-3.3 1.4-3.3 3.4 1.5 3.4 3.3 3.4 3.3-1.3 3.3-3.4zm4.1 0c0-3.4 2.5-6 6-6 2.1 0 3.9 1 4.9 2.7l-2.3 1.3c-.5-.9-1.5-1.4-2.7-1.4-2 0-3.3 1.4-3.3 3.4s1.3 3.4 3.3 3.4c1.2 0 2.2-.5 2.7-1.4l2.3 1.3c-1 1.6-2.8 2.7-4.9 2.7-3.5 0-6-2.6-6-6zm20.7-3.2h-3v9h-2.6v-9h-3v-2.5h8.5v2.5zm9.9 5c0 2.2-1.8 3.9-4 3.9h-4.3V33.4h2.6V37h1.7c2.2 0 4 1.7 4 3.9zm-2.6 0c0-.8-.6-1.5-1.4-1.5H192v3h1.7c.8 0 1.4-.6 1.4-1.5z" fill="#004b82"/></svg>