<svg xmlns="http://www.w3.org/2000/svg" viewBox="0 0 204.8 62.4"><path d="M48.5 4.3V4h-.1v-.1l-.4-.2h-.1c-1.7-.4-13.1-3-23.7-3C13.5.7 1.8 3.4.5 3.7c-.3.1-.5.4-.5.7v25.2C0 38 2.1 45 6.1 50.5l.4.5.2.3c7.1 8.9 17 10.4 17.5 10.4h.2c.2 0 23.6-3.5 24.2-31V4.3zm-6.9 28.9l-10.9 5.3V19.6c0-1.7-.7-3.3-1.9-4.6-.2-.2-.5-.4-.7-.6l12.1-5.9L47.5 5v25.3l-5.9 2.9zM21.4 43.3c-1.7-1-2.6-2.7-2.6-4.7v-9h10.9v9.7C29.3 42 27 44 24.2 44h-.7c-.7-.1-1.4-.3-2.1-.7zm-2.6-23.7c0-.3 0-.6.1-.9.4-2.6 2.7-4.5 5.4-4.5.2 0 .5 0 .7.1.7.1 1.3.3 1.9.6.4.2.8.5 1.2.9 1 1 1.6 2.4 1.6 3.8v9H18.8v-9zM1 4.6c2.1-.5 13.1-2.9 23.2-2.9 9.1 0 18.7 1.9 22.2 2.7L27 13.8c-.1 0-.2-.1-.3-.1-.1 0-.2-.1-.3-.1-.1-.1-.3-.1-.4-.1-.1 0-.2-.1-.3-.1-.2 0-.3-.1-.5-.1h-1.1c-.4 0-.8 0-1.1.1-.1 0-.2.1-.4.1-.2.1-.5.1-.7.2-.1.1-.3.1-.4.2l-.6.3c-.1.1-.3.2-.4.3-.2.1-.3.2-.5.3l-.4.4c-.1.1-.3.2-.4.4-.1.1-.2.3-.3.5-.1.1-.2.3-.3.4-.1.2-.2.3-.3.5-.1.2-.2.3-.2.5-.1.2-.1.4-.2.5 0 .2-.1.3-.1.4L1 26.5V4.6zm0 25.1v-2l6-2.9 10.8-5.3v19.1c0 .3 0 .5.1.8v.3c0 .2.1.3.1.5 0 .1.1.2.1.3 0 .2.1.3.2.5 0 .1.1.2.1.3.1.1.1.3.2.4 0 .1.1.2.1.3.1.1.2.3.3.4.1.1.1.2.2.2.1.1.2.3.4.4l.2.2c.2.2.4.4.6.5L7 50.1c-4-5.4-6-12.2-6-20.4zm23.2 31c-.9-.1-10.1-1.8-16.6-9.9l8.1-3.9 5.5-2.7c.1.1.2.1.3.1.1.1.2.1.3.2.1.1.3.1.5.2.1 0 .2.1.3.1.2 0 .4.1.5.1.1 0 .2 0 .3.1.3 0 .6.1.8.1.4 0 .8 0 1.2-.1.1 0 .2-.1.4-.1.2-.1.5-.1.7-.2.1-.1.3-.1.4-.2l.6-.3c.1-.1.3-.2.4-.3.2-.1.4-.2.5-.4.1-.1.2-.2.3-.4.1-.1.3-.3.4-.5.1-.1.2-.3.3-.4.1-.2.2-.3.3-.5.1-.2.1-.3.2-.5s.2-.4.2-.6c.1-.2.1-.3.1-.5s.1-.3.1-.5l16.6-8.1.3-.1c-.7 25.5-21.3 29.1-23 29.3zM65.9 24c1.2.2 1.9-.2 1.9-2.1V15h7.9v11.5h-2.6v-9h-2.7v4.3c0 4.1-2.4 4.9-4.5 4.7V24zm19.5-.1v2.5h-7.2V14.9h7.1v2.5h-4.5v1.9h4.1v2.5h-4.1v2h4.6zm8.4 2.5l-3.7-5.3v5.3h-2.6V14.9h2.6v5l3.5-5h3l-3.9 5.6 4 5.9h-2.9zm11.6-1.8h-4.3l-.6 1.8h-2.9l3.9-11.5h3.3l3.9 11.5H106l-.6-1.8zm-.8-2.4l-1.3-4.2-1.3 4.2h2.6zm14.1-3.3c0 2.2-1.8 3.9-4 3.9H113v3.6h-2.6V14.9h4.3c2.3 0 4 1.8 4 4zm-2.6 0c0-.8-.6-1.5-1.4-1.5H113v3h1.7c.8 0 1.4-.7 1.4-1.5zm4 1.8c0-3.4 2.5-6 6-6 2.1 0 3.9 1 4.9 2.7l-2.3 1.3c-.5-.9-1.5-1.4-2.7-1.4-2 0-3.3 1.4-3.3 3.4s1.3 3.4 3.3 3.4c1.2 0 2.2-.5 2.7-1.4L131 24c-1 1.6-2.8 2.7-4.9 2.7-3.5-.1-6-2.6-6-6zm20.6-3.2h-3v9h-2.6v-9h-3V15h8.5v2.5zm10.1 5.6c0 2-1.7 3.4-3.7 3.4h-4.8V14.9h4.5c2 0 3.6 1.3 3.6 3.3 0 1-.4 1.7-1 2.2.9.6 1.4 1.5 1.4 2.7zm-5.9-5.7v2h1.9c.6 0 1-.4 1-1s-.4-1-1-1h-1.9zm3.3 5.5c0-.6-.4-1.1-1.1-1.1h-2.2V24h2.2c.7 0 1.1-.5 1.1-1.1zm11.7 1v2.5h-7.2V14.9h7.1v2.5h-4.5v1.9h4.1v2.5h-4.1v2h4.6zm10.9-9v11.5h-2.6v-4.6h-3.6v4.6H162V14.9h2.6v4.4h3.6v-4.4h2.6zm11.3 0v11.5h-2.6v-4.6h-3.6v4.6h-2.6V14.9h2.6v4.4h3.6v-4.4h2.6zm9.2 9.7H187l-.6 1.8h-2.9l3.9-11.5h3.3l3.9 11.5h-2.9l-.4-1.8zm-.8-2.4l-1.3-4.2-1.3 4.2h2.6zm14.3 4.2h-2.6v-3.8h-.8l-2.4 3.8h-3l2.7-4.1c-1.4-.6-2.4-2-2.4-3.4 0-2.2 1.8-3.9 3.9-3.9h4.6v11.4zm-2.6-6v-3h-2c-.7 0-1.3.6-1.3 1.5 0 .8.6 1.5 1.3 1.5h2zM75.1 42.5c0 2.2-1.6 3.6-3.9 3.6h-4.4V34.6h7.4v2.5h-4.8v1.7h1.8c2.3.1 3.9 1.5 3.9 3.7zm-2.7 0c0-.8-.6-1.1-1.3-1.1h-1.8v2.3h1.8c.7-.1 1.3-.4 1.3-1.2zM84 43.6v2.5h-7.2V34.6h7.1v2.5h-4.5V39h4.1v2.5h-4.1v2H84zm10-.8c0 2.1-1.8 3.5-4.2 3.5-2.4 0-3.7-1.1-4.4-2.7l2.3-1.3c.3.9.9 1.6 2.1 1.6 1.1 0 1.6-.5 1.6-1.2s-.5-1.2-1.6-1.2h-1.5v-2.3h1.1c1 0 1.6-.4 1.6-1.1 0-.7-.4-1.1-1.3-1.1-1 0-1.5.6-1.8 1.3L85.7 37c.7-1.4 1.9-2.5 4.1-2.5 2.3 0 4 1.3 4 3.4 0 1-.4 1.8-1.1 2.4.7.4 1.3 1.3 1.3 2.5zm1.3-2.5c0-3.4 2.7-6 6-6s6 2.6 6 6-2.7 6-6 6-6-2.6-6-6zm9.3 0c0-2-1.5-3.4-3.3-3.4S98 38.3 98 40.3s1.5 3.4 3.3 3.4 3.3-1.3 3.3-3.4zm13.1 5.8h-2.6v-9h-3.4v9H109V34.6h8.7v11.5zm9.2-1.8h-4.3l-.6 1.8h-2.9l3.9-11.5h3.3l3.9 11.5h-2.9l-.4-1.8zm-.8-2.5l-1.3-4.2-1.3 4.2h2.6zm4.8-1.5c0-3.4 2.5-6 6-6 2.1 0 3.9 1 4.9 2.7l-2.3 1.3c-.5-.9-1.5-1.4-2.7-1.4-2 0-3.3 1.4-3.3 3.4s1.3 3.4 3.3 3.4c1.2 0 2.2-.5 2.7-1.4l2.3 1.3c-1 1.6-2.8 2.7-4.9 2.7-3.5 0-6-2.6-6-6zm21.4-5.7v11.5h-2.6v-4.6h-3.6v4.6h-2.6V34.6h2.6V39h3.6v-4.4h2.6zm1.9 5.7c0-3.4 2.7-6 6-6s6 2.6 6 6-2.7 6-6 6c-3.4 0-6-2.6-6-6zm9.3 0c0-2-1.5-3.4-3.3-3.4s-3.3 1.4-3.3 3.4 1.5 3.4 3.3 3.4 3.3-1.3 3.3-3.4zm4.1 0c0-3.4 2.5-6 6-6 2.1 0 3.9 1 4.9 2.7l-2.3 1.3c-.5-.9-1.5-1.4-2.7-1.4-2 0-3.3 1.4-3.3 3.4s1.3 3.4 3.3 3.4c1.2 0 2.2-.5 2.7-1.4l2.3 1.3c-1 1.6-2.8 2.7-4.9 2.7-3.5 0-6-2.6-6-6zm20.7-3.2h-3v9h-2.6v-9h-3v-2.5h8.5v2.5zm9.9 5.1c0 2.2-1.8 3.9-4 3.9h-4.3V34.6h2.6v3.6h1.7c2.2 0 4 1.8 4 4zm-2.6 0c0-.8-.6-1.5-1.4-1.5h-1.7v3h1.7c.8-.1 1.4-.7 1.4-1.5z"/></svg>