<?xml version="1.0" encoding="utf-8"?>
<!-- Generator: Adobe Illustrator 23.0.5, SVG Export Plug-In . SVG Version: 6.00 Build 0)  -->
<svg version="1.1" id="Layer_1" xmlns="http://www.w3.org/2000/svg" xmlns:xlink="http://www.w3.org/1999/xlink" x="0px" y="0px"
	 viewBox="0 0 163.9 40" style="enable-background:new 0 0 163.9 40;" xml:space="preserve">
<g>
	<linearGradient id="SVGID_1_" gradientUnits="userSpaceOnUse" x1="5.5475" y1="30.3762" x2="30.8195" y2="5.1042">
		<stop  offset="0" style="stop-color:#4852A0"/>
		<stop  offset="0.163" style="stop-color:#4C509D"/>
		<stop  offset="0.3232" style="stop-color:#584A94"/>
		<stop  offset="0.4824" style="stop-color:#6C3F86"/>
		<stop  offset="0.641" style="stop-color:#873171"/>
		<stop  offset="0.7992" style="stop-color:#AB1E57"/>
		<stop  offset="0.955" style="stop-color:#D60737"/>
		<stop  offset="1" style="stop-color:#E4002D"/>
	</linearGradient>
	<path style="fill:url(#SVGID_1_);" d="M10.9,25.5h14.5v7.3c0,4-3.3,7.3-7.3,7.3h0c-4,0-7.3-3.3-7.3-7.3V25.5z M31,5.3
		C27.8,2,23.2,0,18.2,0c-5,0-9.6,2-12.9,5.3C2,8.6,0,13.2,0,18.2c0,2.6,0.5,5,1.5,7.3h9.4v-7.3c0-4,3.3-7.3,7.3-7.3h0
		c1.4,0,2.7,0.4,3.8,1.1l6.2-3.8l-3.8,6.2c0.7,1.1,1.1,2.4,1.1,3.8v7.3h9.4c1-2.2,1.5-4.7,1.5-7.3C36.4,13.2,34.3,8.6,31,5.3z"/>
	<g>
		<g>
			<path style="fill:#E40029;" d="M51.3,16.5v-3.1l-1.3,3.1h-0.2l-1.3-3.1v3.1h-0.5v-3.8h0.7l1.2,2.8l1.2-2.8h0.7v3.8H51.3z"/>
			<path style="fill:#E40029;" d="M53,16.5v-3.8h2.5v0.4h-2v1.2h2v0.4h-2V16h2v0.4H53z"/>
			<path style="fill:#E40029;" d="M56.2,16.5l1.7-2l-1.6-1.8h0.6l1.5,1.8v-1.8h0.5v1.8l1.5-1.8H61l-1.6,1.8l1.7,2h-0.6l-1.4-1.7
				L58.9,15v1.4h-0.5V15l-0.2-0.3l-1.4,1.7H56.2z"/>
			<path style="fill:#E40029;" d="M61.8,14.6c0-1.1,0.7-1.9,1.9-1.9c1.1,0,1.9,0.8,1.9,1.9c0,1.1-0.8,1.9-1.9,1.9
				C62.5,16.5,61.8,15.7,61.8,14.6z M65,14.6c0-0.9-0.5-1.5-1.4-1.5c-0.8,0-1.4,0.6-1.4,1.5c0,0.9,0.5,1.5,1.4,1.5
				C64.5,16.1,65,15.5,65,14.6z"/>
			<path style="fill:#E40029;" d="M67.5,16.5v-3.3h-1.2v-0.4h2.8v0.4H68v3.3H67.5z"/>
			<path style="fill:#E40029;" d="M70.1,16.5v-3.8h1.5c0.8,0,1.2,0.5,1.2,1.1S72.3,15,71.6,15h-1v1.5H70.1z M72.3,13.8
				c0-0.4-0.3-0.7-0.7-0.7h-1v1.4h1C72,14.6,72.3,14.3,72.3,13.8z"/>
			<path style="fill:#E40029;" d="M76.4,16.5L76,15.6h-1.9l-0.3,0.8h-0.5l1.5-3.8h0.6l1.5,3.8H76.4z M75.1,13.2l-0.8,2h1.6
				L75.1,13.2z"/>
			<path style="fill:#E40029;" d="M77.6,14.6c0-1.2,0.8-1.9,1.9-1.9c0.7,0,1.1,0.3,1.4,0.7l-0.4,0.2c-0.2-0.3-0.6-0.5-1-0.5
				c-0.8,0-1.4,0.6-1.4,1.5c0,0.9,0.6,1.5,1.4,1.5c0.4,0,0.8-0.2,1-0.5l0.4,0.2c-0.3,0.4-0.8,0.7-1.4,0.7
				C78.4,16.5,77.6,15.7,77.6,14.6z"/>
			<path style="fill:#E40029;" d="M81.6,16.1c0.4,0,0.7-0.2,0.9-1.5l0.2-1.9H85v3.8h-0.5v-3.3h-1.4l-0.2,1.5
				c-0.2,1.6-0.7,1.9-1.3,1.9V16.1z"/>
			<path style="fill:#E40029;" d="M86.2,16.5v-3.8h2.5v0.4h-2v1.2h2v0.4h-2V16h2v0.4H86.2z"/>
			<path style="fill:#E40029;" d="M89.7,16.5v-3.8h1.7c0.7,0,1.1,0.4,1.1,1c0,0.5-0.3,0.8-0.7,0.9c0.4,0.1,0.7,0.5,0.7,0.9
				c0,0.6-0.4,1-1.1,1H89.7z M91.9,13.7c0-0.3-0.2-0.6-0.6-0.6h-1.1v1.2h1.1C91.7,14.3,91.9,14.1,91.9,13.7z M92,15.4
				c0-0.3-0.2-0.6-0.7-0.6h-1.1V16h1.1C91.7,16,92,15.8,92,15.4z"/>
			<path style="fill:#E40029;" d="M93.4,14.6c0-1.1,0.7-1.9,1.9-1.9c1.1,0,1.9,0.8,1.9,1.9c0,1.1-0.8,1.9-1.9,1.9
				C94.1,16.5,93.4,15.7,93.4,14.6z M96.6,14.6c0-0.9-0.5-1.5-1.4-1.5c-0.8,0-1.4,0.6-1.4,1.5c0,0.9,0.5,1.5,1.4,1.5
				C96.1,16.1,96.6,15.5,96.6,14.6z"/>
			<path style="fill:#E40029;" d="M98.1,16.5v-3.8h2.5v0.4h-2v1.2h2v0.4h-2V16h2v0.4H98.1z"/>
			<path style="fill:#E40029;" d="M103.3,14.6c0-1.1,0.7-1.9,1.9-1.9c1.1,0,1.9,0.8,1.9,1.9c0,1.1-0.8,1.9-1.9,1.9
				C104,16.5,103.3,15.7,103.3,14.6z M106.5,14.6c0-0.9-0.5-1.5-1.4-1.5c-0.8,0-1.4,0.6-1.4,1.5c0,0.9,0.5,1.5,1.4,1.5
				C106,16.1,106.5,15.5,106.5,14.6z"/>
			<path style="fill:#E40029;" d="M110.5,12.7v0.4h-2v1.1h1c0.7,0,1.2,0.5,1.2,1.1c0,0.6-0.4,1.1-1.2,1.1H108v-3.8H110.5z
				 M108.5,14.6V16h1c0.4,0,0.7-0.3,0.7-0.7c0-0.4-0.3-0.7-0.7-0.7H108.5z"/>
			<path style="fill:#E40029;" d="M112.6,16.5v-3.3h-1.2v-0.4h1.7v1.5h1c0.7,0,1.2,0.5,1.2,1.1c0,0.6-0.4,1.1-1.2,1.1H112.6z
				 M113.1,14.6V16h1c0.4,0,0.7-0.3,0.7-0.7c0-0.4-0.3-0.7-0.7-0.7H113.1z"/>
			<path style="fill:#E40029;" d="M116.2,16.5v-3.8h2.5v0.4h-2v1.2h2v0.4h-2V16h2v0.4H116.2z"/>
			<path style="fill:#E40029;" d="M119.5,16.1c0.4,0,0.7-0.2,0.9-1.5l0.2-1.9h2.3V16h0.3v1.1h-0.5v-0.7h-2.8v0.7h-0.5V16.1z
				 M120.2,16h2.2v-2.9H121l-0.2,1.5C120.7,15.4,120.5,15.8,120.2,16z"/>
			<path style="fill:#E40029;" d="M124.1,16.5v-3.8h0.5v2.9l2.2-2.9h0.5v3.8h-0.5v-3l-2.2,3H124.1z"/>
			<path style="fill:#E40029;" d="M131.1,16.5v-1.7h-2.2v1.7h-0.5v-3.8h0.5v1.6h2.2v-1.6h0.5v3.8H131.1z"/>
			<path style="fill:#E40029;" d="M132.7,16.5v-3.8h2.5v0.4h-2v1.2h2v0.4h-2V16h2v0.4H132.7z"/>
			<path style="fill:#E40029;" d="M138.9,16.5v-1.7h-2.2v1.7h-0.5v-3.8h0.5v1.6h2.2v-1.6h0.5v3.8H138.9z"/>
			<path style="fill:#E40029;" d="M140.6,16.5v-3.8h0.5v2.9l2.2-2.9h0.5v3.8h-0.5v-3l-2.2,3H140.6z"/>
			<path style="fill:#E40029;" d="M144.8,16.5v-3.8h2.5v0.4h-2v1.2h2v0.4h-2V16h2v0.4H144.8z"/>
		</g>
		<g>
			<path style="fill:#272D5C;" d="M52.7,34v-1.1c-3.4-0.3-5.4-1.8-5.4-4.4c0-2.5,2-4,5.4-4.4V23h2.8v1.1c3.4,0.3,5.4,1.8,5.4,4.4
				c0,2.6-2,4-5.4,4.4V34H52.7z M52.7,30.3v-3.7c-1.7,0.2-2.5,0.8-2.5,1.8C50.2,29.5,51,30.1,52.7,30.3z M55.6,26.7v3.7
				c1.7-0.2,2.5-0.8,2.5-1.8C58.1,27.5,57.2,26.9,55.6,26.7z"/>
			<path style="fill:#272D5C;" d="M70,34l-0.5-1.6h-4.3L64.6,34h-3.2l4.1-11H69l4.1,11H70z M67.3,25.8l-1.4,4.1h2.8L67.3,25.8z"/>
			<path style="fill:#272D5C;" d="M74.1,34V23h5.5c2.5,0,3.8,1.7,3.8,3.6c0,2-1.3,3.6-3.8,3.6H77V34H74.1z M80.6,26.7
				c0-0.8-0.6-1.2-1.3-1.2H77v2.4h2.3C80,27.8,80.6,27.4,80.6,26.7z"/>
			<path style="fill:#272D5C;" d="M94.5,34v-7.1L91.7,34h-1.2l-2.8-7.1V34h-2.8V23h3.9l2.3,6l2.3-6h3.9v11H94.5z"/>
			<path style="fill:#272D5C;" d="M106.8,34v-8.5h-4.6V34h-2.8V23h10.2v11H106.8z"/>
			<path style="fill:#272D5C;" d="M111.8,34V23h5.5c2.5,0,3.8,1.7,3.8,3.6c0,2-1.3,3.6-3.8,3.6h-2.7V34H111.8z M118.2,26.7
				c0-0.8-0.6-1.2-1.3-1.2h-2.3v2.4h2.3C117.7,27.8,118.2,27.4,118.2,26.7z"/>
			<path style="fill:#272D5C;" d="M122,28.5c0-3.3,2.5-5.7,5.9-5.7c3.4,0,5.9,2.3,5.9,5.7c0,3.3-2.5,5.7-5.9,5.7
				C124.5,34.2,122,31.8,122,28.5z M130.8,28.5c0-1.8-1.2-3.2-3-3.2c-1.8,0-3,1.4-3,3.2c0,1.8,1.2,3.2,3,3.2
				C129.7,31.7,130.8,30.3,130.8,28.5z"/>
			<path style="fill:#272D5C;" d="M143.9,23v2.5h-5.7v1.4h2.8c2.4,0,3.7,1.6,3.7,3.5s-1.3,3.6-3.7,3.6h-5.6V23H143.9z M138.1,29.3
				v2.2h2.4c0.7,0,1.2-0.4,1.2-1.1c0-0.7-0.5-1.1-1.2-1.1H138.1z"/>
			<path style="fill:#272D5C;" d="M146,34V23h8v2.5h-5.2v1.7h5.1v2.5h-5.1v1.9h5.2V34H146z"/>
			<path style="fill:#272D5C;" d="M155.9,34V23h8v2.5h-5.2V34H155.9z"/>
		</g>
	</g>
</g>
</svg>
