<?xml version="1.0" encoding="utf-8"?>
<!-- Generator: Adobe Illustrator 23.0.5, SVG Export Plug-In . SVG Version: 6.00 Build 0)  -->
<svg version="1.1" id="Layer_1" xmlns="http://www.w3.org/2000/svg" xmlns:xlink="http://www.w3.org/1999/xlink" x="0px" y="0px"
	 viewBox="0 0 204.8 62.4" style="enable-background:new 0 0 204.8 62.4;" xml:space="preserve">
<g>
	<path d="M48.5,4.3l0-0.3l-0.1,0l0-0.1L48,3.7l-0.1,0l0,0c-1.7-0.4-13.1-3-23.7-3c-10.7,0-22.4,2.7-23.7,3C0.2,3.8,0,4.1,0,4.4V27
		v1.1v1.5C0,38,2.1,45,6.1,50.5l0,0L6.5,51c0,0,0,0,0,0l0.2,0.3l0,0c7.1,8.9,17,10.4,17.5,10.4l0.1,0l0.1,0c0.2,0,23.6-3.5,24.2-31
		l0-0.4c0-0.2,0-0.4,0-0.6V4.3z M41.6,33.2l-10.9,5.3v-8.9v-1v-9c0-1.7-0.7-3.3-1.9-4.6c-0.2-0.2-0.5-0.4-0.7-0.6l12.1-5.9L47.5,5
		v24.6c0,0.2,0,0.5,0,0.7L41.6,33.2z M21.4,43.3c-1.7-1-2.6-2.7-2.6-4.7v-9h10.9v9c0,0.2,0,0.5,0,0.7l0,0C29.3,42,27,44,24.2,44
		c-0.2,0-0.5,0-0.7,0C22.8,43.9,22.1,43.7,21.4,43.3z M18.8,19.6c0-0.3,0-0.6,0.1-0.9c0.4-2.6,2.7-4.5,5.4-4.5c0.2,0,0.5,0,0.7,0.1
		c0.7,0.1,1.3,0.3,1.9,0.6c0.4,0.2,0.8,0.5,1.2,0.9c1,1,1.6,2.4,1.6,3.8v9H18.8V19.6z M1,4.6c2.1-0.5,13.1-2.9,23.2-2.9
		c9.1,0,18.7,1.9,22.2,2.7l-19.4,9.4c-0.1,0-0.2-0.1-0.3-0.1c-0.1,0-0.2-0.1-0.3-0.1c-0.1-0.1-0.3-0.1-0.4-0.1
		c-0.1,0-0.2-0.1-0.3-0.1c-0.2,0-0.3-0.1-0.5-0.1c-0.1,0-0.2,0-0.3,0c-0.3,0-0.5,0-0.8,0c-0.4,0-0.8,0-1.1,0.1
		c-0.1,0-0.2,0.1-0.4,0.1c-0.2,0.1-0.5,0.1-0.7,0.2c-0.1,0.1-0.3,0.1-0.4,0.2c-0.2,0.1-0.4,0.2-0.6,0.3c-0.1,0.1-0.3,0.2-0.4,0.3
		c-0.2,0.1-0.3,0.2-0.5,0.3c-0.1,0.1-0.3,0.3-0.4,0.4c-0.1,0.1-0.3,0.2-0.4,0.4c-0.1,0.1-0.2,0.3-0.3,0.5c-0.1,0.1-0.2,0.3-0.3,0.4
		c-0.1,0.2-0.2,0.3-0.3,0.5c-0.1,0.2-0.2,0.3-0.2,0.5c-0.1,0.2-0.1,0.4-0.2,0.5c0,0.2-0.1,0.3-0.1,0.4L1,26.5V4.6z M1,29.7v-2l6-2.9
		l10.8-5.3c0,0,0,0.1,0,0.1v9v1v9c0,0.3,0,0.5,0.1,0.8c0,0.1,0,0.2,0,0.3c0,0.2,0.1,0.3,0.1,0.5c0,0.1,0.1,0.2,0.1,0.3
		c0,0.2,0.1,0.3,0.2,0.5c0,0.1,0.1,0.2,0.1,0.3c0.1,0.1,0.1,0.3,0.2,0.4c0,0.1,0.1,0.2,0.1,0.3c0.1,0.1,0.2,0.3,0.3,0.4
		c0.1,0.1,0.1,0.2,0.2,0.2c0.1,0.1,0.2,0.3,0.4,0.4c0.1,0.1,0.1,0.1,0.2,0.2c0.2,0.2,0.4,0.4,0.6,0.5L7,50.1C3,44.7,1,37.9,1,29.7z
		 M24.2,60.7c-0.9-0.1-10.1-1.8-16.6-9.9l8.1-3.9l5.5-2.7c0.1,0.1,0.2,0.1,0.3,0.1c0.1,0.1,0.2,0.1,0.3,0.2c0.1,0.1,0.3,0.1,0.5,0.2
		c0.1,0,0.2,0.1,0.3,0.1c0.2,0,0.4,0.1,0.5,0.1c0.1,0,0.2,0,0.3,0.1c0.3,0,0.6,0.1,0.8,0.1c0.4,0,0.8,0,1.2-0.1
		c0.1,0,0.2-0.1,0.4-0.1c0.2-0.1,0.5-0.1,0.7-0.2c0.1-0.1,0.3-0.1,0.4-0.2c0.2-0.1,0.4-0.2,0.6-0.3c0.1-0.1,0.3-0.2,0.4-0.3
		c0.2-0.1,0.4-0.2,0.5-0.4c0.1-0.1,0.2-0.2,0.3-0.4c0.1-0.1,0.3-0.3,0.4-0.5c0.1-0.1,0.2-0.3,0.3-0.4c0.1-0.2,0.2-0.3,0.3-0.5
		c0.1-0.2,0.1-0.3,0.2-0.5c0.1-0.2,0.2-0.4,0.2-0.6c0.1-0.2,0.1-0.3,0.1-0.5c0-0.2,0.1-0.3,0.1-0.5l16.6-8.1l0.3-0.1
		C46.5,56.9,25.9,60.5,24.2,60.7z"/>
	<g>
		<path d="M65.9,24c1.2,0.2,1.9-0.2,1.9-2.1v-6.9h7.9v11.5h-2.6v-9h-2.7v4.3c0,4.1-2.4,4.9-4.5,4.7V24z"/>
		<path d="M85.4,23.9v2.5h-7.2V14.9h7.1v2.5h-4.5v1.9h4.1v2.5h-4.1v2H85.4z"/>
		<path d="M93.8,26.4l-3.7-5.3v5.3h-2.6V14.9h2.6v5l3.5-5h3l-3.9,5.6l4,5.9H93.8z"/>
		<path d="M105.4,24.6h-4.3l-0.6,1.8h-2.9l3.9-11.5h3.3l3.9,11.5H106L105.4,24.6z M104.6,22.2l-1.3-4.2l-1.3,4.2H104.6z"/>
		<path d="M118.7,18.9c0,2.2-1.8,3.9-4,3.9H113v3.6h-2.6V14.9h4.3C117,14.9,118.7,16.7,118.7,18.9z M116.1,18.9
			c0-0.8-0.6-1.5-1.4-1.5H113v3h1.7C115.5,20.4,116.1,19.7,116.1,18.9z"/>
		<path d="M120.1,20.7c0-3.4,2.5-6,6-6c2.1,0,3.9,1,4.9,2.7l-2.3,1.3c-0.5-0.9-1.5-1.4-2.7-1.4c-2,0-3.3,1.4-3.3,3.4
			s1.3,3.4,3.3,3.4c1.2,0,2.2-0.5,2.7-1.4L131,24c-1,1.6-2.8,2.7-4.9,2.7C122.6,26.6,120.1,24.1,120.1,20.7z"/>
		<path d="M140.7,17.5h-3v9h-2.6v-9h-3v-2.5h8.5V17.5z"/>
		<path d="M150.8,23.1c0,2-1.7,3.4-3.7,3.4h-4.8V14.9h4.5c2,0,3.6,1.3,3.6,3.3c0,1-0.4,1.7-1,2.2C150.3,21,150.8,21.9,150.8,23.1z
			 M144.9,17.4v2h1.9c0.6,0,1-0.4,1-1c0-0.6-0.4-1-1-1H144.9z M148.2,22.9c0-0.6-0.4-1.1-1.1-1.1h-2.2V24h2.2
			C147.8,24,148.2,23.5,148.2,22.9z"/>
		<path d="M159.9,23.9v2.5h-7.2V14.9h7.1v2.5h-4.5v1.9h4.1v2.5h-4.1v2H159.9z"/>
		<path d="M170.8,14.9v11.5h-2.6v-4.6h-3.6v4.6H162V14.9h2.6v4.4h3.6v-4.4H170.8z"/>
		<path d="M182.1,14.9v11.5h-2.6v-4.6h-3.6v4.6h-2.6V14.9h2.6v4.4h3.6v-4.4H182.1z"/>
		<path d="M191.3,24.6h-4.3l-0.6,1.8h-2.9l3.9-11.5h3.3l3.9,11.5h-2.9L191.3,24.6z M190.5,22.2l-1.3-4.2l-1.3,4.2H190.5z"/>
		<path d="M204.8,26.4h-2.6v-3.8h-0.8l-2.4,3.8h-3l2.7-4.1c-1.4-0.6-2.4-2-2.4-3.4c0-2.2,1.8-3.9,3.9-3.9h4.6V26.4z M202.2,20.4v-3
			h-2c-0.7,0-1.3,0.6-1.3,1.5c0,0.8,0.6,1.5,1.3,1.5H202.2z"/>
		<path d="M75.1,42.5c0,2.2-1.6,3.6-3.9,3.6h-4.4V34.6h7.4v2.5h-4.8v1.7h1.8C73.5,38.9,75.1,40.3,75.1,42.5z M72.4,42.5
			c0-0.8-0.6-1.1-1.3-1.1h-1.8v2.3h1.8C71.8,43.6,72.4,43.3,72.4,42.5z"/>
		<path d="M84,43.6v2.5h-7.2V34.6h7.1v2.5h-4.5V39h4.1v2.5h-4.1v2H84z"/>
		<path d="M94,42.8c0,2.1-1.8,3.5-4.2,3.5c-2.4,0-3.7-1.1-4.4-2.7l2.3-1.3c0.3,0.9,0.9,1.6,2.1,1.6c1.1,0,1.6-0.5,1.6-1.2
			s-0.5-1.2-1.6-1.2h-1.5v-2.3h1.1c1,0,1.6-0.4,1.6-1.1c0-0.7-0.4-1.1-1.3-1.1c-1,0-1.5,0.6-1.8,1.3l-2.2-1.3
			c0.7-1.4,1.9-2.5,4.1-2.5c2.3,0,4,1.3,4,3.4c0,1-0.4,1.8-1.1,2.4C93.4,40.7,94,41.6,94,42.8z"/>
		<path d="M95.3,40.3c0-3.4,2.7-6,6-6s6,2.6,6,6c0,3.4-2.7,6-6,6S95.3,43.7,95.3,40.3z M104.6,40.3c0-2-1.5-3.4-3.3-3.4
			s-3.3,1.4-3.3,3.4s1.5,3.4,3.3,3.4S104.6,42.4,104.6,40.3z"/>
		<path d="M117.7,46.1h-2.6v-9h-3.4v9H109V34.6h8.7V46.1z"/>
		<path d="M126.9,44.3h-4.3l-0.6,1.8h-2.9l3.9-11.5h3.3l3.9,11.5h-2.9L126.9,44.3z M126.1,41.8l-1.3-4.2l-1.3,4.2H126.1z"/>
		<path d="M130.9,40.3c0-3.4,2.5-6,6-6c2.1,0,3.9,1,4.9,2.7l-2.3,1.3c-0.5-0.9-1.5-1.4-2.7-1.4c-2,0-3.3,1.4-3.3,3.4
			s1.3,3.4,3.3,3.4c1.2,0,2.2-0.5,2.7-1.4l2.3,1.3c-1,1.6-2.8,2.7-4.9,2.7C133.4,46.3,130.9,43.7,130.9,40.3z"/>
		<path d="M152.3,34.6v11.5h-2.6v-4.6h-3.6v4.6h-2.6V34.6h2.6V39h3.6v-4.4H152.3z"/>
		<path d="M154.2,40.3c0-3.4,2.7-6,6-6c3.3,0,6,2.6,6,6c0,3.4-2.7,6-6,6C156.8,46.3,154.2,43.7,154.2,40.3z M163.5,40.3
			c0-2-1.5-3.4-3.3-3.4s-3.3,1.4-3.3,3.4s1.5,3.4,3.3,3.4S163.5,42.4,163.5,40.3z"/>
		<path d="M167.6,40.3c0-3.4,2.5-6,6-6c2.1,0,3.9,1,4.9,2.7l-2.3,1.3c-0.5-0.9-1.5-1.4-2.7-1.4c-2,0-3.3,1.4-3.3,3.4
			s1.3,3.4,3.3,3.4c1.2,0,2.2-0.5,2.7-1.4l2.3,1.3c-1,1.6-2.8,2.7-4.9,2.7C170.1,46.3,167.6,43.7,167.6,40.3z"/>
		<path d="M188.3,37.1h-3v9h-2.6v-9h-3v-2.5h8.5V37.1z"/>
		<path d="M198.2,42.2c0,2.2-1.8,3.9-4,3.9h-4.3V34.6h2.6v3.6h1.7C196.4,38.2,198.2,40,198.2,42.2z M195.6,42.2
			c0-0.8-0.6-1.5-1.4-1.5h-1.7v3h1.7C195,43.6,195.6,43,195.6,42.2z"/>
	</g>
</g>
</svg>
